<svg width="155" height="54" viewBox="0 0 155 54" fill="none" xmlns="http://www.w3.org/2000/svg">
<g clip-path="url(#clip0_526_566)">
<path d="M30.7199 45.0041H30.6525C30.0702 45.0043 29.4935 44.8898 28.9555 44.6671C28.4174 44.4444 27.9285 44.1178 27.5167 43.7061C27.1048 43.2944 26.7782 42.8056 26.5553 42.2677C26.3324 41.7297 26.2177 41.1531 26.2177 40.5707V28.1896C26.2178 27.6074 26.3327 27.0309 26.5557 26.4931C26.7787 25.9553 27.1054 25.4666 27.5172 25.0551C27.929 24.6435 28.4178 24.3171 28.9558 24.0945C29.4938 23.8719 30.0703 23.7574 30.6525 23.7576H30.7199V16.3418H30.089C27.2995 16.3379 24.6099 17.3801 22.5513 19.2625C20.4928 17.3801 17.8032 16.3379 15.0137 16.3418H11.1782C8.2144 16.3422 5.37206 17.5194 3.27595 19.6147C1.17984 21.71 0.00152044 24.5519 0 27.5157L0 41.0597C0.00037651 42.5279 0.289966 43.9817 0.852231 45.338C1.4145 46.6944 2.23842 47.9266 3.27696 48.9645C4.31551 50.0024 5.54832 50.8255 6.905 51.3869C8.26168 51.9483 9.71566 52.237 11.1839 52.2364H15.0194C17.8091 52.2399 20.4987 51.1972 22.5571 49.3143C24.6154 51.1972 27.305 52.2399 30.0947 52.2364H30.7256L30.7199 45.0056V45.0041ZM18.885 40.5449C18.885 41.1272 18.7703 41.7039 18.5474 42.2418C18.3245 42.7798 17.9978 43.2686 17.586 43.6803C17.1742 44.092 16.6853 44.4186 16.1472 44.6413C15.6092 44.864 15.0325 44.9785 14.4502 44.9783H11.7417C11.1593 44.9785 10.5827 44.864 10.0446 44.6413C9.50658 44.4186 9.01768 44.092 8.60584 43.6803C8.19401 43.2686 7.86732 42.7798 7.64443 42.2418C7.42154 41.7039 7.30682 41.1272 7.30682 40.5449V28.1896C7.30701 27.6074 7.42187 27.0309 7.64484 26.4931C7.86781 25.9553 8.19454 25.4666 8.60635 25.0551C9.01816 24.6435 9.507 24.3171 10.045 24.0945C10.5829 23.8719 11.1595 23.7574 11.7417 23.7576H14.4502C15.0324 23.7574 15.6089 23.8719 16.1469 24.0945C16.6848 24.3171 17.1737 24.6435 17.5855 25.0551C17.9973 25.4666 18.324 25.9553 18.547 26.4931C18.77 27.0309 18.8848 27.6074 18.885 28.1896V40.5449V40.5449ZM33.9044 14.4104C33.9006 13.4635 34.0844 12.5252 34.4451 11.6497C34.8058 10.7742 35.3363 9.97872 36.006 9.30928C36.6757 8.63983 37.4714 8.10964 38.3471 7.74928C39.2227 7.38892 40.1611 7.20554 41.108 7.20971V44.9726C41.0734 46.872 40.3033 48.6839 38.9597 50.027C37.6161 51.37 35.8039 52.1395 33.9044 52.1733V14.4104ZM125.939 14.9983V7.31295C126.886 7.30954 127.824 7.49333 128.699 7.85375C129.575 8.21416 130.37 8.74408 131.04 9.41303C131.709 10.082 132.24 10.8767 132.602 11.7516C132.963 12.6265 133.148 13.5642 133.146 14.5108V16.3762H137.489V23.6529H133.144V52.2235C131.235 52.2212 129.405 51.4619 128.054 50.1121C126.704 48.7623 125.944 46.9321 125.941 45.0228V23.7676H121.327V16.3977H125.941V14.9997L125.939 14.9983ZM103.173 45.0443V52.245C105.073 52.2115 106.885 51.4423 108.229 50.0992C109.573 48.7561 110.343 46.944 110.378 45.0443V26.2682C110.385 25.5829 110.648 24.9247 111.116 24.4229C111.506 23.9612 112.079 23.6916 112.685 23.6859H118.141V16.3992H112.689C110.153 16.4393 107.732 17.4632 105.936 19.2547C104.141 21.0463 103.111 23.4654 103.065 26.0015L103.157 45.0443H103.173V45.0443ZM140.666 0.573929H146.101V1.59912H143.968V7.29144H142.794V1.60055H140.672L140.666 0.573929ZM146.86 0.573929H148.517L150.368 5.82606L152.193 0.573929H153.829V7.2814H152.71V2.111L150.849 7.28714H149.88L147.999 2.111V7.28714H146.881L146.86 0.573929ZM67.1981 19.9909C66.0968 18.8494 64.7756 17.943 63.3142 17.3264C61.8528 16.7098 60.2816 16.3958 58.6954 16.4035H56.4042C54.7624 16.4866 53.1465 16.8336 51.6152 17.4286V14.8664C51.6152 10.9864 48.4564 7.24556 44.5793 7.24556H44.3026V40.6281C44.3026 43.5273 45.8712 46.6688 47.8915 48.6991C50.2 51.0047 52.3937 52.2852 56.3941 52.2852H58.7012C61.8913 52.2289 64.9369 50.9445 67.2038 48.6991C69.3287 46.3778 70.5143 43.3492 70.5303 40.2022V28.4878C70.5647 25.3303 69.3698 22.2832 67.1981 19.9909V19.9909ZM63.2177 40.5449C63.2177 41.1274 63.103 41.7041 62.88 42.2422C62.657 42.7803 62.3302 43.2691 61.9182 43.6808C61.5062 44.0926 61.0172 44.4191 60.4789 44.6417C59.9407 44.8643 59.3639 44.9787 58.7815 44.9783H56.0773C55.4949 44.9785 54.9183 44.864 54.3802 44.6413C53.8422 44.4186 53.3533 44.092 52.9414 43.6803C52.5296 43.2686 52.2029 42.7798 51.98 42.2418C51.7571 41.7039 51.6424 41.1272 51.6424 40.5449V28.1896C51.6426 27.6074 51.7574 27.0309 51.9804 26.4931C52.2034 25.9553 52.5301 25.4666 52.9419 25.0551C53.3537 24.6435 53.8426 24.3171 54.3805 24.0945C54.9185 23.8719 55.495 23.7574 56.0773 23.7576H58.7843C59.3667 23.7572 59.9433 23.8716 60.4815 24.0941C61.0196 24.3166 61.5086 24.643 61.9206 25.0546C62.3325 25.4662 62.6594 25.9548 62.8825 26.4928C63.1055 27.0307 63.2204 27.6072 63.2206 28.1896V40.5449H63.2177ZM99.901 37.911V27.5443C99.9002 24.5752 98.7211 21.7278 96.6225 19.6273C94.524 17.5269 91.6776 16.3452 88.7084 16.3418H84.9117C83.4401 16.3414 81.983 16.6309 80.6233 17.1937C79.2637 17.7564 78.0282 18.5815 76.9874 19.6218C75.9466 20.662 75.1209 21.8971 74.5574 23.2564C73.994 24.6158 73.7037 26.0728 73.7034 27.5443V41.0582C73.7034 47.2452 78.7218 52.2608 84.9117 52.2608H88.707C91.6761 52.2574 94.5225 51.0757 96.6211 48.9752C98.7196 46.8748 99.8988 44.0274 99.8995 41.0582V40.5449H92.587C92.587 41.1272 92.4722 41.7039 92.2494 42.2418C92.0265 42.7798 91.6998 43.2686 91.2879 43.6803C90.8761 44.092 90.3872 44.4186 89.8492 44.6413C89.3111 44.864 88.7344 44.9785 88.1521 44.9783H85.445C84.2697 44.9776 83.1428 44.5102 82.312 43.6788C81.4812 42.8475 81.0145 41.7202 81.0145 40.5449V37.8909L99.8995 37.911H99.901ZM85.4522 23.7519H88.1593C88.7416 23.7517 89.3183 23.8662 89.8563 24.0889C90.3944 24.3116 90.8833 24.6382 91.2951 25.0499C91.7069 25.4616 92.0336 25.9504 92.2565 26.4883C92.4794 27.0263 92.5941 27.6029 92.5941 28.1853V30.706H81.0159V28.1853C81.0174 27.01 81.4856 25.8833 82.3175 25.0531C83.1494 24.2228 84.2769 23.7568 85.4522 23.7576V23.7519V23.7519Z" fill="#797979"/>
</g>
<defs>
<clipPath id="clip0_526_566">
<rect width="154.854" height="53.0519" fill="white" transform="translate(0 0.573929)"/>
</clipPath>
</defs>
</svg>
