<svg width="156" height="42" viewBox="0 0 156 42" fill="none" xmlns="http://www.w3.org/2000/svg">
<g clip-path="url(#clip0_526_569)">
<path d="M25.8878 21.0051C25.8878 22.672 25.8744 24.3369 25.8611 26.0019C25.8522 26.1938 25.8337 26.3852 25.8056 26.5753C25.6279 26.5753 25.4501 26.562 25.2723 26.562H0.907835C0.888719 26.3708 0.854312 26.1797 0.854312 25.9885C0.854312 20.0576 0.854312 14.1261 0.854312 8.19399C0.837467 6.45119 1.51199 4.77276 2.73016 3.52629C3.94832 2.27982 5.61082 1.56692 7.35354 1.54374C13.4303 1.50551 19.509 1.53227 25.5858 1.53418C25.6743 1.53935 25.7625 1.55021 25.8496 1.56668C25.8496 7.7983 25.8534 14.0312 25.8611 20.2654C25.8687 20.5119 25.8821 20.7566 25.8878 21.0051ZM13.3672 20.1602C14.5831 20.1564 15.7705 19.7918 16.7789 19.1126C17.7874 18.4334 18.5715 17.4701 19.0321 16.3449C19.4926 15.2196 19.6088 13.983 19.366 12.7916C19.1231 11.6003 18.5321 10.5078 17.6678 9.65262C16.8035 8.79745 15.7048 8.21805 14.5109 7.98782C13.3171 7.75759 12.0817 7.88689 10.9614 8.35934C9.84112 8.83179 8.88623 9.62613 8.21775 10.6417C7.54927 11.6573 7.19728 12.8485 7.20636 14.0643C7.21036 14.8692 7.37292 15.6654 7.68475 16.4074C7.99658 17.1494 8.45157 17.8227 9.02372 18.3888C9.59586 18.9549 10.2739 19.4028 11.0192 19.7067C11.7645 20.0106 12.5624 20.1648 13.3672 20.1602Z" fill="#797979"/>
<path d="M24.9769 21.0051C24.9769 20.7566 24.9578 20.51 24.9578 20.2615C24.9578 14.0273 24.9539 7.79444 24.9463 1.56282C26.0091 1.54562 27.0757 1.49974 28.1386 1.52077C29.5015 1.54753 30.8912 1.48254 32.2235 1.71192C35.1979 2.23568 37.4401 5.05521 37.442 8.06588C37.442 12.1846 37.442 16.3046 37.442 20.4259C37.442 20.5998 37.4267 20.7738 37.4153 20.9994L24.9769 21.0051Z" fill="#797979"/>
<path d="M0.907715 26.5601H25.276C25.4538 26.5601 25.6316 26.5696 25.8093 26.5735C24.5363 28.1887 23.2689 29.8078 21.9863 31.4154C19.2553 34.8409 16.5186 38.2625 13.7762 41.6803C13.6558 41.8294 13.5258 41.9709 13.3499 42.1735C12.7765 41.4567 12.203 40.7781 11.662 40.0899C8.13716 35.6858 4.61483 31.2797 1.09504 26.8717C1.02558 26.7722 0.962992 26.6681 0.907715 26.5601Z" fill="#797979"/>
<path d="M120.025 9.04272V1.5686H122.847V20.9688H120.016V19.6078C118.689 20.6955 117.257 21.3435 115.592 21.3072C112.381 21.2383 109.519 18.4857 109.229 15.2418C108.998 12.6402 109.774 10.4496 111.819 8.75981C112.789 7.95317 113.986 7.46887 115.243 7.37431C116.501 7.27975 117.757 7.57963 118.836 8.23223C119.224 8.46926 119.588 8.74643 120.025 9.04272ZM120.035 14.3319C120.029 14.066 120.009 13.8006 119.976 13.5367C119.926 13.2572 119.853 12.9823 119.758 12.7148C118.903 10.3406 116.317 9.21476 114.308 10.3407C113.771 10.6471 113.301 11.0584 112.926 11.5501C112.551 12.0419 112.279 12.604 112.126 13.203C111.973 13.8021 111.941 14.4258 112.034 15.0371C112.127 15.6485 112.342 16.2349 112.666 16.7615C114.195 19.1987 117.101 19.4549 118.945 17.3139C119.669 16.4942 120.058 15.4326 120.035 14.3396V14.3319Z" fill="#797979"/>
<path d="M53.6302 7.67396V9.01203C54.1807 8.6756 54.6777 8.3105 55.2244 8.04671C57.9006 6.76024 60.68 7.32797 62.6794 9.53771C66.0781 13.3054 64.5183 19.537 59.7892 21.0165C57.8088 21.6358 55.9661 21.2975 54.2801 20.0856C54.089 19.9441 53.8978 19.7931 53.6378 19.5981V26.8505H50.8394V7.67396H53.6302ZM61.674 14.1369C61.6441 13.7928 61.5911 13.4511 61.5153 13.1142C60.8176 10.5508 57.7897 8.65266 55.1862 10.8758C54.4219 11.5401 53.8988 12.4387 53.6986 13.4314C53.4984 14.4241 53.6323 15.4552 54.0794 16.3638C54.7542 17.677 55.7769 18.6175 57.329 18.7513C59.6573 18.952 61.7007 16.8513 61.674 14.1369Z" fill="#797979"/>
<path d="M88.4107 13.2365L93.9714 21.0126C92.8971 21.0126 91.9451 21.0241 90.9951 20.9974C90.8651 20.9974 90.716 20.8062 90.6128 20.6743C89.3817 18.9781 88.1545 17.2794 86.9312 15.5781C86.8184 15.4233 86.6999 15.2704 86.5488 15.0811C85.8951 15.7827 85.2547 16.4441 84.6488 17.1341C84.5328 17.3024 84.4739 17.5034 84.4806 17.7076C84.4653 18.7895 84.4806 19.8696 84.4806 20.9802H81.7241V1.56274H84.4787V13.2594C85.2681 12.5464 86.1608 11.7933 86.9904 10.9771C87.9997 9.97733 88.9536 8.92216 89.9399 7.89949C90.0364 7.77896 90.1714 7.69527 90.3222 7.66246C91.364 7.64143 92.4058 7.65099 93.5718 7.65099L88.4107 13.2365Z" fill="#797979"/>
<path d="M77.8703 20.9879H75.1043V19.7339C74.81 19.9461 74.6093 20.1047 74.3952 20.2462C72.6748 21.3931 70.855 21.655 68.9262 20.8942C67.3072 20.2557 66.3036 18.8221 66.3266 17.2795C66.3514 15.5591 67.3473 14.0929 69.0677 13.5482C70.2433 13.1773 71.4896 13.0263 72.6996 12.7835C73.4795 12.6325 74.2652 12.5102 75.0374 12.3764C75.1139 11.0383 73.9727 9.94107 72.4932 9.90284C71.0137 9.86461 69.7597 10.4209 68.8613 11.6672L67.0797 9.78624C68.0742 8.5564 69.4844 7.733 71.0442 7.47137C73.0896 7.13493 74.9744 7.45607 76.5151 8.98148C76.9437 9.38478 77.2863 9.87054 77.5225 10.4096C77.7587 10.9486 77.8835 11.5298 77.8895 12.1183C77.9181 14.9971 77.899 17.874 77.8895 20.7527C77.8889 20.8315 77.8825 20.9101 77.8703 20.9879ZM75.0355 14.6339C73.5063 14.8977 71.958 15.1156 70.4478 15.4425C70.0678 15.5226 69.7278 15.7331 69.4866 16.0375C69.2454 16.3419 69.1182 16.7211 69.127 17.1093C69.1384 17.765 69.689 18.4283 70.4918 18.6386C73.0093 19.2732 75.3318 17.765 75.0355 14.6339Z" fill="#797979"/>
<path d="M103.527 12.3764C103.527 11.0096 102.453 9.98314 101.006 9.90859C99.5587 9.83404 98.4195 10.375 97.3739 11.629L95.5388 9.80728C96.4984 8.61544 97.8497 7.80264 99.3523 7.51343C101.514 7.11009 103.497 7.43505 105.087 9.09618C105.891 9.89703 106.346 10.9834 106.352 12.1183C106.368 14.9971 106.352 17.8759 106.352 20.7547C106.348 20.8316 106.339 20.9081 106.326 20.984H103.579V19.6727C102.432 20.6992 101.164 21.2478 99.7155 21.3033C98.7334 21.373 97.7527 21.1494 96.8979 20.661C95.4604 19.7989 94.604 18.5946 94.8258 16.8379C95.0322 15.173 95.9842 14.0222 97.5478 13.5501C98.9318 13.1295 100.39 12.9537 101.818 12.6765C102.39 12.5695 102.963 12.4834 103.527 12.3764ZM103.527 14.6549C103.158 14.7104 102.826 14.7563 102.495 14.8098C101.392 14.9875 100.289 15.15 99.1917 15.3488C98.2493 15.519 97.63 16.1937 97.6032 17.0195C97.5784 17.7841 98.1538 18.4264 99.0675 18.6634C101.658 19.3363 103.841 17.3999 103.519 14.6549H103.527Z" fill="#797979"/>
<path d="M141.775 14.3549C141.783 12.5059 142.52 10.7346 143.826 9.42546C145.132 8.11635 146.901 7.37508 148.75 7.36251C152.554 7.36251 155.712 10.5452 155.708 14.374C155.708 18.1474 152.508 21.3263 148.727 21.3167C146.889 21.2944 145.132 20.5534 143.833 19.2524C142.533 17.9513 141.795 16.1935 141.775 14.3549ZM152.89 14.3549C152.89 11.9655 151.109 9.98323 148.899 9.91442C146.305 9.83413 144.208 12.2771 144.594 14.9284C144.898 17.0196 146.479 18.631 148.356 18.7648C150.864 18.9388 152.892 16.9737 152.89 14.3473V14.3549Z" fill="#797979"/>
<path d="M125.857 14.3587C125.863 12.5099 126.598 10.7379 127.903 9.42785C129.207 8.11781 130.976 7.3756 132.825 7.36251C136.595 7.36251 139.773 10.528 139.806 14.3167C139.838 18.1054 136.602 21.3167 132.812 21.3167C130.973 21.2973 129.214 20.5579 127.914 19.2571C126.614 17.9563 125.876 16.1978 125.857 14.3587ZM136.973 14.3702C136.973 11.9808 135.193 9.97367 133.001 9.90677C132.017 9.8902 131.058 10.2136 130.285 10.8224C129.512 11.4312 128.973 12.288 128.759 13.2481C128.285 15.4541 129.315 17.6141 131.231 18.438C133.98 19.6269 136.967 17.5071 136.973 14.3702Z" fill="#797979"/>
<path d="M13.3384 15.5744C13.0304 15.5725 12.7299 15.4793 12.475 15.3065C12.22 15.1337 12.0221 14.8891 11.9062 14.6037C11.7904 14.3183 11.7619 14.005 11.8242 13.7034C11.8866 13.4018 12.0371 13.1255 12.2566 12.9095C12.4761 12.6934 12.7548 12.5474 13.0573 12.4899C13.3599 12.4323 13.6727 12.4659 13.9562 12.5863C14.2397 12.7067 14.4811 12.9085 14.6498 13.1662C14.8185 13.4238 14.9069 13.7258 14.9039 14.0337C14.9055 14.2386 14.8659 14.4417 14.7875 14.631C14.7091 14.8203 14.5934 14.9919 14.4474 15.1356C14.3013 15.2793 14.1279 15.3922 13.9374 15.4676C13.7469 15.543 13.5432 15.5793 13.3384 15.5744Z" fill="#797979"/>
</g>
<defs>
<clipPath id="clip0_526_569">
<rect width="154.854" height="40.9908" fill="white" transform="translate(0.854004 0.604454)"/>
</clipPath>
</defs>
</svg>
