<svg width="85" height="85" viewBox="0 0 85 85" fill="none" xmlns="http://www.w3.org/2000/svg">
<g clip-path="url(#clip0_526_589)">
<path d="M31.0181 43.9037H39.564V39.6751H31.0181V34.5593H41.013V30.2716H25.9023V53.9873H41.013V49.7291H31.0181V43.9037Z" fill="#797979"/>
<path d="M5.82374 30.2715H0.708008V53.9873H5.82374V43.9924H14.3992V53.9873H19.5445V30.2715H14.3992V39.5272H5.82374V30.2715Z" fill="#797979"/>
<path d="M59.7901 44.4064C62.5402 43.194 63.9596 40.8579 63.9596 37.6051C63.9596 32.7555 60.9138 30.2716 54.8518 30.2716H46.3354V53.9873H51.4512V45.3231H54.6744L54.704 45.4118L59.2578 53.9873H64.9946L59.5831 44.4655L59.7901 44.4064ZM54.4378 41.331H51.4808V34.2932H54.4378C57.5723 34.2932 58.9621 35.3282 58.9621 37.6051C58.9621 40.0299 57.3949 41.331 54.4378 41.331Z" fill="#797979"/>
<path d="M74.5459 43.9037H83.0918V39.6751H74.5459V34.5593H84.5408V30.2716H69.4302V53.9873H84.5408V49.7291H74.5459V43.9037Z" fill="#797979"/>
<path d="M9.31308 0.198151H0.708008V23.9139H5.82374V15.7523H9.31308C13.7783 15.7523 18.5391 13.6528 18.5391 7.76825C18.5687 1.49926 13.5417 0.198151 9.31308 0.198151ZM8.98781 11.7603H5.82374V4.1902H8.98781C12.0927 4.1902 13.5417 5.31388 13.5417 7.76825C13.5417 10.4296 12.004 11.7603 8.98781 11.7603Z" fill="#797979"/>
<path d="M33.8861 23.9139H39.2976L31.8753 0.198151H25.5768L18.1841 23.9139H23.3885L24.8671 18.2067H32.4372L33.8861 23.9139ZM25.8725 14.2442L26.523 11.849C27.0849 9.80863 27.6171 7.50212 28.1198 5.28431L28.4155 4.01277H28.8L28.8295 4.13105C29.007 4.87032 29.1844 5.60959 29.3914 6.37843C29.8349 8.24138 30.3081 10.1635 30.7812 11.849L31.3726 14.2442H25.8725Z" fill="#797979"/>
<path d="M78.9521 23.9139H84.5409L76.0246 9.60163L83.1511 0.198151H77.5622L70.4357 10.0156H70.0513V0.198151H64.9355V23.9139H70.0513V17.5562L73.0379 13.6528L78.9521 23.9139Z" fill="#797979"/>
<path d="M55.5023 23.9139H61.239L55.8275 14.3921L55.9754 14.3329C58.7255 13.1206 60.1449 10.7845 60.1449 7.56126C60.1744 2.65252 57.0991 0.198151 51.0667 0.198151H42.5503V23.9139H47.666V15.2496H50.8892L55.5023 23.9139ZM47.666 11.228V4.1902H50.6231C53.7576 4.1902 55.1474 5.22517 55.1474 7.50212C55.1474 9.92691 53.5802 11.228 50.6231 11.228H47.666Z" fill="#797979"/>
<path d="M84.541 60.3745H0.708008V84.0311H84.541V60.3745Z" fill="#797979"/>
</g>
<defs>
<clipPath id="clip0_526_589">
<rect width="83.8034" height="83.8034" fill="white" transform="translate(0.708008 0.198151)"/>
</clipPath>
</defs>
</svg>
