<svg width="156" height="64" viewBox="0 0 156 64" fill="none" xmlns="http://www.w3.org/2000/svg">
<g clip-path="url(#clip0_526_601)">
<path d="M152.967 6.00392C152.499 6.0089 152.043 6.15229 151.657 6.416C151.27 6.67972 150.97 7.05196 150.795 7.48581C150.62 7.91965 150.577 8.39568 150.672 8.85388C150.767 9.31209 150.995 9.73196 151.328 10.0606C151.661 10.3892 152.084 10.6118 152.544 10.7004C153.003 10.789 153.478 10.7396 153.91 10.5584C154.341 10.3772 154.709 10.0724 154.968 9.68231C155.226 9.29223 155.363 8.83437 155.362 8.36646C155.361 8.05373 155.298 7.74428 155.177 7.45595C155.056 7.16762 154.879 6.90611 154.657 6.68649C154.434 6.46687 154.17 6.29349 153.88 6.17634C153.59 6.05919 153.28 6.00059 152.967 6.00392ZM152.967 10.3616C152.572 10.3717 152.183 10.2638 151.85 10.0519C151.517 9.83993 151.254 9.53349 151.096 9.17165C150.937 8.80982 150.89 8.40899 150.96 8.0203C151.031 7.63161 151.215 7.27269 151.491 6.98933C151.766 6.70596 152.119 6.51099 152.506 6.4293C152.892 6.3476 153.294 6.38288 153.66 6.53064C154.027 6.6784 154.341 6.93194 154.562 7.25891C154.784 7.58588 154.903 7.97146 154.905 8.36646C154.914 8.62622 154.871 8.88527 154.778 9.12794C154.685 9.37061 154.544 9.59187 154.362 9.77836C154.181 9.96484 153.964 10.1127 153.725 10.2129C153.485 10.3132 153.227 10.3638 152.967 10.3616Z" fill="#797979"/>
<path d="M154.062 7.78663C154.062 7.25002 153.741 7.00872 153.09 7.00872H152.042V9.7422H152.463V8.55373H152.935L153.655 9.7422H154.112L153.334 8.53933C153.432 8.54041 153.53 8.52148 153.62 8.48371C153.71 8.44594 153.792 8.39011 153.86 8.31966C153.928 8.2492 153.981 8.16558 154.016 8.07393C154.051 7.98228 154.066 7.88452 154.062 7.78663ZM152.463 8.208V7.35085H153.032C153.511 7.35085 153.641 7.49851 153.641 7.76142C153.641 8.02432 153.471 8.208 152.963 8.208H152.463Z" fill="#797979"/>
<path d="M41.4997 48.173L41.0531 48.3603C41.0099 48.3603 40.9415 48.3351 40.855 48.227C40.7686 48.119 40.6569 47.9821 40.5273 47.8165C40.3769 47.5042 40.3339 47.1509 40.4049 46.8117C40.472 46.2521 40.6263 45.7065 40.8622 45.1946C41.1011 44.6418 41.4071 44.1205 41.7734 43.6424C42.1335 43.1886 42.1335 42.7925 41.7734 42.454C41.4132 42.1154 41.1143 42.065 40.873 42.2991C40.8478 42.3207 40.8262 42.3495 40.801 42.3711C40.34 42.2487 40.0807 42.472 39.9907 43.0302C39.9655 43.2102 39.9331 43.3903 39.8934 43.574C39.7026 43.8477 39.5045 44.1358 39.2812 44.4491C38.9607 44.9101 38.6293 45.3747 38.2944 45.8501C37.902 46.3933 37.475 46.9106 37.0159 47.3987C36.4762 47.9755 35.8909 48.5079 35.2656 48.9905C34.674 49.4551 34.0572 49.8867 33.4181 50.2834C32.8398 50.6279 32.2001 50.8566 31.5345 50.9569C30.8947 51.0686 30.2404 51.0686 29.6006 50.9569C28.8696 50.8154 28.1585 50.5856 27.4829 50.2726C26.7064 49.9289 25.9698 49.5014 25.2861 48.9977C24.5946 48.4911 23.9067 47.9713 23.2224 47.4383L23.0424 47.3015C23.3125 46.6748 23.5826 46.0446 23.8419 45.4251L26.2657 39.6917C27.1972 39.2595 28.1576 38.7925 29.1468 38.2907C30.5658 37.5704 32.1384 36.7433 33.8647 35.8093C35.5909 34.8753 37.4169 33.8429 39.3424 32.7121C41.2632 31.5884 43.1119 30.472 44.8886 29.3628C46.6653 28.2535 48.3244 27.2055 49.8658 26.2187C51.3976 25.2247 52.7481 24.304 53.9174 23.4564C55.0915 22.6101 56.1539 21.7818 57.1155 20.9714C58.077 20.1611 58.9522 19.376 59.7517 18.6161C60.4506 17.9694 61.0839 17.2552 61.6425 16.4841C62.0713 15.896 62.4032 15.2431 62.6256 14.5501C62.8183 13.9538 62.8082 13.3105 62.5968 12.7206C62.3134 12.053 61.8032 11.5071 61.1563 11.1792C60.2835 10.69 59.3392 10.3412 58.3579 10.1456C57.2367 9.90546 55.9258 9.68338 54.4252 9.4793C52.8726 9.27843 51.3089 9.17618 49.7433 9.17318C48.0581 9.17242 46.3744 9.27345 44.7013 9.4757C42.9237 9.68826 41.1606 10.0082 39.4217 10.4337C37.6546 10.8658 35.9247 11.3724 34.232 11.9535C32.5393 12.5345 30.8731 13.1708 29.2332 13.8622C27.6054 14.5633 25.9847 15.322 24.3713 16.1383C22.7579 16.9547 21.172 17.8322 19.6138 18.771C18.046 19.7049 16.5418 20.6653 15.1012 21.6521C13.6607 22.6389 12.3089 23.6197 11.046 24.5945C9.78553 25.5741 8.66309 26.502 7.6787 27.3784C6.69431 28.2547 5.82637 29.0735 5.07487 29.8346C4.32337 30.5981 3.69673 31.2895 3.19493 31.909C2.70361 32.514 2.25934 33.1557 1.866 33.8285C1.52392 34.3998 1.23807 35.0028 1.01246 35.6292C0.82519 36.1803 0.68473 36.634 0.591093 36.9942C0.499584 37.2504 0.499584 37.5303 0.591093 37.7865C1.03407 38.5896 1.42662 38.5716 1.76156 37.7361C1.76156 37.5596 1.76156 37.3399 1.76156 37.0806C1.77576 36.6944 1.81425 36.3095 1.8768 35.9282C1.97923 35.3392 2.16857 34.7688 2.43863 34.2355C2.75524 33.5873 3.13524 32.9721 3.57308 32.3988C4.03166 31.7937 4.62109 31.0975 5.34137 30.3099C6.06166 29.5224 6.90199 28.6821 7.86237 27.7889C8.82275 26.8958 9.92719 25.9534 11.1757 24.9618C12.4242 23.9702 13.7627 22.9798 15.1913 21.9907C16.6318 21.0015 18.1264 20.0411 19.675 19.1095C21.2237 18.1779 22.8047 17.3076 24.4181 16.4985C26.022 15.6894 27.6342 14.9355 29.2548 14.2368C30.8755 13.5381 32.5273 12.9019 34.2104 12.328C35.8911 11.7518 37.6077 11.2488 39.3604 10.819C41.0795 10.3939 42.8236 10.0775 44.5825 9.87185C46.2376 9.67384 47.9036 9.58122 49.5705 9.59454C51.1138 9.60874 52.6547 9.72061 54.1839 9.92948C55.464 10.0911 56.7329 10.3317 57.9834 10.6498C58.8536 10.8532 59.6813 11.208 60.4288 11.6978C61.005 12.1119 61.3039 12.5045 61.3219 12.8754C61.3308 13.3342 61.2849 13.7925 61.1851 14.2404C61.0491 14.8484 60.8116 15.4291 60.4828 15.9583C60.019 16.7041 59.486 17.4047 58.891 18.0507C58.1287 18.902 57.317 19.7078 56.46 20.4636C55.5404 21.28 54.5116 22.1203 53.3736 22.9846C52.2355 23.849 50.915 24.7878 49.412 25.801C47.921 26.819 46.2992 27.8886 44.5465 29.0098C42.7938 30.1311 40.9595 31.2559 39.0435 32.3844C37.1227 33.5152 35.298 34.5428 33.5693 35.4672C31.8407 36.3915 30.2548 37.1959 28.8119 37.8801C28.0604 38.2403 27.3257 38.5824 26.6078 38.9065C27.4289 36.9858 28.2344 35.1082 29.0243 33.2739C29.8935 31.2715 30.8106 29.2427 31.7758 27.1875C32.741 25.1323 33.5813 23.418 34.2968 22.0447C35.0171 20.6713 35.6366 19.5693 36.1552 18.7386C36.6738 17.9078 37.0495 17.316 37.2824 16.9631C37.4749 16.7132 37.5912 16.4131 37.6173 16.0987C37.274 15.0903 36.6438 14.8934 35.7266 15.5081C35.5716 15.7639 35.4609 16.0439 35.3989 16.3364C35.3088 16.6966 35.1252 17.3376 34.8406 18.256C34.4558 19.4455 34.0086 20.614 33.5009 21.7566C32.8935 23.1731 32.1384 24.921 31.2356 27.0002C30.3329 29.0795 29.4445 31.1203 28.5706 33.1227C27.7134 35.0866 26.8467 37.1106 25.9703 39.1947L24.699 39.7529C23.3929 40.3147 22.1924 40.8033 21.0976 41.2187L17.8563 42.4467C17.136 42.7132 16.5094 42.9401 15.9368 43.1274C15.668 43.0413 15.3871 42.9987 15.1048 43.0014L14.3846 43.0518C14.1136 43.0787 13.8493 43.1517 13.603 43.2679C13.3693 43.3659 13.1691 43.5299 13.0268 43.7397C12.9914 43.8029 12.9693 43.8728 12.962 43.9449C12.9216 43.9606 12.8849 43.9844 12.8541 44.0148C12.8233 44.0452 12.799 44.0816 12.7828 44.1218C12.7666 44.162 12.7588 44.205 12.7599 44.2483C12.761 44.2916 12.7709 44.3342 12.7891 44.3735C12.89 44.658 13.0196 44.7913 13.1781 44.7769C13.3437 44.9785 13.5922 45.0074 13.9344 44.8561C14.1901 44.7373 14.507 44.6004 14.8635 44.4491L15.1913 44.4815C15.6421 44.5385 16.0877 44.6312 16.5238 44.7589C17.1431 44.9317 17.7457 45.1595 18.3245 45.4395C19.0177 45.7766 19.691 46.1529 20.3413 46.5668C20.9932 46.9773 21.627 47.4203 22.2393 47.8885C21.8071 48.8849 21.3665 49.8957 20.9175 50.9209C20.0676 52.8561 19.3041 54.5823 18.627 56.0997C17.95 57.6171 17.3857 58.9257 16.9344 60.0253C16.4878 61.1225 16.1372 62.0253 15.8827 62.7336C15.9296 63.9653 16.2717 64.0409 16.9092 62.9497C17.0924 62.0243 17.3415 61.1132 17.6546 60.2234C18.0244 59.1141 18.5286 57.7936 19.1672 56.2618C19.8059 54.73 20.555 53.0073 21.4145 51.0938C21.8431 50.125 22.2645 49.167 22.6714 48.2126C23.2765 48.6784 23.9007 49.1454 24.5442 49.6136C25.2677 50.138 26.0438 50.5858 26.8599 50.9497C27.5936 51.2844 28.3552 51.5543 29.136 51.7564C29.8569 51.9335 30.6077 51.9519 31.3365 51.8104C32.0892 51.6797 32.811 51.4098 33.4649 51.0145C34.1561 50.5937 34.8157 50.1231 35.4385 49.6064C36.078 49.0841 36.6865 48.5249 37.2608 47.9317C37.8082 47.3555 38.2692 46.8513 38.6401 46.3795C38.867 46.0986 39.0831 45.8177 39.2956 45.5404C39.1875 45.9086 39.0997 46.2825 39.0327 46.6604C38.9347 47.145 38.8924 47.6392 38.9067 48.1334C38.9256 48.5088 39.0688 48.8673 39.3136 49.1526C39.4417 49.3003 39.5991 49.4198 39.7758 49.5035C39.9524 49.5872 40.1446 49.6332 40.34 49.6388C40.7428 49.6784 41.1483 49.5995 41.5069 49.4119C42.4072 48.5079 42.4108 48.0974 41.4997 48.173ZM22.6246 46.9953C22.1348 46.6352 21.6378 46.2571 21.1372 45.9149C20.4935 45.4567 19.8263 45.0324 19.1384 44.6436C18.5094 44.2931 17.926 43.9906 17.3881 43.7361L17.028 43.574L18.3101 43.0806C19.3881 42.6748 20.459 42.2475 21.5226 41.7985C22.5862 41.3495 23.7687 40.8345 25.07 40.2535L25.6138 40.0086C24.8215 41.8849 24.0688 43.6532 23.3557 45.2955C23.1252 45.8465 22.8767 46.4191 22.6246 46.9953Z" fill="#797979"/>
<path d="M43.6534 38.9029C43.4121 38.4852 43.2212 38.5752 43.0844 39.1766C43.0409 39.2562 43.0181 39.3453 43.0181 39.4359C43.0181 39.5266 43.0409 39.6157 43.0844 39.6953C43.5706 40.2715 43.8479 40.1418 43.9091 39.3027C43.9002 39.2208 43.8726 39.1421 43.8282 39.0728C43.7838 39.0034 43.724 38.9453 43.6534 38.9029Z" fill="#797979"/>
<path d="M55.311 46.4587C55.0006 46.5626 54.6711 46.597 54.3459 46.5596C54.2126 46.5092 54.1262 46.2462 54.0902 45.7781C54.0526 45.2434 54.0707 44.7063 54.1442 44.1754C54.303 43.2892 54.559 42.4233 54.9077 41.5932C55.3303 40.4816 55.8861 39.2283 56.5751 37.8333C57.119 36.7529 57.7312 35.5716 58.3975 34.3543L58.61 33.9942C59.2438 32.9114 59.9005 31.8009 60.5799 30.6629C61.0193 29.9258 61.4431 29.2259 61.8512 28.5633C62.4311 27.6845 62.9965 26.8814 63.5367 26.1611C64.0721 25.4137 64.6749 24.7169 65.3374 24.0795C65.8596 23.6077 65.9605 23.1935 65.6327 22.8442C65.4094 22.5993 65.2078 22.5381 65.0313 22.6533C64.957 22.6143 64.8785 22.5841 64.7972 22.5633C64.311 22.4264 63.9581 22.6713 63.7168 23.2836C63.3881 24.1135 62.993 24.9156 62.5355 25.6821C61.9737 26.6545 61.3374 27.7349 60.6268 28.9234C59.9161 30.1119 59.1406 31.5068 58.3002 33.1082C57.4791 34.7361 56.7084 36.2439 55.9881 37.6316L55.718 38.1647C55.4083 38.6725 55.0878 39.1875 54.76 39.7025C54.6601 39.4699 54.4997 39.2685 54.2954 39.119C53.9582 38.87 53.5574 38.7214 53.1394 38.6905C52.6263 38.6575 52.1118 38.7286 51.6268 38.8993C51.0099 39.1073 50.42 39.3877 49.8693 39.7349C49.2009 40.1576 48.5802 40.6515 48.0182 41.2078C47.3926 41.8126 46.8236 42.4732 46.3183 43.1814C45.828 43.8598 45.4036 44.5834 45.0506 45.3423C44.7612 45.955 44.5075 46.5839 44.2907 47.2258C44.136 47.6697 44.0427 48.1325 44.0134 48.6016C44.0035 48.7901 44.0381 48.9783 44.1144 49.151C44.1907 49.3237 44.3066 49.476 44.4528 49.5956C44.7353 49.8539 45.1073 49.9921 45.49 49.9809C45.8968 49.9674 46.3005 49.9057 46.6928 49.7973C47.1425 49.6685 47.5717 49.4769 47.9677 49.2282C48.4455 48.9267 48.8815 48.5634 49.2642 48.1478C49.7928 47.5764 50.2882 46.9751 50.748 46.3471C51.3123 45.5956 51.9329 44.712 52.61 43.6964C52.9521 43.1886 53.2942 42.6664 53.6436 42.1334C53.6558 42.2547 53.6762 42.375 53.7048 42.4936C53.4491 43.0878 53.2402 43.574 53.0746 43.981C52.8268 44.5687 52.7041 45.2016 52.7144 45.8393C52.708 46.1233 52.7677 46.405 52.889 46.6619C53.0103 46.9188 53.1897 47.1439 53.4131 47.3195C53.6463 47.5033 53.9256 47.6193 54.2203 47.6549C54.5151 47.6904 54.8139 47.6442 55.0842 47.5211C56.215 46.8009 56.2978 46.4479 55.311 46.4587ZM53.8489 40.9161C53.8129 41.0278 53.784 41.1286 53.7588 41.2223C53.2762 41.9425 52.7936 42.6628 52.3183 43.3291C51.6268 44.3039 50.9881 45.1322 50.4023 45.8141C49.9494 46.3619 49.4685 46.886 48.9617 47.3843C48.6404 47.7026 48.2769 47.9753 47.8813 48.1946C47.5875 48.3578 47.2723 48.479 46.9449 48.5548C46.7025 48.6081 46.4525 48.6178 46.2066 48.5836C45.9978 48.5512 45.8861 48.5548 45.8681 48.5836C45.8501 48.6124 45.8069 48.5548 45.7277 48.3747C45.6387 48.0648 45.6142 47.74 45.6556 47.4203C45.7238 46.8224 45.8892 46.2397 46.1454 45.6952C46.4571 44.9814 46.8421 44.3019 47.2943 43.6676C47.7664 42.9984 48.3233 42.3931 48.9509 41.8669C49.505 41.3906 50.1087 40.9753 50.7516 40.628C51.2506 40.3537 51.7946 40.1708 52.3579 40.0878C52.7253 40.0223 53.1004 40.0126 53.4707 40.059C53.6368 40.076 53.795 40.1383 53.9281 40.2391C54.0001 40.3147 54.0325 40.3723 54.0253 40.4191C54.0181 40.466 53.9425 40.6352 53.8489 40.9161Z" fill="#797979"/>
<path d="M84.0251 17.7302C83.42 17.6437 82.8546 17.945 82.3288 18.6341C81.803 19.3232 81.186 20.1203 80.4777 21.0255C79.704 22.0318 78.992 23.0842 78.3456 24.1767C77.6253 25.3772 76.9639 26.5909 76.3613 27.8177C75.7586 29.0446 75.1776 30.3159 74.6182 31.6317C74.0635 32.9426 73.581 34.1527 73.1776 35.2331C72.9435 35.8417 72.7238 36.4324 72.5113 37.0158C72.1332 37.5164 71.7658 37.9954 71.4309 38.4564C70.8283 39.2319 70.2664 39.9341 69.7454 40.5632C69.2244 41.1922 68.6974 41.7757 68.1644 42.3135C67.653 42.8681 67.2064 43.3111 66.8319 43.6496C66.4893 43.9613 66.1285 44.2523 65.7514 44.5212C65.4587 44.7361 65.1375 44.9094 64.7971 45.0362C64.5018 45.137 64.3505 45.2234 64.3361 45.2955C64.3217 45.3675 64.2929 45.209 64.2389 44.8273C64.1946 44.2915 64.2334 43.7521 64.3541 43.2282C64.5365 42.3657 64.7981 41.5218 65.1356 40.7073C65.5318 39.7061 66.0024 38.64 66.5474 37.5092C67.0924 36.3783 67.6818 35.2247 68.3157 34.0482C68.9471 32.8717 69.5354 31.7913 70.0804 30.8069C70.6254 29.8225 71.2436 28.8202 71.9351 27.7997C72.5041 26.9477 73.1197 26.1278 73.779 25.3436C74.3192 24.7169 74.5425 24.1755 74.4489 23.7193C74.3949 23.4312 74.2904 23.3376 74.1392 23.4312C74.0153 23.3898 73.8813 23.3898 73.7574 23.4312C73.246 23.5609 72.8151 23.987 72.4645 24.7097C72.1044 25.43 71.6434 26.3232 71.0455 27.3892C70.4477 28.4552 69.8643 29.4816 69.2989 30.472C68.7334 31.4624 68.15 32.5572 67.5522 33.7493C67.0948 34.6569 66.6554 35.55 66.2196 36.418C65.9531 36.8537 65.683 37.2895 65.4129 37.7253C65.3558 37.5362 65.2504 37.3653 65.107 37.2295C64.9636 37.0937 64.7873 36.9977 64.5954 36.951C64.1057 36.8352 63.5903 36.9112 63.1548 37.1635C62.4545 37.5606 61.8312 38.0803 61.3145 38.6977C60.5895 39.5071 59.916 40.3611 59.2977 41.2547C58.635 42.203 58.0744 43.0878 57.6158 43.9089C57.2379 44.5578 56.915 45.2372 56.6507 45.9401C56.4706 46.4695 56.5282 46.8657 56.8235 47.125C56.9654 47.253 57.1341 47.3476 57.3174 47.4018C57.5006 47.4561 57.6937 47.4685 57.8823 47.4383C58.3696 47.347 58.8234 47.1269 59.1969 46.8009C59.665 46.43 60.1055 46.0255 60.515 45.5908C61.0081 45.054 61.4664 44.4862 61.8871 43.8909C62.3913 43.1922 62.9027 42.4503 63.4249 41.6796L63.5618 41.4744C63.6398 41.4493 63.7157 41.418 63.7887 41.3807C63.8541 41.3124 63.9252 41.2498 64.0012 41.1934C63.713 41.8849 63.479 42.4936 63.2809 43.0194C63.0552 43.6314 62.9052 44.2688 62.8343 44.9173C62.7971 45.1585 62.8307 45.4054 62.9311 45.6278C63.0315 45.8503 63.1943 46.0389 63.3997 46.1706C63.5879 46.3063 63.8111 46.3853 64.0428 46.398C64.2745 46.4108 64.505 46.3569 64.707 46.2426C65.1446 46.0146 65.5626 45.7508 65.9567 45.4539C66.3716 45.1396 66.7651 44.7979 67.1344 44.4311C67.6102 43.9529 68.061 43.4505 68.4849 42.9257L70.0191 41.0386C70.5449 40.3927 71.1032 39.6724 71.6938 38.8777L71.9675 38.5176C71.647 39.454 71.3589 40.3183 71.1068 41.125C70.8547 41.9317 70.6062 42.7457 70.4117 43.4479C70.2357 44.0184 70.1459 44.612 70.1452 45.209C70.1408 45.4198 70.2047 45.6263 70.3274 45.7976C70.4501 45.969 70.625 46.0961 70.8259 46.1598C71.0571 46.2407 71.3046 46.264 71.5468 46.2276C71.7891 46.1912 72.0188 46.0962 72.216 45.9509C72.7015 45.6451 73.166 45.307 73.6062 44.9389C74.0455 44.5692 74.4825 44.1934 74.9171 43.8117C75.3517 43.4299 75.7406 43.0698 76.0839 42.7313C76.1253 42.9762 76.2174 43.2098 76.3545 43.417C76.4916 43.6241 76.6706 43.8003 76.8799 43.9341C77.4489 44.2943 78.2916 44.3879 79.4009 44.179C80.6604 43.9249 81.8902 43.5411 83.0707 43.0338C84.6481 42.2126 84.6625 42.0326 83.1139 42.4936C82.0223 42.9449 80.8689 43.229 79.6926 43.3363C79.0377 43.4131 78.375 43.3925 77.7262 43.2751C77.3985 43.1706 77.2328 42.7997 77.2364 42.1622C77.2386 41.8997 77.2567 41.6375 77.2904 41.3771L77.4057 41.2367C77.8594 40.6724 78.3036 40.1226 78.7382 39.5872C79.1776 39.0506 79.6025 38.4816 80.0167 37.8729C80.4309 37.2643 80.7622 36.7349 81.0143 36.2775C81.2584 35.8447 81.4586 35.3887 81.6121 34.9162C81.7598 34.466 81.5761 34.0878 81.0575 33.7817C80.5389 33.4756 80.1103 33.5296 79.7646 33.9402C79.4189 34.3507 79.0443 34.8153 78.6121 35.3447C78.122 35.9974 77.72 36.7118 77.4165 37.4696C77.0419 38.3555 76.719 39.1694 76.4477 39.9113C76.235 40.4909 76.1017 41.0967 76.0515 41.712L75.8174 41.9569C75.4573 42.3267 75.0635 42.6976 74.6362 43.0698C74.2076 43.4299 73.7862 43.7901 73.3685 44.107C73.0208 44.3907 72.6338 44.6224 72.2196 44.7949C71.8595 44.9281 71.7082 45.0182 71.7298 45.0614C71.7514 45.1046 71.701 45.0614 71.5714 44.8741C71.4417 44.6868 71.4453 44.2907 71.5714 43.6244C71.6974 42.9581 71.8667 42.2054 72.0864 41.3591C72.3061 40.5128 72.5762 39.5872 72.8931 38.5896C73.138 37.8081 73.4045 36.9942 73.6854 36.1515C74.3361 35.2463 75.096 34.1659 75.9651 32.9102C76.8775 31.592 77.8066 30.2475 78.7526 28.8766C79.6986 27.5056 80.5533 26.2223 81.3168 25.0266C82.0659 23.8262 82.6794 22.8322 83.1571 22.0447C83.6349 21.2572 84.0095 20.5885 84.2808 20.0387C84.5246 19.568 84.6993 19.0646 84.7994 18.5441C84.8966 18.0867 84.6337 17.8238 84.0251 17.7302ZM63.9111 39.5764C63.7356 39.7224 63.5932 39.9041 63.4934 40.1094C63.4161 40.2915 63.3271 40.4683 63.2269 40.6388C63.1557 40.835 63.1204 41.0424 63.1224 41.2511L63.1008 41.2799C62.5798 42.0362 62.0576 42.7313 61.5342 43.3651C61.012 44.0026 60.5618 44.5104 60.1909 44.8885C59.8609 45.2353 59.4824 45.5325 59.0672 45.7709C58.8515 45.9206 58.6057 46.0214 58.3469 46.0662C58.2987 46.0579 58.2491 46.0645 58.2047 46.0851C58.1604 46.1057 58.1233 46.1393 58.0984 46.1814C58.0408 46.2678 57.9976 46.1814 57.9724 45.8897C57.9472 45.598 58.1272 45.0578 58.5198 44.2511C58.9717 43.348 59.5057 42.4884 60.1152 41.6832C60.7281 40.8378 61.4553 40.0815 62.2761 39.4359C63.0468 38.8381 63.6314 38.5008 64.03 38.424C64.2532 38.3722 64.4793 38.3337 64.707 38.3087H64.7467C64.7108 38.3722 64.683 38.44 64.6638 38.5104C64.5989 38.6878 64.5156 38.858 64.4153 39.0182C64.2733 39.2262 64.1037 39.414 63.9111 39.5764ZM78.5293 37.8801C78.885 37.209 79.3309 36.5898 79.8546 36.0398C80.1392 35.7526 80.4516 35.4944 80.7874 35.2691C80.719 35.4456 80.6397 35.6292 80.5461 35.8453C80.2977 36.3816 79.9986 36.8929 79.653 37.3723C79.2544 37.9486 78.8426 38.5008 78.4177 39.029C78.1512 39.3567 77.8738 39.6844 77.5929 40.0122C77.8251 39.269 78.1392 38.5539 78.5293 37.8801ZM83.8342 19.7181C83.5433 20.4142 83.2163 21.0946 82.8546 21.7566C82.4225 22.5705 81.8354 23.5753 81.0971 24.7818C80.3588 25.9882 79.5197 27.2703 78.5761 28.6353C77.6326 30.0002 76.6926 31.3291 75.7562 32.5968C75.18 33.3891 74.6542 34.113 74.1716 34.7577C74.4993 33.8465 74.8919 32.8778 75.3276 31.8369C75.8847 30.5356 76.4633 29.2751 77.0635 28.0554C77.6661 26.8284 78.3383 25.6368 79.0767 24.4864C79.7455 23.4287 80.497 22.4256 81.324 21.4865C81.9624 20.7494 82.688 20.0927 83.4849 19.5309C83.7226 19.3724 83.9134 19.2319 84.0575 19.1131C83.9999 19.2932 83.9242 19.4877 83.8342 19.7181Z" fill="#797979"/>
<path d="M106.192 26.6833C105.472 27.6989 104.545 28.8646 103.412 30.1803C102.278 31.496 101.162 32.7193 100.062 33.8501C99.3743 34.5488 98.6972 35.1755 98.0274 35.7481C97.959 34.7037 97.8941 33.6773 97.8437 32.6905C97.7789 31.4912 97.7357 30.3279 97.7069 29.2079C97.7069 28.5236 97.7069 27.8826 97.7069 27.2739C98.1354 26.9714 98.5604 26.6725 98.9674 26.3772C99.5364 25.9666 100.062 25.5765 100.545 25.2067C101.002 24.8608 101.436 24.4854 101.845 24.0831C102.223 23.7146 102.568 23.3133 102.875 22.8838C103.169 22.4609 103.411 22.0037 103.595 21.5225C103.782 21.0391 103.904 20.5328 103.955 20.0171C104.01 19.5112 103.97 18.9998 103.84 18.5081C103.727 18.0392 103.501 17.6052 103.181 17.244C102.877 16.8959 102.497 16.6214 102.072 16.4408C101.677 16.2646 101.254 16.162 100.822 16.1383C100.453 16.1155 100.082 16.1324 99.7165 16.1888C99.3937 16.2431 99.074 16.3141 98.7585 16.4012C98.4856 16.4717 98.2289 16.594 98.0022 16.7614C97.7701 16.9469 97.5662 17.1653 97.3971 17.4096C97.194 17.6741 97.1022 18.0076 97.1414 18.3388C97.181 18.6737 97.2243 19.0591 97.2711 19.448C97.3293 19.9959 97.3582 20.5465 97.3575 21.0975C97.3575 21.7938 97.3575 22.5801 97.3575 23.4564C97.3395 24.3172 97.3251 25.2067 97.3143 26.1143C96.983 26.37 96.648 26.6257 96.2951 26.8814C95.6997 27.3159 95.0994 27.7397 94.4944 28.1527C93.8821 28.5668 93.2771 28.9486 92.6937 29.3051C92.1102 29.6617 91.5304 30.0254 90.9902 30.3856C90.469 30.7408 89.9809 31.1422 89.5316 31.5848C89.1114 31.9982 88.7481 32.4657 88.4512 32.975C88.1744 33.4576 87.9625 33.9747 87.8209 34.5128C87.689 35.0202 87.6428 35.546 87.6841 36.0686C87.7235 36.5792 87.8592 37.0778 88.0838 37.538C88.3078 38.0028 88.6196 38.4199 89.0022 38.7661C89.3956 39.1208 89.8399 39.4146 90.3203 39.6376C90.8705 39.873 91.475 39.9516 92.067 39.8645C92.8223 39.7649 93.554 39.532 94.2279 39.1766C95.196 38.6401 96.104 38.0014 96.9362 37.2715C97.1702 37.077 97.4079 36.8717 97.6564 36.6628C97.678 37.8657 97.678 38.8633 97.6564 39.6484C97.6348 40.4335 97.5808 41.1466 97.516 41.6652C97.4362 42.006 97.4575 42.3627 97.5772 42.6916C97.6736 42.8486 97.7476 43.0183 97.7969 43.1958C98.049 43.7289 98.2399 43.6856 98.3623 43.0662C98.3486 42.8941 98.3972 42.7229 98.4992 42.5836C98.6 42.4395 98.6072 42.1118 98.5208 41.6004C98.4136 40.9372 98.3415 40.2688 98.3047 39.598C98.2507 38.7697 98.175 37.7145 98.085 36.4288C98.085 36.3783 98.085 36.3351 98.085 36.2847C98.8053 35.6437 99.5256 34.9474 100.246 34.1959C101.358 33.041 102.478 31.7973 103.606 30.4648C104.73 29.1323 105.673 27.969 106.426 26.9786C107.254 25.6221 107.176 25.5236 106.192 26.6833ZM97.8041 23.442C97.8257 22.5585 97.8461 21.7662 97.8653 21.0651C97.8833 20.3664 97.8941 19.7902 97.9049 19.34C97.9157 18.8898 97.9049 18.5585 97.9049 18.346C97.9193 18.236 97.9193 18.1246 97.9049 18.0147C97.9049 18.0147 97.9554 17.9895 98.085 17.9679C98.2848 17.9183 98.4781 17.8457 98.6612 17.7518C98.8961 17.6348 99.1475 17.5546 99.4067 17.5141C99.68 17.4724 99.9553 17.446 100.231 17.4348C100.52 17.4171 100.809 17.4626 101.078 17.5681C101.331 17.6685 101.557 17.8277 101.737 18.0327C101.935 18.2667 102.085 18.537 102.18 18.8286C102.299 19.1755 102.343 19.5438 102.309 19.909C102.281 20.3117 102.195 20.7083 102.054 21.0867C101.91 21.4867 101.711 21.8649 101.463 22.2103C101.197 22.5912 100.903 22.9523 100.584 23.2908C100.22 23.6709 99.8348 24.0316 99.4319 24.3712C98.9974 24.7505 98.5172 25.1551 97.9914 25.5849L97.7429 25.7829C97.7573 24.9834 97.7777 24.2019 97.8041 23.4384V23.442ZM96.8029 36.7421C95.9975 37.3763 95.1271 37.9232 94.2063 38.3735C93.6537 38.6348 93.0581 38.7935 92.4488 38.8417C92.0229 38.8748 91.5954 38.8044 91.2027 38.6364C90.8563 38.4709 90.5379 38.2521 90.2591 37.9882C89.9768 37.7264 89.7449 37.4152 89.5748 37.0698C89.2339 36.3634 89.1425 35.5623 89.3155 34.7973C89.4114 34.3543 89.5678 33.9265 89.7801 33.526C90.0146 33.0867 90.3038 32.6789 90.6409 32.3123C91.0216 31.8958 91.444 31.5193 91.9014 31.1887C92.3948 30.8285 92.9278 30.4684 93.5076 30.0902C94.0874 29.7121 94.6889 29.3267 95.3083 28.909C95.9277 28.4912 96.5544 28.0662 97.1738 27.6377L97.3035 27.5476C97.3035 28.0855 97.3143 28.6509 97.3359 29.2439C97.3683 30.3784 97.4223 31.5416 97.4908 32.7445C97.552 33.8249 97.5952 34.945 97.624 36.0938C97.3503 36.3171 97.0766 36.5512 96.8029 36.7385V36.7421Z" fill="#797979"/>
<path d="M149.002 0.493741C148.462 0.360488 147.922 0.87189 147.378 2.03515C146.676 3.48317 145.882 4.8846 145.001 6.23081C143.956 7.86586 142.818 9.71579 141.587 11.7806C140.355 13.8454 139.235 15.7662 138.227 17.5429C137.221 19.334 136.311 20.9666 135.497 22.4408C134.683 23.915 133.977 25.2079 133.379 26.3196C132.781 27.4336 132.277 28.4348 131.866 29.3231C131.805 29.4528 131.751 29.5825 131.694 29.7121C131.694 29.6185 131.694 29.5248 131.694 29.4312C131.68 28.8161 131.483 28.2191 131.128 27.7169C130.972 27.4916 130.759 27.3124 130.51 27.1983C130.26 27.0843 129.985 27.0395 129.713 27.0687C129.314 27.0916 128.927 27.2155 128.589 27.4288C128.483 27.3516 128.362 27.2965 128.234 27.2669C128.106 27.2372 127.973 27.2334 127.844 27.2559C127.46 27.3279 127.082 27.4278 126.713 27.5548L125.431 27.9942C124.97 28.1563 124.494 28.3075 123.99 28.4588C123.452 28.6112 122.891 28.6697 122.333 28.6317C121.822 28.6142 121.315 28.5393 120.821 28.4084C120.672 28.352 120.508 28.3442 120.354 28.3863C120.2 28.4283 120.064 28.518 119.964 28.6425C119.859 28.6105 119.752 28.5888 119.643 28.5776C119.301 28.5488 119.153 28.7469 119.2 29.1683V29.2115C118.779 29.1359 118.527 29.3736 118.44 29.9318C118.354 30.49 118.188 31.2463 117.936 32.2331C117.677 32.7049 117.374 33.2091 117.018 33.7493C116.582 34.4156 116.117 35.0638 115.631 35.6941C115.141 36.3321 114.605 36.934 114.029 37.4948C113.498 38.0163 112.923 38.491 112.311 38.9137C111.828 39.2525 111.294 39.5115 110.73 39.6808C110.346 39.8012 109.942 39.844 109.541 39.8069C109.263 39.7707 108.997 39.6749 108.76 39.526C108.482 39.2919 108.288 38.9731 108.209 38.6184C108.057 38.1574 108.162 37.2643 108.515 35.939C108.947 34.3763 109.461 32.8375 110.056 31.3291C110.83 29.3597 111.703 27.4305 112.671 25.5489C113.739 23.4432 114.83 21.4648 115.945 19.6137C117.059 17.7626 118.235 15.9619 119.474 14.2116C120.713 12.4661 121.857 10.9751 122.906 9.7386C123.782 8.68105 124.727 7.6836 125.737 6.75301C126.383 6.13809 127.11 5.61462 127.898 5.1972C128.367 4.93295 128.913 4.84001 129.443 4.9343C129.891 5.05285 130.277 5.33738 130.523 5.73021C130.834 6.28704 130.971 6.92435 130.916 7.55974C130.896 8.37202 130.75 9.1763 130.483 9.94388C130.174 10.82 129.781 11.6642 129.309 12.4649C128.837 13.2948 128.3 14.086 127.703 14.831C127.141 15.5225 126.68 16.0615 126.32 16.448C125.96 16.8334 125.676 17.1503 125.463 17.3988C125.103 18.436 125.344 18.735 126.212 18.2956C126.5 17.9727 126.758 17.6244 126.983 17.2548C127.278 16.7866 127.682 16.1743 128.186 15.3784C128.69 14.5825 129.198 13.7434 129.698 12.8106C130.165 11.955 130.566 11.0653 130.898 10.1492C131.194 9.30725 131.353 8.42328 131.369 7.53092C131.411 6.72834 131.227 5.93015 130.84 5.22601C130.674 4.92559 130.449 4.66188 130.179 4.4508C129.908 4.23973 129.598 4.08567 129.266 3.99793C128.914 3.90842 128.548 3.89067 128.189 3.94574C127.83 4.0008 127.486 4.12756 127.177 4.31845C126.339 4.81946 125.583 5.44758 124.937 6.18039C124.155 7.02312 123.269 8.08915 122.279 9.37846C121.29 10.6678 120.201 12.2068 119.013 13.9955C117.812 15.7674 116.654 17.5825 115.538 19.4408C114.421 21.2992 113.331 23.2872 112.267 25.4048C111.209 27.5224 110.322 29.4552 109.606 31.2031C108.891 32.951 108.319 34.4936 107.892 35.8309C107.555 36.8027 107.321 37.807 107.193 38.8273C107.154 39.0943 107.168 39.3665 107.235 39.628C107.302 39.8895 107.42 40.1352 107.582 40.3507C107.743 40.5333 107.939 40.6823 108.157 40.7892C108.376 40.8962 108.614 40.9589 108.857 40.9738C109.452 41.0204 110.051 40.9317 110.607 40.7145C111.274 40.4647 111.901 40.1202 112.469 39.6916C113.122 39.2067 113.734 38.6708 114.302 38.089C114.892 37.4899 115.446 36.8574 115.963 36.1947C116.472 35.5464 116.952 34.8813 117.403 34.1995L117.475 34.0878C117.356 34.5308 117.234 34.9594 117.115 35.3771C116.872 36.1763 116.697 36.9943 116.589 37.8225C116.491 38.3756 116.547 38.945 116.751 39.4684C116.825 39.6467 116.946 39.802 117.101 39.9179C117.255 40.0338 117.438 40.1062 117.63 40.1274C118.062 40.1689 118.497 40.1034 118.898 39.9365C119.343 39.7674 119.766 39.5424 120.155 39.2667C120.556 38.98 120.913 38.6353 121.213 38.2439C121.529 37.8342 121.773 37.3739 121.934 36.8825C122.103 36.3657 122.236 35.8373 122.33 35.3015C122.431 34.7517 122.506 34.2115 122.557 33.6809C122.603 33.1901 122.613 32.6965 122.586 32.2043C122.562 31.7646 122.463 31.3322 122.294 30.9258C122.132 30.5304 121.904 30.1651 121.62 29.8454C121.57 29.7913 121.516 29.7445 121.466 29.6905L121.955 29.6653C122.588 29.641 123.217 29.559 123.835 29.4204C124.39 29.2907 124.894 29.1611 125.341 29.0278L126.601 28.6677L127.055 28.538C127.023 28.9273 126.957 29.313 126.857 29.6905C126.701 30.3185 126.511 30.9377 126.288 31.5452C126.05 32.2007 125.82 32.8705 125.604 33.5476C125.387 34.2247 125.215 34.8405 125.092 35.3807C124.97 35.889 124.963 36.4179 125.071 36.9294C125.107 37.1529 125.22 37.357 125.389 37.5077C125.558 37.6585 125.773 37.7467 126 37.7577C126.502 37.8253 127.012 37.7144 127.44 37.4444C127.906 37.1534 128.333 36.8049 128.712 36.4072C129.122 35.9858 129.499 35.5331 129.839 35.053C129.994 34.8297 130.145 34.5956 130.289 34.3327C130.289 34.3831 130.271 34.4408 130.264 34.4912C130.163 35.1016 130.133 35.7215 130.174 36.3387C130.199 36.8026 130.381 37.2443 130.689 37.592C130.813 37.7454 130.976 37.8626 131.161 37.9317C131.346 38.0007 131.546 38.019 131.74 37.9846C132.109 37.9306 132.464 37.8084 132.788 37.6244C133.1 37.4367 133.399 37.2273 133.682 36.9978C133.98 36.7565 134.283 36.5044 134.589 36.2379C134.895 35.9714 135.23 35.6869 135.594 35.3807C135.958 35.0746 136.347 34.7289 136.757 34.3435L136.829 34.2715C136.955 34.675 137.151 35.053 137.409 35.3879C137.902 35.9705 138.604 36.3364 139.365 36.4072C140.369 36.5312 141.387 36.4837 142.375 36.2667C143.886 35.7721 143.956 35.532 142.588 35.5464C141.714 35.6973 140.822 35.6973 139.948 35.5464C139.382 35.4556 138.854 35.2058 138.425 34.8261C138.047 34.3894 137.831 33.8364 137.812 33.2595C137.888 33.1803 137.964 33.101 138.039 33.0146C138.483 32.5176 138.911 31.9942 139.321 31.4444C139.732 30.8946 140.103 30.3483 140.434 29.8057C140.737 29.3203 141 28.8108 141.219 28.2823C141.407 27.8106 141.558 27.3928 141.669 27.029C141.78 26.6537 141.77 26.2531 141.641 25.8838C141.59 25.699 141.49 25.5315 141.352 25.3989C141.214 25.2664 141.042 25.1738 140.856 25.1311C140.676 25.0781 140.489 25.0616 140.303 25.0826C140.117 25.1036 139.938 25.1618 139.775 25.2535C139.421 25.4638 139.102 25.7274 138.828 26.035C138.522 26.3736 138.223 26.7301 137.938 27.1155C137.597 27.6004 137.34 28.1399 137.179 28.7109C136.949 29.4384 136.781 30.1842 136.678 30.9402C136.563 31.7395 136.547 32.55 136.631 33.3531V33.4072L136.455 33.5656C136.058 33.9258 135.677 34.2247 135.306 34.5056C134.935 34.7865 134.585 35.0566 134.29 35.3087C133.995 35.5608 133.689 35.7805 133.408 35.975C133.127 36.1695 132.886 36.3351 132.688 36.4432C132.531 36.5366 132.364 36.6115 132.191 36.6665C132.1 36.6954 132.004 36.7028 131.91 36.6881C131.838 36.6881 131.737 36.4792 131.6 36.119C131.449 35.6225 131.388 35.1029 131.42 34.5848C131.458 33.7972 131.602 33.0182 131.848 32.2691C132.115 31.388 132.42 30.4996 132.763 29.6041C133.107 28.7085 133.546 27.6989 134.081 26.5753C134.619 25.4516 135.278 24.1455 136.058 22.6569C136.839 21.1683 137.721 19.5273 138.706 17.7338C139.688 15.9378 140.81 14.0171 142.073 11.9715C143.336 9.92587 144.523 8.10715 145.635 6.51532C146.543 5.17221 147.579 3.92026 148.728 2.77704C149.087 2.45927 149.403 2.09606 149.668 1.69662C149.799 1.49844 149.865 1.26414 149.856 1.02675C149.816 0.803462 149.539 0.626994 149.002 0.493741ZM121.649 31.466C121.776 31.7531 121.859 32.0579 121.894 32.37C121.936 32.7867 121.936 33.2065 121.894 33.6232C121.852 34.1267 121.779 34.6271 121.674 35.1214C121.583 35.5894 121.463 36.0513 121.314 36.5044C121.189 36.8827 121 37.2371 120.756 37.5524C120.527 37.8375 120.256 38.0864 119.953 38.2907C119.68 38.4769 119.38 38.6191 119.063 38.7121C118.845 38.7823 118.614 38.8044 118.386 38.7769C118.247 38.7468 118.104 38.7299 117.961 38.7265C117.842 38.7265 117.774 38.4239 117.749 37.8225C117.747 37.0567 117.851 36.2944 118.059 35.5572C118.315 34.583 118.653 33.6324 119.071 32.7157C119.384 31.9459 119.796 31.2197 120.295 30.5548C120.401 30.4338 120.484 30.2947 120.54 30.1443C120.767 30.3107 120.974 30.5015 121.159 30.7133C121.359 30.9428 121.524 31.2 121.649 31.4768V31.466ZM137.877 31.1059C137.996 30.4279 138.223 29.7737 138.551 29.1683C138.79 28.7158 139.062 28.2813 139.365 27.8682C139.597 27.5681 139.87 27.3014 140.175 27.0759C140.404 26.881 140.67 26.734 140.956 26.6437H140.982C140.982 26.7013 140.953 26.7625 140.938 26.8346C140.86 27.2116 140.758 27.5832 140.632 27.9474C140.459 28.4492 140.234 28.9319 139.962 29.388C139.337 30.4378 138.596 31.415 137.755 32.3015C137.765 31.9076 137.806 31.5151 137.877 31.1275V31.1059ZM130.926 31.2787C130.757 31.8777 130.53 32.459 130.249 33.0146C129.997 33.5162 129.707 33.9978 129.381 34.4552C129.083 34.872 128.743 35.257 128.366 35.604C128.064 35.8904 127.723 36.1329 127.354 36.3243L126.763 36.6052C126.677 36.6448 126.605 36.5872 126.54 36.436C126.461 36.1317 126.44 35.8152 126.479 35.5032C126.525 34.9305 126.646 34.3663 126.839 33.8249C127.05 33.1767 127.29 32.5332 127.559 31.8946C127.828 31.2559 128.114 30.6629 128.416 30.1155C128.712 29.5788 128.942 29.1287 129.115 28.7649L129.248 28.7145C129.539 28.4637 129.882 28.2816 130.253 28.1815C130.366 28.1669 130.482 28.183 130.587 28.2279C130.692 28.2729 130.783 28.3451 130.851 28.4372C131.054 28.7606 131.159 29.1358 131.153 29.5176C131.186 30.1207 131.109 30.7248 130.926 31.3003V31.2787Z" fill="#797979"/>
</g>
<defs>
<clipPath id="clip0_526_601">
<rect width="154.854" height="63.2554" fill="white" transform="translate(0.511719 0.47213)"/>
</clipPath>
</defs>
</svg>
