<svg width="110" height="101" viewBox="0 0 110 101" fill="none" xmlns="http://www.w3.org/2000/svg">
<path d="M8.74603 94.6606C11.2055 94.6606 13.1184 94.023 14.5758 92.8388C16.0333 91.6546 16.762 90.015 16.762 88.011C16.762 87.2823 16.6709 86.5536 16.3976 85.9159C16.1244 85.2783 15.8511 84.7317 15.5778 84.2763C15.3046 83.8208 14.758 83.3654 14.2115 83.001C13.6649 82.6367 13.1184 82.2723 12.6629 82.0901C12.2075 81.9079 11.6609 81.6347 11.0233 81.2703C9.9302 80.8148 9.11039 80.3594 8.56384 79.9039C7.92621 79.5396 7.65294 78.993 7.65294 78.4465C7.65294 77.8999 7.83512 77.4445 8.29057 77.1712C8.74603 76.8069 9.38366 76.6247 10.2035 76.6247C12.1164 76.6247 13.9382 77.1712 15.6689 78.1732V73.4365C14.1204 72.7078 12.2075 72.3434 10.0213 72.3434C7.56185 72.3434 5.64894 72.89 4.28258 74.0741C2.91623 75.2583 2.1875 76.8069 2.1875 78.6287C2.1875 80.1772 2.64295 81.4525 3.46277 82.4545C4.28258 83.4565 5.46676 84.1852 6.83312 84.8228C7.10639 84.9139 7.47076 85.0961 7.83512 85.2783C8.29057 85.4605 8.56384 85.6426 8.83712 85.7337C9.0193 85.8248 9.29257 86.007 9.65693 86.0981C9.9302 86.2803 10.2035 86.3714 10.3857 86.5536C10.5678 86.6446 10.75 86.8268 10.9322 87.009C11.1144 87.1912 11.2055 87.3734 11.2966 87.5555C11.3877 87.7377 11.3877 87.9199 11.3877 88.1932C11.3877 88.8308 11.1144 89.3774 10.6589 89.7417C10.2035 90.1061 9.56584 90.3794 8.74603 90.3794C6.46876 90.3794 4.37368 89.6506 2.36968 88.1932V93.2032C4.00931 94.2052 6.1044 94.6606 8.74603 94.6606ZM28.6038 94.7517C31.3365 94.7517 33.5227 94.023 35.1623 92.4744C36.8019 90.9259 37.6218 88.7397 37.6218 85.9159V72.5256H32.6118V86.007C32.6118 88.8308 31.3365 90.1972 28.6949 90.1972C26.0532 90.1972 24.778 88.8308 24.778 86.0981V72.4345H19.768V86.0981C19.768 88.8308 20.5878 90.9259 22.2274 92.4744C23.776 94.023 25.8711 94.7517 28.6038 94.7517ZM46.6397 94.3873V86.7357H48.1883L52.925 94.3873H58.937L53.3804 86.007C56.0221 84.8228 57.3884 82.6367 57.3884 79.5396C57.3884 77.4445 56.6597 75.8049 55.1112 74.4385C53.5626 73.0721 51.6497 72.5256 49.1903 72.5256H41.6297V94.4784H46.6397V94.3873ZM49.0081 82.7277H46.6397V76.5336H49.0992C50.1012 76.5336 50.8299 76.8069 51.3764 77.3534C51.923 77.8999 52.1963 78.6287 52.1963 79.5396C52.2873 81.6347 51.1943 82.7277 49.0081 82.7277ZM75.3333 94.3873V90.3794H66.6797V85.3694H74.2402V81.3614H66.6797V76.5336H75.1511V72.5256H61.6697V94.4784H75.3333V94.3873Z" fill="#797979"/>
<path d="M84.8069 94.3874V72.5256H79.7969V94.4784H84.8069V94.3874ZM94.3714 94.3874V85.3694C94.3714 82.8188 94.1892 80.5416 93.9159 78.5376L94.1892 79.3574C94.3714 79.9039 94.7357 80.7238 95.2823 81.9079C95.8288 83.001 96.4665 84.1852 97.1041 85.3694L102.387 94.4784H107.944V72.5256H102.934V81.6347C102.934 84.4585 103.025 86.7357 103.298 88.2843L103.025 87.5556C102.843 87.1001 102.57 86.2803 102.023 85.1872C101.476 84.0941 100.839 82.9099 100.11 81.6347L95.009 72.5256H89.4525V94.4784L94.3714 94.3874Z" fill="#797979"/>
<path d="M75.06 22.8637C75.3333 22.5905 75.8799 22.5905 76.1531 22.8637L77.064 23.7747C80.3433 27.0539 80.4344 32.2461 77.1551 35.4343L54.4736 57.7515C54.1092 58.1158 53.3805 58.1158 53.0161 57.7515L46.7309 51.5573C46.5487 51.3751 46.5487 51.0107 46.7309 50.8286L75.06 22.8637ZM49.8279 31.4263C50.1923 31.0619 50.8299 31.0619 51.1943 31.4263L54.4736 34.6144C54.8379 34.9788 54.8379 35.6164 54.4736 35.9808L43.3605 46.9117C42.9961 47.276 42.3585 47.276 41.9941 46.9117L38.7149 43.7235C38.3505 43.3591 38.3505 42.7215 38.7149 42.3571L49.8279 31.4263ZM66.6797 14.8478C67.0441 14.4834 67.6817 14.4834 68.0461 14.8478L71.3253 18.0359C71.6897 18.4003 71.6897 19.0379 71.3253 19.4023L60.2123 30.3332C59.8479 30.6975 59.2103 30.6975 58.8459 30.3332L55.5666 27.145C55.2023 26.7806 55.2023 26.143 55.5666 25.7786L66.6797 14.8478ZM55.5666 3.9169C55.931 3.55253 56.6597 3.55253 57.0241 3.9169L63.3093 10.1111C63.4915 10.2932 63.4915 10.6576 63.3093 10.8398L34.9802 38.8957C34.7069 39.169 34.1603 39.169 33.8871 38.8957L32.9762 37.9848C29.6969 34.7055 29.6058 29.5134 32.8851 26.3252L55.5666 3.9169Z" fill="#797979"/>
</svg>
