<svg width="156" height="46" viewBox="0 0 156 46" fill="none" xmlns="http://www.w3.org/2000/svg">
<g clip-path="url(#clip0_526_616)">
<path d="M22.0845 37.4152L22.065 37.4354L16.0592 31.197L16.0928 31.1624L14.3352 29.3259L14.3006 29.3617L8.29485 23.1199L14.2996 16.8771L19.0903 21.8573L19.1281 21.8193L35.8307 39.265L29.7936 45.4677L22.0845 37.4152ZM31.5901 31.1903L37.5948 24.9474L37.6294 24.9832L39.3848 23.1502L39.3545 23.1177L45.3602 16.8794L45.3775 16.8973L53.0888 8.84484L59.1314 15.0474L42.418 32.4943L42.3811 32.4564L37.5948 37.431L31.5901 31.1903ZM110.117 33.9684C108.975 33.9617 107.842 33.7645 106.76 33.3846C105.554 32.8368 104.471 32.0372 103.579 31.0359L106.467 27.7815C107.397 28.8641 108.524 30.1848 110.149 30.1848C110.461 30.1957 110.772 30.142 111.063 30.0268C111.355 29.9115 111.621 29.7371 111.847 29.5138C112.073 29.2892 112.253 29.0204 112.377 28.7232C112.502 28.426 112.568 28.1063 112.571 27.7825C112.577 27.3666 112.459 26.9589 112.232 26.6149C111.533 25.8036 110.64 25.1962 109.642 24.8535C108.631 24.349 107.669 23.7448 106.77 23.0495C106.086 22.5027 105.533 21.8014 105.153 20.9993C104.772 20.1973 104.575 19.3159 104.575 18.4228C104.57 17.2107 104.923 16.0258 105.586 15.0262C106.21 14.1333 107.038 13.4142 107.997 12.9333C108.956 12.4523 110.015 12.2246 111.08 12.2705C112.205 12.2897 113.315 12.5382 114.347 13.0019C115.296 13.5116 116.138 14.2085 116.826 15.0531L114.064 18.2707C113.757 17.7325 113.333 17.2754 112.826 16.9352C112.319 16.5949 111.742 16.381 111.141 16.3101C110.885 16.2925 110.629 16.3281 110.387 16.415C110.145 16.5019 109.923 16.6381 109.733 16.8156C109.543 16.9934 109.389 17.2085 109.28 17.4482C109.171 17.6881 109.109 17.9478 109.098 18.2125C109.098 19.8207 110.986 20.5521 111.941 21.0196C113.113 21.4595 114.208 22.0938 115.183 22.8974C115.809 23.4272 116.306 24.0993 116.638 24.8611C116.971 25.6228 117.127 26.4535 117.096 27.2883C117.092 28.471 116.782 29.6314 116.199 30.6485C115.614 31.6656 114.776 32.5022 113.772 33.0714C112.653 33.6592 111.415 33.9657 110.16 33.9661L110.117 33.9684ZM150.65 33.5009L146.791 21.6124C146.508 20.705 146.255 19.7972 146.033 18.8891C145.902 18.369 145.798 17.8423 145.719 17.3111C145.411 18.51 145.102 19.682 144.764 20.8553C144.512 21.6751 144.258 22.4321 144.006 23.2263L140.677 33.5009H135.998L143.773 12.8274H147.94L155.382 33.5009H150.65ZM78.1882 33.5009L70.7476 12.8252H75.4821L79.3415 24.7137C79.6241 25.6229 79.8775 26.5277 80.0995 27.437C80.2305 27.957 80.3353 28.4837 80.4135 29.015C80.7222 27.8105 81.0297 26.6441 81.3697 25.4708C81.6221 24.651 81.8755 23.894 82.1277 23.0998L85.4566 12.8208H90.1293L82.3552 33.5009H78.1882ZM94.1858 33.5009V12.8252H98.5249V33.5009H94.1858ZM122.221 33.474V12.8252H129.236C131.344 12.946 133.282 13.4716 134.557 15.374C135.386 16.6872 135.764 18.2495 135.631 19.8108C135.497 21.3721 134.861 22.8421 133.823 23.9856C132.221 25.6251 130.08 25.6251 127.966 25.6251H126.53V33.4752L122.221 33.474ZM126.56 21.8428H128.275C128.759 21.8699 129.243 21.82 129.711 21.6952C130.221 21.5221 130.667 21.187 130.981 20.7376C131.296 20.2883 131.466 19.7475 131.466 19.1927C131.466 18.6379 131.296 18.0973 130.981 17.648C130.667 17.1985 130.221 16.8635 129.711 16.6904C129.266 16.607 128.814 16.5695 128.361 16.5785H126.56V21.8428ZM25.2616 24.6063L25.2454 24.623L16.0592 15.0474L22.0779 8.82024L29.8152 16.8827L33.0445 13.5186L33.0552 13.5298L37.6034 8.80682L43.5994 15.0474L37.5948 21.2904L37.585 21.2803L29.8423 29.3506L25.2616 24.6063ZM0.52832 15.0474L11.0757 4.04807L11.0909 4.06373L14.2996 0.73204L20.3041 6.9749L14.2996 13.2178L14.2887 13.2066L6.5503 21.2746L0.52832 15.0474ZM39.3501 6.97602L45.3538 0.73204L51.3595 6.97602L45.3548 13.2189L39.3501 6.97602Z" fill="#797979"/>
</g>
<defs>
<clipPath id="clip0_526_616">
<rect width="154.854" height="44.7356" fill="white" transform="translate(0.52832 0.73204)"/>
</clipPath>
</defs>
</svg>
