<svg width="156" height="46" viewBox="0 0 156 46" fill="none" xmlns="http://www.w3.org/2000/svg">
<g clip-path="url(#clip0_526_618)">
<path d="M31.8404 23.106L35.4562 19.5227C36.5856 18.4044 37.2245 16.8832 37.2324 15.2938C37.2403 13.7044 36.6164 12.177 35.4981 11.0476C34.3797 9.91814 32.8586 9.27923 31.2691 9.27139C29.6797 9.26354 28.1522 9.88742 27.0229 11.0057L25.2963 12.7215C25.0781 12.9349 24.9531 13.2258 24.9485 13.531C24.9438 13.8361 25.06 14.1307 25.2715 14.3506L25.2947 14.3738C25.4008 14.4843 25.5279 14.5725 25.6685 14.6334C25.8091 14.6943 25.9603 14.7266 26.1136 14.7285C26.2667 14.7304 26.4188 14.7018 26.5608 14.6443C26.7028 14.5869 26.832 14.5018 26.9408 14.3939L28.6752 12.6766C29.0152 12.3393 29.4185 12.0722 29.8618 11.8906C30.3052 11.7091 30.78 11.6167 31.2589 11.6186C31.738 11.6206 32.2121 11.7168 32.6539 11.902C33.0957 12.0871 33.4967 12.3574 33.8341 12.6975C34.1716 13.0376 34.4385 13.4409 34.6202 13.8842C34.8017 14.3275 34.8941 14.8023 34.8921 15.2813C34.8903 15.7604 34.7939 16.2344 34.6087 16.6762C34.4237 17.118 34.1533 17.5191 33.8132 17.8565L29.355 22.2636C29.1342 22.4829 29.0094 22.7808 29.008 23.0921C29.0064 23.4032 29.1284 23.7024 29.3473 23.9237L33.7559 28.3757C34.431 29.0602 34.8093 29.9828 34.8093 30.944C34.8093 31.9052 34.431 32.8278 33.7559 33.5122C33.4181 33.8545 33.0153 34.1259 32.5713 34.3107C32.1272 34.4956 31.6509 34.5899 31.1699 34.5885C30.6881 34.5892 30.211 34.4939 29.7666 34.3077C29.3223 34.1216 28.9195 33.8484 28.5823 33.5045L24.8317 29.7245L24.1643 29.0617C24.0652 28.9611 23.9692 28.8589 23.8763 28.752L23.7384 28.5972C23.6935 28.5445 23.6486 28.4919 23.6053 28.4423C23.3871 28.176 23.1859 27.8961 23.0029 27.6045C22.958 27.5333 22.9146 27.4636 22.8759 27.3939L22.7876 27.2391C22.6792 27.0455 22.577 26.8473 22.4779 26.646C21.538 24.5925 21.4522 22.2497 22.2395 20.1328C22.3079 19.9452 22.3259 19.7429 22.2916 19.5463C22.2574 19.3494 22.1721 19.1652 22.0443 19.0117L22.0242 18.9869C21.8938 18.8296 21.7241 18.7094 21.5324 18.6388C21.3405 18.568 21.1335 18.5493 20.9322 18.5843C20.7309 18.6193 20.5424 18.7069 20.3857 18.8384C20.2291 18.9697 20.1101 19.1401 20.0405 19.3322C19.3911 21.0844 19.2056 22.9749 19.5021 24.8198C19.7988 26.6649 20.5672 28.4019 21.7331 29.8623L21.8306 29.9816C21.8786 30.0404 21.9297 30.1008 21.9855 30.1612C22.1094 30.3052 22.2441 30.4523 22.385 30.5994C22.4191 30.6366 22.4547 30.6738 22.4919 30.7109L24.4353 32.676L26.899 35.163C27.4545 35.7268 28.1168 36.1742 28.8471 36.4788C29.5775 36.7835 30.3614 36.9395 31.1529 36.9376C31.9429 36.9399 32.7255 36.7849 33.4551 36.4816C34.1847 36.1782 34.8466 35.7325 35.402 35.1707C36.5127 34.0471 37.1363 32.5315 37.1383 30.9516C37.1404 29.3717 36.5206 27.8546 35.4129 26.7281L31.8404 23.106Z" fill="#797979"/>
<path d="M22.4855 26.6398C22.5769 26.8411 22.6791 27.0393 22.7952 27.2329L22.4731 26.6847L22.4855 26.6398Z" fill="#797979"/>
<path d="M25.8754 17.6459C25.3964 16.821 24.8106 16.0628 24.1333 15.3912L22.2518 13.533L19.6828 10.9825C18.5567 9.87427 17.0396 9.25391 15.4596 9.25566C13.8796 9.25739 12.3638 9.88108 11.2401 10.9918C10.6774 11.549 10.2306 12.2123 9.92574 12.9432C9.62084 13.6742 9.46387 14.4583 9.46387 15.2503C9.46387 16.0422 9.62084 16.8264 9.92574 17.5573C10.2306 18.2882 10.6774 18.9516 11.2401 19.5088L14.8591 23.0906L11.2835 26.7033C10.1746 27.8279 9.55289 29.3437 9.55289 30.9231C9.55289 32.5024 10.1746 34.0183 11.2835 35.1428C11.8394 35.7067 12.5023 36.1536 13.2333 36.4576C13.9643 36.7615 14.7487 36.9162 15.5404 36.9128C16.3319 36.9142 17.1156 36.7577 17.8457 36.4524C18.5759 36.1472 19.2377 35.6994 19.7927 35.1351L21.4388 33.4735C21.6505 33.2595 21.7704 32.9712 21.7727 32.67C21.775 32.3689 21.6596 32.0787 21.4512 31.8615L21.4295 31.8367C21.3225 31.7254 21.1945 31.6365 21.0526 31.5753C20.9108 31.5143 20.7581 31.4822 20.6037 31.481C20.4493 31.4799 20.2962 31.5097 20.1534 31.5687C20.0106 31.6277 19.8811 31.7145 19.7726 31.8243L18.128 33.4859C17.7902 33.8297 17.3872 34.1025 16.9426 34.2887C16.4981 34.4748 16.0208 34.5704 15.5389 34.5699C14.8191 34.57 14.1153 34.3573 13.5162 33.9582C12.9172 33.5592 12.4496 32.9916 12.1724 32.3273C11.8952 31.6631 11.8208 30.9316 11.9586 30.2251C12.0964 29.5185 12.4402 28.8686 12.9466 28.3571L17.3553 23.9035C17.4637 23.7941 17.5494 23.6643 17.6076 23.5217C17.6658 23.379 17.6952 23.2264 17.6943 23.0724C17.6935 22.9184 17.6622 22.766 17.6025 22.624C17.5427 22.4821 17.4557 22.3533 17.346 22.245L12.9079 17.8333C12.5659 17.4943 12.2945 17.091 12.1092 16.6466C11.924 16.2022 11.8286 15.7256 11.8286 15.2441C11.8286 14.7626 11.924 14.2859 12.1092 13.8415C12.2945 13.3972 12.5659 12.9939 12.9079 12.6549C13.5926 11.9799 14.5155 11.6015 15.4769 11.6015C16.4384 11.6015 17.3614 11.9799 18.046 12.6549L20.6444 15.2286L22.5027 17.0636C23.6627 18.2109 24.4662 19.6692 24.8165 21.2628C25.1668 22.8563 25.0489 24.5171 24.4771 26.0452C24.4078 26.2366 24.3899 26.443 24.4252 26.6434C24.4605 26.8439 24.5478 27.0317 24.6784 27.188L24.6985 27.2128C24.8278 27.3698 24.9964 27.4896 25.1871 27.5606C25.3777 27.6313 25.5836 27.6505 25.784 27.616C25.9846 27.5816 26.1722 27.4949 26.3283 27.3645C26.4844 27.2341 26.6034 27.0647 26.6729 26.8736C27.2285 25.3719 27.4452 23.7657 27.3072 22.1704C27.1694 20.5751 26.6805 19.0301 25.8754 17.6459Z" fill="#797979"/>
<path d="M23.353 45.7598C18.1101 45.7562 13.0308 43.935 8.98012 40.6064C4.92948 37.2778 2.1582 32.6477 1.13843 27.505C0.118669 22.3623 0.913501 17.0251 3.38752 12.4026C5.86153 7.78022 9.86167 4.15857 14.7065 2.15468C19.5512 0.150809 24.9409 -0.111333 29.9573 1.41293C34.9738 2.93718 39.3064 6.15354 42.2174 10.514C45.1283 14.8745 46.4373 20.1094 45.9215 25.3268C45.4055 30.5443 43.0966 35.4214 39.3882 39.1274C37.2839 41.2345 34.7841 42.905 32.0323 44.0432C29.2804 45.1814 26.3309 45.7647 23.353 45.7598ZM23.353 2.7599C18.6486 2.75953 14.0896 4.39039 10.4528 7.37458C6.81606 10.3588 4.32655 14.5117 3.40848 19.1257C2.49043 23.7397 3.20062 28.5292 5.41806 32.6782C7.63551 36.8272 11.223 40.0791 15.5692 41.8796C19.9154 43.6801 24.7515 43.9178 29.2534 42.5523C33.7554 41.1868 37.6445 38.3026 40.2581 34.391C42.8719 30.4796 44.0485 25.7827 43.5874 21.101C43.1264 16.4191 41.0563 12.0421 37.7297 8.71559C35.8462 6.8216 33.6056 5.32001 31.1379 4.29771C28.6701 3.27542 26.0241 2.75273 23.353 2.7599Z" fill="#797979"/>
<path d="M56.7688 34.0527H53.2366L61.7241 22.9636L53.5773 12.1238H57.0166L63.491 20.681L69.9655 12.1207H73.4032L65.2873 22.9605L73.7439 34.0496H70.2442L63.491 25.2771L56.7688 34.0527Z" fill="#797979"/>
<path d="M84.1981 34.4228C81.038 34.4228 78.3539 33.3264 76.1457 31.1337C73.9374 28.9409 72.8329 26.2569 72.8318 23.0813C72.8318 19.9099 73.9364 17.2258 76.1457 15.0289C78.355 12.832 81.0391 11.7356 84.1981 11.7398C87.3768 11.7398 90.0666 12.8361 92.2675 15.0289C94.4685 17.2216 95.5679 19.9057 95.5659 23.0813C95.5659 26.2527 94.4664 28.9368 92.2675 31.1337C90.0686 33.3306 87.3788 34.427 84.1981 34.4228ZM84.1981 31.7051C86.6138 31.7051 88.632 30.8709 90.2529 29.2026C91.8737 27.5344 92.6845 25.4959 92.6856 23.0875C92.6856 20.6779 91.8747 18.639 90.2529 16.9707C88.6311 15.3024 86.6127 14.4683 84.1981 14.4683C81.8009 14.4683 79.7925 15.3024 78.1727 16.9707C76.5529 18.639 75.742 20.6779 75.7399 23.0875C75.7399 25.4959 76.5509 27.5344 78.1727 29.2026C79.7945 30.8709 81.8029 31.7051 84.1981 31.7051Z" fill="#797979"/>
<path d="M118.785 34.0527H104.626V12.1207H107.508V31.366H118.785V34.0527Z" fill="#797979"/>
<path d="M145.838 34.3608C143.586 34.3608 141.722 33.599 140.246 32.0752C138.77 30.5514 138.031 28.6363 138.03 26.3301C138.03 24.0022 138.748 22.082 140.184 20.5695C141.62 19.0571 143.525 18.3005 145.9 18.2994C148.294 18.2994 150.173 19.1433 151.536 20.8312C152.9 22.5191 153.499 24.5916 153.334 27.0486H140.726C140.731 27.7077 140.871 28.3587 141.138 28.9617C141.404 29.5647 141.791 30.1067 142.275 30.5545C142.752 31.0132 143.315 31.3734 143.932 31.6143C144.549 31.8553 145.207 31.9725 145.869 31.959C147.975 31.959 149.472 31.0945 150.36 29.3652H153.086C152.686 30.8113 151.798 32.0746 150.573 32.9408C149.295 33.8885 147.717 34.3619 145.838 34.3608ZM148.87 21.7433C148.019 21.0109 146.926 20.6202 145.804 20.647C144.643 20.6353 143.512 21.0175 142.597 21.7309C141.657 22.4536 141.074 23.5241 140.847 24.9426H150.511C150.266 23.5407 149.718 22.4742 148.87 21.7433Z" fill="#797979"/>
<path d="M132.904 16.5186V18.6091H137.364V21.0496H132.904V34.0573H130.239V21.0496H126.808V18.6075H130.239V16.1794C130.239 14.6309 130.673 13.4566 131.54 12.6565C132.407 11.8564 133.553 11.4548 134.978 11.4517C135.788 11.446 136.594 11.5715 137.364 11.8234V14.1957C136.888 13.9893 136.259 13.886 135.475 13.886C134.586 13.886 133.936 14.0796 133.522 14.4714C133.109 14.8632 132.904 15.5507 132.904 16.5186Z" fill="#797979"/>
<path d="M121.665 25.1997V18.6075H124.547V34.0527H121.665V27.092V25.1997ZM124.468 14.6882C124.296 14.8666 124.089 15.007 123.859 15.1003C123.63 15.1937 123.384 15.2379 123.136 15.2302C122.884 15.2358 122.634 15.1907 122.4 15.0976C122.167 15.0045 121.954 14.8653 121.775 14.6882C121.598 14.5127 121.458 14.304 121.362 14.0741C121.267 13.8443 121.217 13.5977 121.217 13.3487C121.217 13.0997 121.267 12.8531 121.362 12.6232C121.458 12.3933 121.598 12.1847 121.775 12.0092C121.952 11.8285 122.164 11.6859 122.398 11.5901C122.632 11.4942 122.883 11.4471 123.136 11.4517C123.385 11.4447 123.632 11.4907 123.862 11.5869C124.092 11.683 124.298 11.827 124.468 12.0092C124.806 12.3731 124.994 12.8517 124.994 13.3487C124.994 13.8457 124.806 14.3243 124.468 14.6882Z" fill="#797979"/>
</g>
<defs>
<clipPath id="clip0_526_618">
<rect width="154.854" height="45.3722" fill="white" transform="translate(0.674316 0.413727)"/>
</clipPath>
</defs>
</svg>
