<svg width="60" height="60" viewBox="0 0 60 60" fill="none" xmlns="http://www.w3.org/2000/svg">
<circle cx="30" cy="30" r="30" fill="#3262D1"/>
<path d="M28.64 44V28.8C28.64 28.1067 28.64 27.4 28.64 26.68C28.6667 25.9333 28.68 25.1733 28.68 24.4C27.8 25.2 26.8267 25.9067 25.76 26.52C24.6933 27.1067 23.5733 27.5067 22.4 27.72L21.76 22.04C22.4533 21.9867 23.1867 21.8133 23.96 21.52C24.76 21.2267 25.5467 20.8667 26.32 20.44C27.0933 20.0133 27.7867 19.56 28.4 19.08C29.0133 18.5733 29.48 18.08 29.8 17.6H35.28V44H28.64Z" fill="white"/>
</svg>
