<svg width="60" height="60" viewBox="0 0 60 60" fill="none" xmlns="http://www.w3.org/2000/svg">
<circle cx="30" cy="30" r="30" fill="#3262D1"/>
<path d="M20.4 44V39.6C22.6667 38.1867 24.6 36.8667 26.2 35.64C27.8 34.4133 29.0933 33.2533 30.08 32.16C31.0933 31.0667 31.84 30.0267 32.32 29.04C32.8 28.0533 33.04 27.0933 33.04 26.16C33.04 25.1467 32.7333 24.3067 32.12 23.64C31.5333 22.9467 30.6533 22.6 29.48 22.6C28.2267 22.6 27.2533 23.0667 26.56 24C25.8667 24.9067 25.4933 26.24 25.44 28L19.56 26.2C19.6133 24.2267 20.08 22.5733 20.96 21.24C21.8667 19.9067 23.0933 18.9067 24.64 18.24C26.1867 17.5467 27.9467 17.2 29.92 17.2C31.6533 17.2 33.1467 17.4533 34.4 17.96C35.68 18.44 36.72 19.0933 37.52 19.92C38.32 20.72 38.9067 21.6267 39.28 22.64C39.68 23.6267 39.88 24.64 39.88 25.68C39.88 27.3867 39.44 28.9867 38.56 30.48C37.68 31.9467 36.4 33.3733 34.72 34.76C33.0667 36.12 31.0533 37.4933 28.68 38.88V38.92C29.1333 38.8933 29.6667 38.8667 30.28 38.84C30.8933 38.8133 31.5333 38.8 32.2 38.8C32.8667 38.7733 33.4667 38.76 34 38.76H40.2V44H20.4Z" fill="white"/>
</svg>
