<svg width="60" height="60" viewBox="0 0 60 60" fill="none" xmlns="http://www.w3.org/2000/svg">
<circle cx="30" cy="30" r="30" fill="#3262D1"/>
<path d="M30.04 44.4C27.2133 44.4 24.8533 43.8533 22.96 42.76C21.0933 41.64 19.8 40.0133 19.08 37.88L25.4 35.16C25.5333 36.12 25.7733 36.8933 26.12 37.48C26.4933 38.04 26.9867 38.4533 27.6 38.72C28.2133 38.96 28.9333 39.08 29.76 39.08C30.5067 39.08 31.1333 38.96 31.64 38.72C32.1733 38.4533 32.5867 38.08 32.88 37.6C33.1733 37.12 33.32 36.5467 33.32 35.88C33.32 35.1867 33.1733 34.6267 32.88 34.2C32.6133 33.7733 32.2133 33.4667 31.68 33.28C31.1733 33.0933 30.5467 33 29.8 33C29.4533 33 29.1333 33.0133 28.84 33.04C28.5467 33.04 28.2133 33.0667 27.84 33.12V28.64C28.0533 28.6667 28.2667 28.6933 28.48 28.72C28.6933 28.72 28.9467 28.72 29.24 28.72C30.4933 28.72 31.3867 28.4667 31.92 27.96C32.48 27.4267 32.76 26.6 32.76 25.48C32.76 24.52 32.48 23.7867 31.92 23.28C31.3867 22.7733 30.6267 22.52 29.64 22.52C28.6 22.52 27.7467 22.8 27.08 23.36C26.4133 23.8933 25.9867 24.8133 25.8 26.12L19.76 24.04C20.0533 22.5733 20.68 21.3333 21.64 20.32C22.6 19.3067 23.8 18.5333 25.24 18C26.7067 17.4667 28.32 17.2 30.08 17.2C32.1067 17.2 33.8133 17.4933 35.2 18.08C36.5867 18.6667 37.64 19.5067 38.36 20.6C39.08 21.6933 39.44 22.9733 39.44 24.44C39.44 25.5867 39.2533 26.5467 38.88 27.32C38.5333 28.0933 38.08 28.72 37.52 29.2C36.9867 29.68 36.44 30.04 35.88 30.28C35.32 30.4933 34.8533 30.6267 34.48 30.68V30.8C34.96 30.8 35.5067 30.8933 36.12 31.08C36.7333 31.2667 37.3333 31.5733 37.92 32C38.5067 32.4 38.9867 32.96 39.36 33.68C39.76 34.4 39.96 35.2933 39.96 36.36C39.96 38.0133 39.52 39.44 38.64 40.64C37.7867 41.84 36.6133 42.7733 35.12 43.44C33.6267 44.08 31.9333 44.4 30.04 44.4Z" fill="white"/>
</svg>
