<svg width="60" height="60" viewBox="0 0 60 60" fill="none" xmlns="http://www.w3.org/2000/svg">
<circle cx="30" cy="30" r="30" fill="#3262D1"/>
<path d="M31.6 44V38.2H18.72V33.88C18.96 33.4533 19.2667 32.9333 19.64 32.32C20.04 31.7067 20.5067 31 21.04 30.2L29.64 17.6H37.68V33.48H41.72V38.2H37.68V44H31.6ZM24.24 33.48H31.68V25.48C31.68 24.9467 31.6933 24.4 31.72 23.84C31.7467 23.2533 31.7733 22.6667 31.8 22.08H31.72C31.4533 22.64 31.1333 23.2267 30.76 23.84C30.4133 24.4267 30.08 24.96 29.76 25.44L25.08 32.28C24.9467 32.4933 24.8133 32.6933 24.68 32.88C24.5467 33.0667 24.4 33.2667 24.24 33.48Z" fill="white"/>
</svg>
