<svg width="60" height="60" viewBox="0 0 60 60" fill="none" xmlns="http://www.w3.org/2000/svg">
<circle cx="30" cy="30" r="30" fill="#3262D1"/>
<path d="M29.44 44.4C27.1467 44.4 25.1467 43.96 23.44 43.08C21.76 42.1733 20.3467 40.7067 19.2 38.68L25.24 35.68C25.5333 36.7467 26 37.6 26.64 38.24C27.3067 38.88 28.2933 39.2 29.6 39.2C30.4267 39.2 31.1333 39.0533 31.72 38.76C32.3067 38.4667 32.76 38.04 33.08 37.48C33.4267 36.8933 33.6 36.1867 33.6 35.36C33.6 34.56 33.44 33.8933 33.12 33.36C32.8267 32.8267 32.3867 32.4267 31.8 32.16C31.2133 31.8667 30.48 31.72 29.6 31.72C28.96 31.72 28.3867 31.7867 27.88 31.92C27.3733 32.0267 26.9067 32.2 26.48 32.44C26.08 32.6533 25.7067 32.9333 25.36 33.28L20.16 32.32L21.84 17.6H38.48V22.92H26.84L26.16 28.2L26.04 28.84H26.08C26.6133 28.2267 27.36 27.76 28.32 27.44C29.28 27.12 30.3467 26.96 31.52 26.96C33.2533 26.96 34.7333 27.3067 35.96 28C37.1867 28.6933 38.1333 29.64 38.8 30.84C39.4667 32.04 39.8 33.4133 39.8 34.96C39.8 36.5867 39.52 38 38.96 39.2C38.4267 40.3733 37.6667 41.3467 36.68 42.12C35.72 42.8933 34.6133 43.4667 33.36 43.84C32.1333 44.2133 30.8267 44.4 29.44 44.4Z" fill="white"/>
</svg>
