<svg width="60" height="60" viewBox="0 0 60 60" fill="none" xmlns="http://www.w3.org/2000/svg">
<circle cx="30" cy="30" r="30" fill="#3262D1"/>
<path d="M30.68 17.2C32.0933 17.2 33.4 17.3867 34.6 17.76C35.8267 18.1333 36.8933 18.7467 37.8 19.6C38.7067 20.4533 39.3867 21.6 39.84 23.04L34.24 25.68C33.9733 24.7467 33.5067 24.0133 32.84 23.48C32.2 22.92 31.3333 22.64 30.24 22.64C29.4933 22.64 28.8 22.8267 28.16 23.2C27.5467 23.5467 27.0133 24.0533 26.56 24.72C26.1067 25.3867 25.76 26.2 25.52 27.16C25.3067 28.12 25.2 29.2 25.2 30.4C25.2 30.48 25.2 30.5733 25.2 30.68C25.2 30.76 25.2 30.88 25.2 31.04L25.28 31.28C25.6 30.48 26.0933 29.8133 26.76 29.28C27.4533 28.72 28.24 28.2933 29.12 28C30 27.7067 30.88 27.56 31.76 27.56C33.3867 27.56 34.84 27.88 36.12 28.52C37.4 29.16 38.4 30.08 39.12 31.28C39.8667 32.4533 40.24 33.88 40.24 35.56C40.24 37.3733 39.8267 38.9467 39 40.28C38.1733 41.5867 37.0267 42.6 35.56 43.32C34.0933 44.04 32.3467 44.4 30.32 44.4C28.0533 44.4 26.0533 43.9067 24.32 42.92C22.6133 41.9067 21.28 40.4133 20.32 38.44C19.3867 36.44 18.92 33.9733 18.92 31.04C18.92 27.8933 19.44 25.3067 20.48 23.28C21.52 21.2533 22.92 19.7333 24.68 18.72C26.4667 17.7067 28.4667 17.2 30.68 17.2ZM30.2 32.2C29.5067 32.2 28.8667 32.3467 28.28 32.64C27.72 32.9067 27.2667 33.3067 26.92 33.84C26.6 34.3733 26.44 35 26.44 35.72C26.44 36.4133 26.6133 37.0267 26.96 37.56C27.3067 38.0933 27.76 38.5067 28.32 38.8C28.88 39.0933 29.5067 39.24 30.2 39.24C31.4 39.24 32.32 38.9333 32.96 38.32C33.6267 37.7067 33.96 36.84 33.96 35.72C33.96 34.9733 33.8133 34.3467 33.52 33.84C33.2267 33.3067 32.8 32.9067 32.24 32.64C31.7067 32.3467 31.0267 32.2 30.2 32.2Z" fill="white"/>
</svg>
