<svg width="211" height="67" viewBox="0 0 211 67" fill="none" xmlns="http://www.w3.org/2000/svg">
<path d="M53.0001 32.2099C50.2301 32.1599 47.7901 30.4499 47.8101 28.5799C47.8301 26.7099 50.0701 25.3799 52.8101 25.4399C55.5501 25.4999 58.0001 27.1999 58.0001 29.0699C58.0001 30.9399 55.7501 32.2699 53.0001 32.2099Z" fill="#B5363A"/>
<path d="M33.23 36.3501C30.57 36.3501 29.09 35.2201 29.12 33.3501C29.12 31.2901 31.46 29.6201 34.22 29.6501C36.51 29.6501 38.47 31.1301 38.44 32.7901C38.44 34.7001 35.92 36.4201 33.23 36.3901" fill="#B5363A"/>
<path d="M15.61 34.8001C14.34 34.8001 12.84 34.8001 12.74 32.8001C12.64 30.8001 15.22 28.8001 17.74 28.9101C19.22 28.9101 20.67 29.3101 20.67 31.2301C20.67 32.9901 18.2 34.7801 15.61 34.8501" fill="#B5363A"/>
<path d="M4.91 29.2901C3.83 29.2301 2.76 29.1001 2.91 27.6301C3.06 26.1601 5.81 24.4701 7.78 24.5201C8.89 24.5201 9.91 24.7301 9.78 26.1901C9.65 27.6501 6.95 29.3701 4.94 29.2901" fill="#B5363A"/>
<path d="M26.3001 0.380033C26.4101 0.770033 25.8001 1.28003 24.9401 1.53003C24.0801 1.78003 23.2901 1.66003 23.1801 1.27003C23.0701 0.880033 23.6801 0.370033 24.5401 0.130033C25.4001 -0.109967 26.1901 3.25143e-05 26.3001 0.380033Z" fill="#B5363A"/>
<path d="M18.28 3.66994C18.46 4.16994 17.78 4.85994 16.78 5.20994C15.78 5.55994 14.78 5.44994 14.64 4.95994C14.5 4.46994 15.14 3.76994 16.14 3.41994C17.14 3.06994 18.14 3.17994 18.28 3.66994Z" fill="#B5363A"/>
<path d="M11.63 7.99997C11.82 8.54997 11.08 9.29997 9.97997 9.68997C8.87997 10.08 7.81997 9.99997 7.62997 9.44997C7.43997 8.89997 8.17997 8.14998 9.27997 7.75998C10.38 7.36998 11.44 7.49997 11.63 8.03997" fill="#B5363A"/>
<path d="M6.90995 13.35C7.16995 13.96 6.35995 14.88 5.10995 15.4C3.85995 15.92 2.63995 15.84 2.38995 15.23C2.13995 14.62 2.93995 13.69 4.18995 13.17C5.43995 12.65 6.64995 12.73 6.90995 13.35Z" fill="#B5363A"/>
<path d="M5.92996 19.0999C6.31995 19.8899 5.33996 21.1699 3.73996 21.9599C2.13996 22.7499 0.539955 22.7499 0.139955 21.9599C-0.260045 21.1699 0.729955 19.8999 2.32996 19.1099C3.92996 18.3199 5.53996 18.3099 5.92996 19.1099" fill="#B5363A"/>
<path d="M4.76 60.15L2.67 66.4499H0L6.81 46.45H9.93L16.77 66.4499H14L11.86 60.15H4.76ZM11.32 58.15L9.32 52.38C8.88 51.08 8.58 49.88 8.32 48.7299H8.26C7.96 49.92 7.64 51.1299 7.26 52.3499L5.26 58.15H11.32Z" fill="#474747"/>
<path d="M19.71 66.4499V46.4499H22.53L29 56.5499C30.3452 58.6364 31.548 60.8113 32.6 63.0599H32.66C32.42 60.3899 32.36 57.9499 32.36 54.8299V46.4199H34.8V66.4199H32.14L25.77 56.2899C24.3815 54.1368 23.1226 51.9028 22 49.5999H21.91C22.06 52.1199 22.12 54.5299 22.12 57.8599V66.4199L19.71 66.4499Z" fill="#474747"/>
<path d="M39.27 46.68C41.0908 46.4085 42.9291 46.2715 44.77 46.27C48.49 46.27 51.13 47.13 52.88 48.77C53.8475 49.6981 54.6017 50.8253 55.0903 52.0737C55.579 53.3221 55.7904 54.6618 55.71 56C55.7801 57.4264 55.5601 58.8522 55.0634 60.1912C54.5666 61.5302 53.8035 62.7544 52.82 63.79C50.95 65.66 47.82 66.67 43.97 66.67C42.4003 66.6784 40.8314 66.6017 39.27 66.44V46.68ZM41.85 64.4C42.718 64.5197 43.5941 64.5699 44.47 64.55C50 64.55 53 61.46 53 56.05C53 51.32 50.36 48.32 44.89 48.32C43.8834 48.3063 42.878 48.3968 41.89 48.59L41.85 64.4Z" fill="#474747"/>
<path d="M69.4399 57.06H61.6499V64.2799H70.3299V66.4499H59.0699V46.45H69.8899V48.6199H61.6499V54.95H69.4399V57.06Z" fill="#474747"/>
<path d="M73.6899 46.6801C75.34 46.3865 77.0141 46.2492 78.6899 46.2701C81.4599 46.2701 83.2399 46.7701 84.4899 47.9001C84.9952 48.3914 85.3909 48.9838 85.6512 49.6387C85.9114 50.2936 86.0302 50.9961 85.9999 51.7001C86.0141 52.8489 85.6524 53.9709 84.9701 54.8952C84.2877 55.8194 83.322 56.4954 82.2199 56.8201V56.9101C83.7699 57.4401 84.6899 58.9101 85.2199 60.9101C85.5663 62.7862 86.0817 64.627 86.7599 66.4101H84.0699C83.4689 64.8607 83.0201 63.2565 82.7299 61.6201C82.1299 58.8601 81.0699 57.8201 78.7299 57.7301H76.2799V66.4101H73.6899V46.6801ZM76.2799 55.8101H78.9199C81.6899 55.8101 83.4399 54.3001 83.4399 52.0101C83.4399 49.4201 81.5699 48.2901 78.8299 48.2701C77.9737 48.2415 77.1172 48.3187 76.2799 48.5001V55.8101Z" fill="#474747"/>
<path d="M89.33 63.3C90.7401 64.1497 92.3537 64.6024 94 64.61C96.64 64.61 98.19 63.21 98.19 61.19C98.19 59.32 97.12 58.25 94.41 57.19C91.14 56.03 89.12 54.33 89.12 51.51C89.12 48.39 91.71 46.07 95.6 46.07C97.1371 46.027 98.6604 46.3709 100.03 47.07L99.32 49.18C98.154 48.5413 96.8493 48.198 95.52 48.18C92.78 48.18 91.74 49.82 91.74 51.18C91.74 53.06 92.96 53.98 95.74 55.05C99.13 56.35 100.86 57.99 100.86 60.93C100.86 63.87 98.57 66.7 93.86 66.7C92.0749 66.7203 90.3148 66.2794 88.75 65.42L89.33 63.3Z" fill="#474747"/>
<path d="M124.64 65.8001C122.968 66.5059 121.164 66.8468 119.35 66.8001C113.7 66.8001 109.45 63.2301 109.45 56.6601C109.45 50.3901 113.7 46.1401 119.91 46.1401C121.544 46.0723 123.171 46.3767 124.67 47.0301L124.05 49.1401C122.794 48.5736 121.428 48.2902 120.05 48.3101C115.35 48.3101 112.24 51.3101 112.24 56.5701C112.24 61.4701 115.06 64.6301 119.94 64.6301C121.389 64.6499 122.826 64.3673 124.16 63.8001L124.64 65.8001Z" fill="#474747"/>
<path d="M131.24 60.15L129.16 66.4499H126.49L133.29 46.45H136.41L143.25 66.4499H140.49L138.35 60.15H131.24ZM137.81 58.15L135.81 52.38C135.36 51.07 135.07 49.88 134.81 48.72H134.75C134.45 49.91 134.12 51.1299 133.75 52.3499L131.75 58.15H137.81Z" fill="#474747"/>
<path d="M146.2 46.6601C147.852 46.3882 149.525 46.2577 151.2 46.2701C153.76 46.2701 155.63 46.8601 156.82 47.9301C157.398 48.46 157.854 49.1091 158.156 49.8326C158.458 50.5561 158.599 51.3366 158.57 52.1201C158.604 52.9034 158.483 53.6858 158.214 54.4221C157.944 55.1584 157.532 55.834 157 56.4101C156.179 57.1699 155.212 57.7556 154.159 58.1319C153.105 58.5083 151.987 58.6676 150.87 58.6001C150.172 58.6285 149.474 58.5714 148.79 58.4301V66.4301H146.2V46.6601ZM148.78 56.3201C149.483 56.4701 150.201 56.5405 150.92 56.5301C154.04 56.5301 155.92 55.0101 155.92 52.2401C155.92 49.4701 154.04 48.3201 151.19 48.3201C150.371 48.2997 149.553 48.3701 148.75 48.5301L148.78 56.3201Z" fill="#474747"/>
<path d="M164.6 46.4199H162.01V66.4499H164.6V46.4199Z" fill="#474747"/>
<path d="M172.92 48.6199H166.82V46.4199H181.66V48.6199H175.54V66.4499H172.92V48.6199Z" fill="#474747"/>
<path d="M184.9 60.15L182.82 66.4499H180.14L186.95 46.45H190.07L196.91 66.4499H194.14L192 60.15H184.9ZM191.47 58.15L189.47 52.38C189.02 51.07 188.72 49.88 188.47 48.72H188.41C188.11 49.91 187.78 51.1299 187.41 52.3499L185.41 58.15H191.47Z" fill="#474747"/>
<path d="M199.85 46.4199H202.44V64.2799H211V66.4499H199.85V46.4199Z" fill="#474747"/>
</svg>
