<svg width="245" height="40" viewBox="0 0 245 40" fill="none" xmlns="http://www.w3.org/2000/svg">
<path d="M121.344 0H124.811V40H121.344V0Z" fill="#2C4DCA"/>
<path d="M26.5481 22.6588V31.4671L30.1348 31.4563L30.192 22.6588C30.2028 21.8851 30.4155 21.129 30.8076 20.4703C31.1999 19.8116 31.757 19.2749 32.42 18.9171V14.9529C30.7587 15.3909 29.2832 16.383 28.2217 17.7761C27.1604 19.169 26.5721 20.8851 26.5481 22.6588Z" fill="#1F1F1F"/>
<path d="M42.0363 22.6588C42.0108 20.8989 41.4305 19.1958 40.3837 17.8084C39.337 16.4211 37.8811 15.4254 36.2373 14.9727V18.9332C36.8935 19.2927 37.444 19.8283 37.8312 20.4838C38.2183 21.1394 38.4277 21.8907 38.4375 22.6588C38.4375 31.4563 38.4653 31.4563 38.4653 31.4563H42.1091L42.0363 22.6588Z" fill="#1F1F1F"/>
<path d="M12.6252 18.3499H7.59314V21.5815H12.6252V18.3499Z" fill="#1F1F1F"/>
<path d="M62.6051 28.0449H58.8623V31.3485H62.6051V28.0449Z" fill="#1F1F1F"/>
<path d="M103.255 17.5131C101.583 15.853 99.4577 15.0228 96.8781 15.0228C96.206 15.0166 95.535 15.0767 94.8739 15.2024V18.4341C95.4178 18.2927 95.9756 18.2168 96.5362 18.2079C98.2541 18.2079 99.6029 18.7154 100.583 19.7304C101.454 20.6497 101.889 21.8514 101.889 23.3357C101.903 24.0052 101.78 24.6704 101.526 25.2866C101.273 25.903 100.896 26.4565 100.42 26.9103C99.3969 27.9241 98.0482 28.4315 96.3732 28.4328C94.8069 28.4328 93.5015 27.8941 92.4569 26.817C91.4782 25.8199 90.9889 24.6965 90.9889 23.447V8.51807H87.2461V23.6947C87.2461 25.8635 88.1357 27.729 89.9149 29.291C91.694 30.853 93.8416 31.6346 96.3576 31.6358C99.0042 31.6358 101.211 30.8105 102.979 29.1599C104.746 27.5093 105.63 25.462 105.63 23.0178C105.63 20.8908 104.838 19.0559 103.255 17.5131Z" fill="#1F1F1F"/>
<path d="M21.4623 15.8235H17.7213V31.4705H21.4623V15.8235Z" fill="#1F1F1F"/>
<path d="M21.4033 8.51807H17.645V12.407H21.4033V8.51807Z" fill="#1F1F1F"/>
<path d="M7.66772 19.1019C8.30166 19.0272 8.90272 18.7702 9.40289 18.3604H7.66772V19.1019Z" fill="#1F1F1F"/>
<path d="M54.6215 19.1128C55.6641 19.188 56.6578 19.5986 57.4638 20.2869C58.2118 21.0262 58.6728 22.023 58.7599 23.0896L62.5981 23.1488C62.4801 18.6944 58.9542 15.2347 54.6163 15.1215C53.109 15.0847 51.6363 15.5926 50.4519 16.5579V23.1488L50.7989 23.1973C50.6792 20.5509 52.2721 18.9907 54.6215 19.1128Z" fill="#1F1F1F"/>
<path d="M50.7989 8.47485H47.155V31.4561H50.7989V8.47485Z" fill="#1F1F1F"/>
<path d="M62.5981 23.0178H58.7808V24.2746H62.5981V23.0178Z" fill="#1F1F1F"/>
<path d="M58.7599 22.9963V24.298H62.5981V22.9963H58.7599ZM58.7807 24.2747L58.8032 23.0413H62.5773V24.2532L58.7807 24.2747Z" fill="#1F1F1F"/>
<path d="M6.90088 8.5415V12.4249H12.8005V8.5415H6.90088Z" fill="#1F1F1F"/>
<path d="M6.64397 8.53426C3.24997 8.51811 0.232513 10.836 0 14.3442V14.4932L3.77574 15.2976C3.82952 13.7284 5.27665 12.4249 7.26516 12.4249C7.30507 12.4249 7.34151 12.4249 7.37969 12.4249H12.7986C12.2221 11.2498 11.3413 10.2637 10.2545 9.57662C9.16761 8.88957 7.91758 8.52869 6.64397 8.53426Z" fill="#1F1F1F"/>
<path d="M0.00173517 14.3997V16.5542H0V31.4687H3.78787V14.3997H0.00173517Z" fill="#1F1F1F"/>
<path d="M82.7139 23.5565L82.6809 14.741L79.0943 14.759L79.0718 23.5565C79.0645 24.3303 78.8549 25.0876 78.465 25.7479C78.0752 26.4083 77.5197 26.9471 76.8577 27.3071L76.8681 31.2767C78.5268 30.8331 79.9982 29.8365 81.0548 28.4411C82.1114 27.0457 82.6944 25.3291 82.7139 23.5565Z" fill="#1F1F1F"/>
<path d="M67.2292 23.6121C67.2589 25.3718 67.8438 27.0732 68.8948 28.4569C69.9458 29.8407 71.4052 30.8309 73.0506 31.2767L73.0368 27.316C72.3794 26.9591 71.8269 26.4258 71.4373 25.7718C71.0479 25.1179 70.8355 24.3675 70.8227 23.5995C70.7897 14.802 70.762 14.802 70.762 14.802L67.1182 14.8164L67.2292 23.6121Z" fill="#1F1F1F"/>
<path d="M148.881 31.0472C147.54 31.0472 146.287 30.8025 145.125 30.313C143.984 29.8236 142.982 29.1099 142.121 28.1719C141.279 27.2339 140.608 26.0816 140.108 24.7154C139.627 23.3287 139.386 21.7483 139.386 19.9742C139.386 18.2001 139.647 16.6299 140.168 15.2636C140.709 13.8769 141.419 12.7146 142.301 11.7766C143.183 10.8385 144.204 10.135 145.366 9.666C146.527 9.17659 147.74 8.93188 149.002 8.93188C149.783 8.93188 150.494 8.98286 151.135 9.08483C151.776 9.18678 152.337 9.31933 152.818 9.48246C153.298 9.62521 153.709 9.77816 154.049 9.9413C154.39 10.084 154.65 10.2166 154.831 10.3389L154.17 12.1436C153.669 11.8378 153.028 11.5421 152.247 11.2566C151.485 10.9507 150.534 10.7978 149.392 10.7978C148.09 10.7978 146.948 11.0221 145.967 11.4707C145.005 11.9193 144.194 12.5515 143.533 13.3672C142.872 14.1828 142.372 15.1515 142.031 16.273C141.711 17.3946 141.55 18.6386 141.55 20.0048C141.55 21.4119 141.711 22.6863 142.031 23.8283C142.372 24.9499 142.862 25.9083 143.503 26.7036C144.144 27.4989 144.926 28.1107 145.847 28.5389C146.788 28.9672 147.86 29.1813 149.062 29.1813C150.384 29.1813 151.485 29.0589 152.367 28.8142C153.268 28.5492 153.949 28.284 154.41 28.0189L154.981 29.793C154.841 29.895 154.601 30.0174 154.26 30.1601C153.919 30.2825 153.489 30.415 152.968 30.5578C152.447 30.7005 151.846 30.8127 151.165 30.8942C150.484 30.9962 149.723 31.0472 148.881 31.0472Z" fill="#1F1F1F"/>
<path d="M165.719 29.1505C166.48 29.1505 167.141 29.1302 167.703 29.0893C168.283 29.0282 168.774 28.9567 169.175 28.8752V23.3082C168.954 23.2062 168.604 23.1043 168.123 23.0023C167.642 22.8799 166.981 22.8187 166.14 22.8187C165.659 22.8187 165.158 22.8596 164.638 22.9411C164.117 23.0023 163.636 23.1552 163.195 23.3999C162.754 23.6243 162.393 23.9403 162.114 24.3482C161.833 24.756 161.693 25.2964 161.693 25.9693C161.693 26.5607 161.783 27.0603 161.964 27.4682C162.163 27.876 162.434 28.2023 162.775 28.447C163.135 28.6917 163.556 28.8752 164.037 28.9976C164.537 29.0996 165.098 29.1505 165.719 29.1505ZM165.539 14.407C166.561 14.407 167.422 14.5599 168.123 14.8658C168.844 15.1513 169.424 15.5591 169.866 16.0893C170.306 16.5991 170.626 17.2109 170.827 17.9246C171.027 18.6384 171.128 19.4132 171.128 20.2493V30.2211C170.927 30.2823 170.637 30.3537 170.257 30.4352C169.875 30.4964 169.435 30.5678 168.934 30.6493C168.433 30.7309 167.872 30.792 167.252 30.8329C166.651 30.894 166.029 30.9246 165.389 30.9246C164.567 30.9246 163.806 30.8329 163.105 30.6493C162.423 30.4658 161.823 30.1803 161.302 29.7929C160.801 29.385 160.401 28.8752 160.101 28.2635C159.82 27.6313 159.68 26.8666 159.68 25.9693C159.68 25.1129 159.839 24.3787 160.161 23.767C160.481 23.1552 160.932 22.6556 161.513 22.2682C162.093 21.8603 162.784 21.5646 163.586 21.3811C164.387 21.1976 165.258 21.1058 166.2 21.1058C166.48 21.1058 166.771 21.1262 167.072 21.167C167.392 21.1873 167.692 21.2282 167.973 21.2893C168.273 21.3302 168.523 21.3811 168.724 21.4423C168.944 21.4831 169.094 21.5238 169.175 21.5646V20.5858C169.175 20.0352 169.134 19.505 169.055 18.9952C168.974 18.465 168.793 17.996 168.514 17.5882C168.253 17.1599 167.872 16.8235 167.372 16.5787C166.891 16.3137 166.25 16.1811 165.449 16.1811C164.307 16.1811 163.455 16.2626 162.895 16.4258C162.333 16.589 161.923 16.7215 161.663 16.8235L161.393 15.0799C161.732 14.9167 162.254 14.7638 162.955 14.6211C163.676 14.4784 164.537 14.407 165.539 14.407Z" fill="#1F1F1F"/>
<path d="M180.466 27.7436C180.646 27.8863 180.867 28.0392 181.127 28.2024C181.407 28.3656 181.728 28.5185 182.088 28.6612C182.449 28.8039 182.839 28.9263 183.26 29.0283C183.681 29.1098 184.122 29.1506 184.582 29.1506C185.544 29.1506 186.346 28.9874 186.986 28.6612C187.647 28.3145 188.179 27.8557 188.578 27.2847C188.979 26.6933 189.269 26.0103 189.45 25.2353C189.63 24.44 189.72 23.6039 189.72 22.7271C189.72 20.6471 189.209 19.0565 188.188 17.9553C187.166 16.8338 185.814 16.273 184.131 16.273C183.17 16.273 182.389 16.3239 181.788 16.4259C181.208 16.5074 180.766 16.5992 180.466 16.7012V27.7436ZM180.466 36.2471H178.513V15.3247C179.094 15.1208 179.835 14.9271 180.736 14.7436C181.637 14.56 182.779 14.4683 184.161 14.4683C185.303 14.4683 186.335 14.662 187.256 15.0494C188.198 15.4165 188.999 15.9568 189.66 16.6706C190.342 17.3844 190.862 18.251 191.223 19.2706C191.604 20.2903 191.793 21.4424 191.793 22.7271C191.793 23.9303 191.634 25.0416 191.313 26.0612C191.012 27.0604 190.561 27.9271 189.961 28.6612C189.36 29.375 188.619 29.9357 187.737 30.3436C186.876 30.7514 185.885 30.9553 184.762 30.9553C183.741 30.9553 182.85 30.8126 182.088 30.5271C181.347 30.2212 180.807 29.9357 180.466 29.6706V36.2471Z" fill="#1F1F1F"/>
<path d="M200.387 30.5882H198.434V14.7741H200.387V30.5882ZM200.838 10.0023C200.838 10.4713 200.698 10.8486 200.417 11.1341C200.137 11.3992 199.796 11.5317 199.395 11.5317C198.996 11.5317 198.655 11.3992 198.374 11.1341C198.094 10.8486 197.953 10.4713 197.953 10.0023C197.953 9.5333 198.094 9.16624 198.374 8.90114C198.655 8.61565 198.996 8.4729 199.395 8.4729C199.796 8.4729 200.137 8.61565 200.417 8.90114C200.698 9.16624 200.838 9.5333 200.838 10.0023Z" fill="#1F1F1F"/>
<path d="M209.801 14.774H215.991V16.4564H209.801V24.8682C209.801 25.7655 209.871 26.4996 210.011 27.0705C210.172 27.6211 210.393 28.0493 210.672 28.3552C210.953 28.6611 211.294 28.865 211.694 28.967C212.095 29.069 212.535 29.1199 213.016 29.1199C213.838 29.1199 214.499 29.0282 214.999 28.8446C215.501 28.6407 215.891 28.4572 216.171 28.294L216.652 29.9458C216.372 30.1293 215.881 30.3435 215.179 30.5882C214.479 30.8125 213.717 30.9246 212.896 30.9246C211.934 30.9246 211.123 30.8023 210.462 30.5576C209.822 30.2925 209.301 29.905 208.9 29.3952C208.519 28.865 208.249 28.2125 208.088 27.4376C207.929 26.6626 207.848 25.745 207.848 24.6846V10.1246L209.801 9.75757V14.774Z" fill="#1F1F1F"/>
<path d="M226.89 29.1505C227.651 29.1505 228.312 29.1302 228.873 29.0893C229.454 29.0282 229.944 28.9567 230.345 28.8752V23.3082C230.124 23.2062 229.774 23.1043 229.293 23.0023C228.813 22.8799 228.152 22.8187 227.31 22.8187C226.829 22.8187 226.329 22.8596 225.808 22.9411C225.287 23.0023 224.806 23.1552 224.366 23.3999C223.925 23.6243 223.565 23.9403 223.284 24.3482C223.003 24.756 222.863 25.2964 222.863 25.9693C222.863 26.5607 222.953 27.0603 223.134 27.4682C223.334 27.876 223.604 28.2023 223.945 28.447C224.306 28.6917 224.726 28.8752 225.207 28.9976C225.707 29.0996 226.269 29.1505 226.89 29.1505ZM226.709 14.407C227.731 14.407 228.592 14.5599 229.293 14.8658C230.014 15.1513 230.596 15.5591 231.036 16.0893C231.476 16.5991 231.798 17.2109 231.998 17.9246C232.198 18.6384 232.298 19.4132 232.298 20.2493V30.2211C232.098 30.2823 231.807 30.3537 231.427 30.4352C231.046 30.4964 230.605 30.5678 230.105 30.6493C229.604 30.7309 229.043 30.792 228.422 30.8329C227.821 30.894 227.2 30.9246 226.559 30.9246C225.737 30.9246 224.977 30.8329 224.275 30.6493C223.595 30.4658 222.994 30.1803 222.473 29.7929C221.972 29.385 221.571 28.8752 221.271 28.2635C220.99 27.6313 220.85 26.8666 220.85 25.9693C220.85 25.1129 221.011 24.3787 221.331 23.767C221.651 23.1552 222.102 22.6556 222.683 22.2682C223.264 21.8603 223.955 21.5646 224.756 21.3811C225.557 21.1976 226.428 21.1058 227.37 21.1058C227.651 21.1058 227.941 21.1262 228.242 21.167C228.562 21.1873 228.862 21.2282 229.143 21.2893C229.444 21.3302 229.694 21.3811 229.894 21.4423C230.115 21.4831 230.265 21.5238 230.345 21.5646V20.5858C230.345 20.0352 230.305 19.505 230.225 18.9952C230.145 18.465 229.965 17.996 229.684 17.5882C229.424 17.1599 229.043 16.8235 228.542 16.5787C228.061 16.3137 227.42 16.1811 226.619 16.1811C225.477 16.1811 224.626 16.2626 224.065 16.4258C223.505 16.589 223.093 16.7215 222.833 16.8235L222.563 15.0799C222.904 14.9167 223.424 14.7638 224.125 14.6211C224.846 14.4784 225.707 14.407 226.709 14.407Z" fill="#1F1F1F"/>
<path d="M243.62 30.8636C242.959 30.8432 242.378 30.7514 241.877 30.5883C241.397 30.4456 240.985 30.2212 240.645 29.9153C240.324 29.5891 240.075 29.1812 239.894 28.6918C239.734 28.182 239.654 27.5498 239.654 26.7953V7.21885L241.607 6.85181V26.7341C241.607 27.2236 241.646 27.6212 241.727 27.9271C241.827 28.2126 241.968 28.4471 242.148 28.6306C242.328 28.7938 242.558 28.9161 242.839 28.9977C243.139 29.0792 243.49 29.1506 243.891 29.2118L243.62 30.8636Z" fill="#1F1F1F"/>
</svg>
