<svg width="871" height="558" viewBox="0 0 871 558" fill="none" xmlns="http://www.w3.org/2000/svg">
<path d="M570.37 254.505C570.261 254.217 570.107 253.949 569.912 253.711C569.669 253.64 569.418 253.605 569.166 253.606C568.913 253.606 568.664 253.575 568.415 253.54C567.507 253.363 566.637 253.033 565.84 252.563C565.284 252.213 564.664 251.977 564.016 251.869C562.615 251.756 561.437 253.431 560.293 255.02L559.988 255.456C559.006 256.8 557.129 258.45 555.052 258.66C554.515 258.727 553.97 258.676 553.454 258.509C552.939 258.342 552.467 258.064 552.071 257.695C551.793 257.426 551.538 257.134 551.308 256.822C551.172 256.624 551.014 256.442 550.837 256.281C550.837 256.281 550.631 256.333 550.505 256.36C550.005 256.493 549.483 256.518 548.973 256.434C547.385 256.093 546.909 254.631 546.595 253.663C546.517 253.408 546.425 253.157 546.32 252.912C546.222 252.705 546.081 252.521 545.905 252.374C545.73 252.227 545.524 252.12 545.303 252.061C544.159 251.694 542.278 252.039 540.742 252.899L540.075 253.274C537.622 254.671 534.572 256.412 531.573 255.02C530.602 254.513 529.734 253.831 529.012 253.008C528.623 252.586 528.2 252.198 527.746 251.847C527.509 251.689 527.241 251.581 526.96 251.532C526.679 251.482 526.391 251.491 526.114 251.559L525.446 251.424C525.643 252.623 525.503 253.853 525.04 254.976C524.259 256.866 522.754 258.031 521.296 259.196C520.584 259.725 519.914 260.309 519.293 260.942C518.241 262.072 517.547 263.525 516.797 265.066C516.213 266.371 515.516 267.622 514.715 268.806C514.014 269.785 513.115 270.606 512.077 271.216C511.039 271.827 509.885 272.213 508.688 272.35C508.133 272.397 507.574 272.358 507.03 272.236L506.99 272.345C506.374 273.793 505.214 274.941 503.761 275.544C502.859 275.895 501.925 276.159 500.973 276.334C500.116 276.483 499.279 276.728 498.476 277.063C497.771 277.398 497.226 277.999 496.962 278.734C496.911 278.861 496.891 278.997 496.902 279.133C496.913 279.268 496.956 279.399 497.027 279.515L497.8 280.737L496.556 281.471C496.031 281.793 495.427 281.965 494.81 281.968C493.396 281.968 492.061 281.152 490.987 280.397C491.275 281.27 491.515 282.182 491.742 283.059C492.515 286.005 493.248 288.789 495.386 289.815L496.259 290.251C499.55 290.548 502.587 291.875 505.52 293.227L506.65 293.747C509.871 295.204 513.633 296.588 516.993 295.702C517.892 295.446 518.724 294.998 519.434 294.39C520.143 293.783 520.713 293.029 521.104 292.18C521.364 291.665 521.504 291.098 521.513 290.521C521.521 289.944 521.398 289.372 521.152 288.85L520.161 286.908L534.951 286.245C535.562 286.255 536.17 286.168 536.754 285.987C538.128 285.429 538.704 283.513 539.32 281.484C540.118 278.835 541.026 275.837 544.177 275.326C544.829 275.245 545.489 275.245 546.141 275.326C546.769 275.387 547.31 275.444 547.629 275.269C547.97 275.004 548.252 274.671 548.458 274.292C548.708 273.894 548.991 273.519 549.305 273.17C551.587 270.722 555.297 271.372 557.784 272.668C558.478 273.03 559.15 273.449 559.822 273.864C561.197 274.737 562.497 275.522 563.898 275.758C565.465 276.029 567.114 275.575 568.869 275.099C569.818 274.824 570.781 274.596 571.754 274.418C573.555 274.114 575.405 274.366 577.06 275.138C577.091 275.042 577.121 274.929 577.152 274.842C578.225 271.56 579.399 268.295 580.604 265.083C576.118 262.785 572.519 259.065 570.37 254.505Z" fill="#D33F79"/>
<path d="M428.712 246.035C433.018 256.719 439.263 266.516 447.132 274.929L447.351 275.161L447.809 274.152C449.921 275.108 452.317 276.19 454.66 276.173H454.691C456.611 276.173 458.92 275.091 459.417 273.162C459.544 272.514 459.592 271.853 459.561 271.194C459.48 270.006 459.659 268.814 460.085 267.702C460.757 266.192 462.188 265.023 464.218 264.325C466.49 263.584 468.925 263.501 471.242 264.086C473.559 264.672 475.663 265.901 477.31 267.632C477.997 268.411 478.637 269.23 479.226 270.085C480.382 271.7 481.473 273.227 483.036 273.747C483.464 273.875 483.902 273.971 484.345 274.035C484.964 274.127 485.575 274.273 486.169 274.471C487.285 274.87 488.268 275.573 489.006 276.5C490.01 276.606 490.973 276.955 491.812 277.517L492.095 277.727C492.717 278.215 493.391 278.635 494.103 278.979C494.112 278.624 494.168 278.272 494.269 277.932C494.512 277.186 494.905 276.498 495.422 275.909C495.94 275.32 496.572 274.843 497.28 274.506C498.274 274.076 499.316 273.764 500.383 273.576C501.164 273.431 501.93 273.218 502.674 272.939C503.423 272.625 504.029 272.045 504.376 271.311C504.435 271.182 504.466 271.041 504.466 270.899C504.466 270.757 504.435 270.616 504.376 270.487L500.885 263.024L506.628 268.916C506.864 269.15 507.151 269.328 507.466 269.434C507.782 269.541 508.118 269.574 508.448 269.531C509.233 269.421 509.989 269.153 510.668 268.744C511.348 268.334 511.937 267.791 512.402 267.148C513.107 266.093 513.721 264.981 514.239 263.823C515.037 262.164 515.862 260.449 517.206 259.022C517.926 258.286 518.703 257.608 519.528 256.993C520.754 256.028 521.915 255.121 522.417 253.912C523.351 251.638 521.95 248.841 518.132 245.358C514.313 241.876 510.394 238.301 506.126 235.351C504.991 234.566 503.791 233.872 502.761 234.077C501.81 234.265 500.92 235.194 499.981 236.176C498.594 237.621 496.87 239.414 494.387 238.795L492.501 238.301L493.57 236.669C493.592 236.469 493.108 235.871 492.523 235.797C491.844 235.733 491.159 235.766 490.49 235.897C489.805 236.014 489.111 236.071 488.417 236.067C487.755 236.048 487.104 235.894 486.504 235.615C485.904 235.336 485.367 234.937 484.925 234.444C484.856 234.356 484.79 234.269 484.729 234.177C482.958 234.925 481.033 235.236 479.117 235.085L478.178 235.011L477.895 234.138C477.394 232.57 477.071 230.951 476.93 229.311C475.308 230.02 473.546 230.355 471.776 230.289L470.24 230.228L470.441 228.705C470.978 224.677 468.303 220.413 464.515 218.951L464.475 219.152L444.095 226.863C441.617 227.862 439.074 228.692 436.484 229.346C432.043 230.372 427.427 230.372 422.986 229.346C423.304 230.337 423.619 231.332 423.929 232.323C425.399 236.818 426.896 241.535 428.712 246.035Z" fill="#797979"/>
<path d="M437.414 318.426L438.038 317.824L451.837 322.759C453.369 323.305 454.84 323.759 455.983 323.322C456.227 323.204 456.438 323.028 456.598 322.81C456.759 322.592 456.864 322.338 456.904 322.07C456.952 321.712 456.826 321.634 456.782 321.586L450.201 316.711L458.056 319.137C461.863 320.295 465.961 320.018 469.577 318.36C470.105 318.112 470.625 317.837 471.144 317.562C472.33 316.878 473.591 316.332 474.902 315.934C478.197 315.061 481.408 315.899 484.642 317.243C484.29 314.743 484.523 312.195 485.321 309.8C486.12 307.405 487.464 305.228 489.246 303.44C487.983 302.622 486.904 301.551 486.078 300.293C484.839 298.268 484.62 295.113 486.658 293.25L487.095 292.848L487.693 292.887C489.488 292.994 491.257 292.416 492.642 291.268C490.547 289.409 489.761 286.42 489.059 283.731C488.721 282.194 488.215 280.698 487.549 279.271L485.14 278.905C485.23 278.341 485.492 277.818 485.89 277.408C485.69 277.283 485.478 277.178 485.258 277.094C484.814 276.955 484.36 276.855 483.9 276.793C483.309 276.706 482.726 276.575 482.155 276.4C479.728 275.592 478.253 273.533 476.953 271.713C476.433 270.951 475.866 270.222 475.255 269.531C473.982 268.193 472.356 267.244 470.566 266.791C468.776 266.339 466.895 266.402 465.139 266.973C464.41 267.222 463.114 267.803 462.647 268.846C462.402 269.595 462.308 270.386 462.372 271.172C462.406 272.07 462.327 272.969 462.137 273.847C461.264 277.159 457.773 278.927 454.718 278.957C452.252 279.062 449.917 278.15 447.831 277.212L434.564 277.648C434.251 278.91 433.68 280.094 432.886 281.126C432.093 282.157 431.096 283.013 429.956 283.64C430.955 287.065 431.105 290.683 430.392 294.179L430.021 296.008L428.367 295.135C424.649 293.18 420.255 294.061 415.602 294.991C413.975 295.318 412.351 295.641 410.758 295.864C407.485 296.3 404.212 296.169 401.048 296.064L373.555 295.135C374.776 296.74 375.846 298.453 376.753 300.254C377.028 300.795 377.295 301.358 377.565 301.925C379.141 305.211 380.768 308.611 383.784 309.401L384.094 309.48C384.867 309.644 385.599 309.96 386.25 310.409C386.303 309.851 386.5 309.316 386.822 308.857C387.144 308.398 387.58 308.031 388.087 307.791C389.985 306.892 391.578 308.131 392.778 309.034C393.197 309.381 393.649 309.687 394.127 309.947C395.362 310.531 396.745 309.907 398.823 308.816C400.42 307.987 402.222 307.071 404.19 307.036H404.269C406.626 307.036 408.633 308.41 410.125 309.405L422.441 317.697C423.257 318.247 424.099 318.814 424.946 318.95C425.985 319.111 427.298 318.688 428.568 318.273C430.615 317.597 433.168 316.768 435.201 318.587C435.646 318.999 436.011 319.489 436.28 320.032C436.566 319.437 436.949 318.894 437.414 318.426Z" fill="#D33F79"/>
<path d="M461.385 182.332C461.748 183.366 462.114 184.401 462.45 185.444C465.619 195.319 466.483 205.788 464.977 216.049C469.778 217.581 473.238 222.364 473.334 227.361C474.824 227.177 476.244 226.622 477.463 225.746L479.754 224.092L479.684 226.915C479.639 228.721 479.851 230.524 480.313 232.27C481.929 232.229 483.507 231.762 484.886 230.917L487.505 229.303L487.003 232.357C487.003 232.397 486.981 232.475 487.107 232.624C487.48 233.002 487.986 233.221 488.517 233.235C489.057 233.229 489.595 233.18 490.127 233.091C491.078 232.909 492.052 232.878 493.012 232.999C493.687 233.122 494.323 233.405 494.867 233.824C495.411 234.243 495.846 234.786 496.137 235.408C496.196 235.538 496.246 235.672 496.285 235.809C496.904 235.348 497.474 234.824 497.987 234.247C499.13 233.051 500.431 231.694 502.246 231.332C504.319 230.896 506.174 231.969 507.754 233.056C512.175 236.111 516.181 239.763 520.056 243.294C521.117 244.267 523.486 246.436 524.73 249.146C524.871 249.066 525.016 248.996 525.167 248.937C525.87 248.712 526.615 248.653 527.344 248.764C528.074 248.874 528.768 249.151 529.374 249.574C529.964 250.019 530.515 250.516 531.019 251.058C531.515 251.631 532.105 252.115 532.764 252.489C534.458 253.261 536.614 252.053 538.704 250.848L539.389 250.46C541.091 249.513 543.888 248.662 546.18 249.404C546.767 249.58 547.311 249.878 547.776 250.279C548.241 250.68 548.616 251.174 548.877 251.73C549.03 252.08 549.164 252.438 549.278 252.803C549.363 253.131 549.491 253.447 549.658 253.741C549.623 253.698 549.802 253.659 549.928 253.628C550.404 253.503 550.899 253.473 551.386 253.541C552.494 253.746 553.105 254.54 553.568 255.125C553.698 255.308 553.844 255.479 554.004 255.635C554.109 255.738 554.237 255.814 554.378 255.856C554.519 255.898 554.668 255.904 554.812 255.876C555.719 255.784 556.959 254.92 557.762 253.816L558.063 253.379C559.499 251.389 561.196 248.937 564.212 249.068C565.265 249.183 566.279 249.529 567.184 250.08C567.705 250.397 568.274 250.629 568.868 250.765C569.03 250.765 569.2 250.8 569.37 250.809C570.108 250.795 570.836 250.984 571.474 251.354C572.13 251.834 572.633 252.493 572.923 253.253C574.768 257.169 577.829 260.383 581.651 262.417C583.113 258.59 584.618 254.815 586.102 251.101L588.494 245.114C589.133 243.308 589.989 241.586 591.042 239.986C592.683 237.69 594.97 236.097 597.152 234.557C599.334 233.016 601.516 231.502 602.86 229.386C605.701 224.877 604.458 218.397 599.168 210.122C597.92 208.176 596.506 205.968 596.55 203.363C596.573 202.503 596.783 201.658 597.166 200.888C597.549 200.118 598.095 199.44 598.767 198.902C599.259 198.512 599.827 198.228 600.434 198.069C600.08 196.519 599.397 195.064 598.43 193.803C597.463 192.541 596.235 191.503 594.83 190.759L592.648 189.642L594.717 188.333C596.223 187.326 597.387 185.884 598.051 184.199C598.716 182.513 598.85 180.665 598.435 178.902C598.33 178.505 598.2 178.108 598.069 177.706C597.632 176.323 597.104 174.756 597.545 173.089C597.763 172.36 598.085 171.666 598.501 171.029C598.784 170.607 599.007 170.147 599.164 169.663C599.373 168.83 599.042 167.773 598.728 166.835L593.229 149.536L593.142 149.475C592.145 148.657 591.243 147.731 590.453 146.712C589.371 145.403 588.345 144.181 587.001 143.758C586.62 143.65 586.233 143.568 585.84 143.513C584.776 143.417 583.754 143.049 582.873 142.444C581.638 141.484 581.193 140.04 580.9 138.621C579.897 133.779 579.718 128.803 580.372 123.901C578.011 123.672 575.643 124.268 573.673 125.59L572.098 123.269C573.577 122.278 575.243 121.599 576.994 121.274C578.744 120.949 580.543 120.985 582.279 121.379L583.558 121.676L583.349 122.985C582.517 127.988 582.618 133.101 583.645 138.067C583.833 138.94 584.082 139.839 584.592 140.249C585.118 140.549 585.704 140.728 586.307 140.773C586.825 140.849 587.337 140.961 587.839 141.109C589.969 141.777 591.33 143.387 592.609 144.941C593.267 145.796 594.016 146.578 594.843 147.271C594.974 147.371 595.14 147.424 595.28 147.511L595.502 147.441L595.572 147.672C597.287 148.611 599.426 148.689 600.966 147.725C602.712 146.621 603.532 144.107 602.681 142.348L601.931 140.803L603.598 140.367C604.283 140.205 604.995 140.187 605.688 140.312C606.381 140.437 607.041 140.704 607.626 141.096C608.147 141.434 608.606 141.859 608.983 142.353C610.532 141.327 612.474 141.043 614.268 140.773C616.254 140.48 618.135 140.201 619.199 139.027C620.177 137.971 620.461 136.199 620.072 133.616L619.898 132.538C619.549 130.461 619.186 128.309 619.858 126.14C620.14 125.277 620.606 124.485 621.224 123.82C621.842 123.155 622.597 122.632 623.437 122.287C624.041 122.031 624.696 121.919 625.351 121.958C626.006 121.998 626.643 122.188 627.212 122.514C627.434 122.647 627.648 122.793 627.853 122.95C628.012 123.08 628.187 123.19 628.373 123.277C628.574 123.325 629.158 123.002 629.377 122.88L637.773 118.263C636.889 117.797 635.894 117.584 634.897 117.648C633.151 117.709 630.834 117.063 629.739 115.605C629.446 115.222 629.25 114.773 629.169 114.297C629.088 113.821 629.123 113.332 629.272 112.873C629.543 112.146 629.993 111.499 630.581 110.992C630.712 110.866 630.847 110.739 630.965 110.604L627.535 110.534L630.088 108.679C628.429 107.807 627.317 106.253 626.348 104.839C625.121 103.05 624.288 101.954 623.062 101.858C622.729 101.849 622.396 101.868 622.067 101.915C621.343 102.035 620.603 102.021 619.885 101.871C618.466 101.514 617.541 100.444 616.804 99.5803L616.585 99.3315C611.479 93.4662 603.14 91.6944 594.329 90.2587C588.795 89.3858 583.89 88.7879 579.787 90.9002C579.146 91.2275 578.5 91.6202 577.845 92.0173C575.257 93.5753 572.329 95.3428 569.274 93.8677C568.704 93.5718 568.166 93.2148 567.673 92.8029C567.297 92.4787 566.881 92.2058 566.433 91.9912C564.967 91.4108 563.152 92.7112 561.275 94.2081C558.91 96.0934 556.579 96.8266 554.685 96.3902C555.375 108.714 562.541 120.532 573.202 126.755C570.757 125.875 568.158 125.5 565.564 125.656C562.969 125.811 560.434 126.492 558.111 127.659C558.483 126.731 558.62 125.726 558.51 124.732C558.401 123.739 558.048 122.788 557.483 121.964C553.581 124.194 551.735 129.452 553.385 133.638C548.912 135.139 543.727 130.312 544.905 125.743C540.406 125.429 538.425 131.442 538.9 135.929C539.376 140.415 540.511 145.726 537.224 148.811C530.678 147.158 522.936 144.365 521.514 137.744C521.169 136.147 521.077 134.174 519.615 133.432C518.686 132.957 517.569 133.223 516.561 133.498L500.85 137.792C486.475 141.72 473.867 150.819 462.263 160.171C462.097 160.058 461.966 159.901 461.826 159.778C459.405 163.926 458.417 168.756 459.016 173.521C459.365 176.515 460.338 179.338 461.385 182.332Z" fill="#797979"/>
<path d="M448.455 343.118C448.576 343.239 448.709 343.347 448.852 343.441C448.765 343.406 448.987 343.227 449.136 343.105C451.881 340.984 454.94 341.18 457.899 341.39C459.889 341.521 461.765 341.651 463.402 341.137C465.449 340.499 467.181 338.789 468.708 337.279C470.04 335.969 471.419 334.595 472.348 333.028C472.843 332.152 473.287 331.249 473.679 330.322C474.849 327.704 476.18 324.732 479.265 323.737C479.774 323.584 480.293 323.469 480.819 323.392C481.316 323.334 481.803 323.211 482.268 323.026C483.206 322.589 483.699 321.415 484.013 320.067C481.089 318.784 478.248 317.92 475.599 318.64C474.494 318.989 473.43 319.459 472.427 320.041C471.864 320.337 471.301 320.634 470.725 320.913C467.274 322.494 463.431 323.013 459.684 322.406C459.685 322.429 459.685 322.452 459.684 322.476C459.577 323.241 459.273 323.965 458.802 324.577C458.33 325.189 457.708 325.668 456.995 325.967C456.359 326.211 455.683 326.335 455.001 326.334C453.592 326.271 452.204 325.965 450.899 325.43L438.854 321.123C438.589 321.565 438.439 322.066 438.417 322.58L437.387 322.545C438.967 326.421 440.119 330.357 439.626 333.997C439.844 333.875 440.063 333.766 440.298 333.643C441.682 335.214 441.839 337.174 441.411 339.208C444.58 339.483 447.373 342.097 448.455 343.118Z" fill="#797979"/>
<path d="M534.825 425.782C535.456 424.649 535.831 423.392 535.926 422.098C536.02 420.805 535.83 419.506 535.37 418.294L534.65 416.448L536.631 416.382C538.652 416.312 540.76 414.946 542.894 412.315C544.517 410.223 546.015 408.037 547.38 405.769C547.672 405.297 547.974 404.822 548.301 404.355C548.157 404.197 548.013 404.045 547.865 403.892C547.118 403.059 546.616 402.561 546.158 402.583C545.933 402.62 545.713 402.685 545.503 402.775C545.083 402.943 544.643 403.058 544.194 403.115C542.536 403.281 541.323 402.29 540.345 401.501C539.904 401.093 539.404 400.754 538.861 400.497C538.501 400.386 538.129 400.314 537.753 400.283C536.996 400.224 536.256 400.026 535.571 399.698C533.651 398.69 533.171 396.578 532.787 394.898L532.651 394.313C532.433 393.414 531.914 392.545 531.408 392.236C531.368 392.213 531.325 392.196 531.281 392.183C531.198 392.284 531.12 392.393 531.037 392.489C528.305 395.694 525.306 398.662 522.073 401.361C521.2 402.094 520.462 402.696 520.061 403.416C519.284 404.804 519.659 406.55 520.091 408.566C520.523 410.582 520.964 412.546 520.375 414.593L517.674 413.838C518.062 412.459 517.717 410.857 517.351 409.155C516.866 406.908 516.321 404.355 517.613 402.046C518.285 400.982 519.147 400.052 520.157 399.301C523.307 396.68 526.228 393.793 528.885 390.673C530.142 389.198 531.504 387.466 531.778 385.537C532.119 383.119 530.77 380.802 529.335 378.349C528.069 376.167 526.755 373.924 526.424 371.332C526.127 369.014 526.673 366.806 527.201 364.672C527.467 363.59 527.711 362.542 527.855 361.521L527.803 361.857C524.975 361.421 522.623 359.889 520.34 358.414C518.158 357.017 516.142 355.699 513.86 355.381C512.732 355.267 511.596 355.267 510.469 355.381C509.818 355.424 509.16 355.468 508.509 355.477C505.751 355.525 503.124 354.971 500.558 354.434L483.577 350.882C482.818 350.724 481.958 350.554 481.356 350.755C480.868 350.984 480.425 351.297 480.047 351.68C479.833 351.868 479.61 352.055 479.392 352.23C478.571 352.846 477.694 353.385 476.774 353.84C475.768 354.298 474.843 354.914 474.033 355.665C472.623 357.161 472.44 359.461 472.532 361.124C472.876 367.277 476.595 372.409 480.535 377.852C484.223 382.944 488.033 388.212 489.002 394.518C489.048 394.881 489.063 395.248 489.045 395.613C493.248 396.7 497.512 399.689 496.853 403.831C501.61 409.221 507.357 411.909 514.082 414.449C519.245 416.404 526.262 420.515 523.561 425.324C525.446 426.334 527.515 426.953 529.644 427.144C531.774 427.335 533.92 427.095 535.955 426.437L534.825 425.782Z" fill="#797979"/>
<path d="M486.226 394.95C485.354 389.311 481.91 384.546 478.258 379.501C474.256 373.972 470.118 368.255 469.73 361.285C469.604 359.073 469.896 355.965 471.991 353.744C473.011 352.759 474.192 351.955 475.482 351.366C476.246 350.994 476.977 350.556 477.664 350.056C477.852 349.912 478.031 349.751 478.214 349.594C478.857 348.963 479.62 348.466 480.457 348.132C481.792 347.695 483.163 347.957 484.167 348.162L501.147 351.715C503.554 352.283 506.011 352.613 508.483 352.701C509.085 352.701 509.692 352.653 510.294 352.609C511.615 352.474 512.945 352.474 514.266 352.609C517.159 353.015 519.559 354.569 521.885 356.07C523.901 357.379 525.813 358.593 527.925 359.011C527.707 357.349 526.93 355.769 526.101 354.106C525.457 352.889 524.906 351.626 524.451 350.327C522.924 345.583 524.072 340.486 525.324 336.283C524.617 336.672 523.893 337.038 523.208 337.475C522.957 338.65 522.275 339.689 521.296 340.386C519.974 341.307 518.399 341.796 516.788 341.786C516.077 341.794 515.368 341.706 514.68 341.525C513.265 341.094 511.898 340.519 510.6 339.81C509.338 339.093 507.986 338.547 506.58 338.186C505.846 338.052 505.104 337.963 504.359 337.92C502.365 337.754 500.104 337.571 498.455 335.921C497.777 335.179 497.229 334.328 496.835 333.403L492.772 325.028C491.991 323.414 491.18 321.742 489.896 320.625C489.382 320.183 488.775 319.861 488.12 319.682L489.15 322.506L486.584 321.275C486.148 322.873 485.275 324.679 483.481 325.556C482.776 325.867 482.029 326.074 481.264 326.172C480.876 326.222 480.492 326.304 480.117 326.416C478.214 327.032 477.245 329.192 476.22 331.478C475.786 332.504 475.293 333.504 474.744 334.472C473.632 336.349 472.126 337.841 470.664 339.273C468.993 340.918 466.92 342.969 464.223 343.811C462.084 344.475 459.858 344.331 457.676 344.187C455.123 344.012 452.715 343.851 451.017 345.164C450.384 345.662 449.686 346.22 448.734 346.229H448.582C447.778 346.139 447.035 345.759 446.491 345.16C444.034 342.838 442.053 341.795 440.469 341.983C439.832 343.427 439.092 344.824 438.256 346.164C435.878 350.048 434.25 356.035 438.147 358.383C440.613 359.871 443.991 358.636 445.824 356.41C447.657 354.185 448.324 351.257 448.935 348.442C453.836 346.696 458.152 352.627 458.702 357.803C459.252 362.978 458.205 368.713 461.102 373.016C463.407 376.45 467.718 378.122 470.044 381.543C472.065 384.511 472.37 388.495 474.775 391.144C477.542 394.199 482.019 394.522 486.196 395.072C486.226 395.041 486.235 395.011 486.226 394.95Z" fill="#797979"/>
<path d="M281.223 198.34C281.66 199.457 282.096 200.548 282.589 201.538C283.418 203.262 284.335 204.986 285.788 205.501L286.146 205.614C286.697 205.748 287.217 205.987 287.678 206.317C288.856 207.234 289.018 208.739 289.105 209.551L289.598 214.094C289.646 214.53 289.716 215.194 289.943 215.438C290.204 215.627 290.501 215.763 290.815 215.835C292.784 216.414 294.849 216.588 296.886 216.346L297.488 216.272C298.867 216.088 300.425 215.879 301.913 216.603C304.462 217.843 305.095 221.098 305.649 223.97C305.941 225.48 306.247 227.025 306.766 227.898C308.686 231.14 312.557 235.037 316.249 236.215C317.796 236.643 319.389 236.874 320.993 236.905C320.12 232.397 322.15 227.74 323.983 223.594C324.397 222.652 324.812 221.718 325.183 220.797C327.439 215.218 328.324 209.18 327.766 203.188C327.648 201.966 327.535 200.814 327.915 199.649C328.015 199.414 328.134 199.187 328.272 198.972C328.054 198.631 327.815 198.303 327.557 197.99C326.785 197.218 325.93 196.533 325.008 195.948C319.619 192.363 313.428 190.167 306.984 189.555L307.133 187.975C302.241 191.287 295.42 191.689 290.27 188.726C290.2 188.682 281.105 191.453 280.032 191.619C279.36 191.724 278.723 191.828 278.072 191.937C279.373 193.849 280.32 196.118 281.223 198.34Z" fill="#797979"/>
<path d="M308.464 186.932C314.934 187.733 321.129 190.026 326.562 193.631C327.663 194.331 328.681 195.156 329.595 196.088C329.813 196.319 330.001 196.572 330.197 196.816C330.99 196.291 331.823 195.83 332.689 195.437C334.094 194.774 335.421 194.128 336.014 193.107C336.224 192.689 336.391 192.25 336.512 191.798C336.753 190.8 337.225 189.873 337.891 189.092C339.423 187.495 341.535 187.626 343.403 187.735C344.764 187.818 346.052 187.896 346.741 187.272C347.195 186.755 347.558 186.165 347.815 185.526C348.465 184.178 349.36 182.336 351.494 182.323C352.321 182.362 353.123 182.626 353.811 183.087C354.052 183.236 354.306 183.361 354.57 183.462C354.751 183.528 354.944 183.55 355.134 183.527C355.324 183.505 355.506 183.438 355.666 183.331C356.7 182.699 357.7 180.674 358.04 178.531L360.584 162.615C360.68 162.186 360.708 161.744 360.667 161.306C360.536 160.621 359.794 159.896 359.109 159.194C358.066 158.151 356.805 156.876 356.927 155.109C353.606 153.461 349.962 152.567 346.256 152.492C342.549 152.416 338.871 153.161 335.486 154.672C333.997 160.689 332.51 166.707 331.026 172.727L324.838 170.545C325.082 166.803 325.328 163.065 325.575 159.329L314.255 171.937C310.581 176.03 306.653 181.538 309.018 186.53C308.835 186.666 308.638 186.783 308.464 186.932Z" fill="#797979"/>
<path d="M601.84 170.322C601.623 171.072 601.297 171.785 600.871 172.439C600.592 172.854 600.37 173.304 600.212 173.779C599.98 174.651 600.325 175.699 600.692 176.833C600.84 177.27 600.989 177.741 601.102 178.191C601.586 180.177 601.541 182.257 600.972 184.221C600.402 186.185 599.327 187.965 597.855 189.384C600.741 191.543 602.679 194.735 603.262 198.292C604.383 197.609 605.392 196.756 606.252 195.765C606.527 195.429 606.793 195.08 607.059 194.726C607.997 193.487 609.062 192.081 610.69 191.309C611.453 190.976 612.288 190.841 613.118 190.918C613.947 190.994 614.744 191.279 615.434 191.745C615.679 191.913 615.903 192.11 616.101 192.33C620.221 189.459 626.169 190.393 630.73 192.452C631.982 193.02 633.226 193.661 634.465 194.303C637.913 196.092 641.173 197.794 644.73 197.868C646.676 197.903 648.657 197.475 650.739 196.995C653.929 196.288 657.233 195.551 660.528 196.638C661.429 196.958 662.305 197.348 663.146 197.803C663.907 198.22 664.703 198.57 665.525 198.85C666.917 199.287 668.505 199.247 670.033 199.221L680.07 199.051C687.349 198.929 693.799 198.549 698.836 195.224C699.538 190.563 699.18 185.805 697.788 181.302L697.439 180.189L698.478 179.648C700.515 178.588 702.89 178.379 705.081 179.068L705.774 179.29L705.993 179.984C706.228 180.644 706.595 181.249 707.071 181.763C707.547 182.277 708.122 182.69 708.762 182.975C709.402 183.26 710.093 183.413 710.794 183.423C711.494 183.434 712.19 183.302 712.838 183.036C713.486 182.77 714.073 182.376 714.565 181.876C715.056 181.377 715.441 180.783 715.696 180.131C715.951 179.478 716.071 178.781 716.049 178.08C716.027 177.38 715.863 176.692 715.568 176.057L714.594 174.149L717.688 173.957C717.344 173.726 716.982 173.521 716.663 173.246C714.28 171.207 712.799 168.309 712.543 165.184C712.286 162.059 713.274 158.958 715.293 156.558C715.96 155.845 716.678 155.18 717.44 154.568C718.053 154.066 718.636 153.528 719.185 152.957C721.686 150.282 722.502 146.324 723.222 142.828C723.362 142.377 723.393 141.898 723.314 141.432C723.157 141.039 722.441 140.655 722.005 140.402L708.201 132.896C706.866 132.171 705.198 131.268 704.121 129.719C703.673 129.044 703.295 128.326 702.99 127.576C702.423 126.306 702.03 125.516 701.358 125.289C700.942 125.196 700.513 125.171 700.088 125.215C699.598 125.243 699.106 125.23 698.617 125.176C694.546 124.626 693.154 119.734 692.7 118.128C690.886 111.717 689.452 105.204 688.406 98.6246C687.533 97.8522 686.223 97.8086 685.276 98.0442C684.212 98.3061 682.972 99.048 682.658 100.353L682.383 101.566L681.144 101.431C676.158 100.897 671.248 99.797 666.511 98.1533C663.158 97.5724 659.857 96.7245 656.639 95.6178C655.418 95.22 654.241 94.698 653.126 94.0598C653.096 94.0598 653.083 94.0598 653.048 94.0598C652.144 94.422 651.045 95.884 650.927 97.3024C650.883 97.8129 650.866 98.341 650.844 98.8734C650.752 101.309 650.634 104.342 648.195 105.961C646.663 106.973 644.909 106.921 643.394 106.868C642.761 106.825 642.125 106.825 641.492 106.868C640.218 107.088 638.98 107.48 637.813 108.034C636.614 108.577 635.36 108.986 634.073 109.256L633.811 109.443C633.94 109.889 633.968 110.359 633.893 110.817C633.817 111.275 633.64 111.711 633.374 112.092C633.128 112.413 632.857 112.714 632.563 112.991C632.323 113.189 632.122 113.428 631.969 113.698C632.344 114.375 633.658 114.824 634.867 114.842C636.613 114.842 638.934 115.278 640.104 116.587C640.41 116.925 640.637 117.326 640.769 117.763C640.901 118.199 640.935 118.659 640.867 119.11L640.771 119.812L630.734 125.333C630.079 125.695 628.989 126.284 627.74 126.005C627.173 125.848 626.645 125.573 626.191 125.198C626.065 125.106 625.938 125.006 625.803 124.927C625.596 124.818 625.366 124.758 625.132 124.753C624.898 124.747 624.666 124.797 624.454 124.896C624.008 125.088 623.608 125.371 623.278 125.727C622.949 126.084 622.698 126.505 622.543 126.965C622.067 128.497 622.359 130.234 622.669 132.067L622.853 133.188C623.381 136.679 622.853 139.202 621.273 140.926C619.527 142.811 616.961 143.191 614.692 143.544C612.51 143.863 610.629 144.142 609.721 145.495L607.766 148.397L607.177 144.949C607.111 144.639 606.982 144.345 606.798 144.086C606.614 143.827 606.379 143.608 606.108 143.444C606.014 143.383 605.916 143.327 605.815 143.278C605.929 144.61 605.677 145.947 605.087 147.147C604.498 148.346 603.592 149.362 602.468 150.086C601.244 150.833 599.839 151.229 598.405 151.229C597.818 151.225 597.234 151.162 596.659 151.042L601.386 165.962C601.739 167.132 602.241 168.738 601.84 170.322Z" fill="#797979"/>
<path d="M854.515 236.075C853.887 234.75 853.158 233.474 852.333 232.261C851.576 231.128 850.885 229.952 850.264 228.739C848.519 225.196 848.453 221.718 850.068 219.2C850.507 218.552 850.979 217.927 851.482 217.327C852.948 215.534 853.524 214.643 853.062 214.115C852.754 213.857 852.395 213.666 852.01 213.552C841.671 209.585 831.158 208.66 821.618 210.869L816.726 212.003L820.322 208.512C820.218 208.316 819.039 207.569 818.201 207.814C817.684 207.972 817.175 208.158 816.678 208.372C815.055 209.027 813.025 209.843 811.083 208.778C809.958 208.158 809.294 207.111 808.714 206.186C808.133 205.261 807.741 204.693 807.282 204.645C807.018 204.653 806.754 204.688 806.497 204.75C805.692 204.987 804.832 204.959 804.044 204.672C802.971 204.235 802.499 203.253 802.15 202.555C802.043 202.313 801.915 202.08 801.766 201.861C801.653 201.708 801.509 201.581 801.342 201.488C801.176 201.395 800.991 201.34 800.802 201.324C799.846 201.189 798.428 201.652 797.363 202.463C796.983 202.751 796.603 203.066 796.228 203.384C794.653 204.693 792.868 206.181 790.511 206.247H789.791L789.355 205.675C787.216 202.882 782.734 202.874 778.65 203.249L777.24 203.375L777.122 201.966C776.799 197.942 775.686 193.002 772.204 192.33C770.995 192.09 769.655 192.435 768.237 192.806C767.844 192.906 767.451 193.006 767.063 193.098C764.27 193.738 761.379 193.824 758.553 193.351C755.603 192.849 753.587 191.579 752.731 189.681C752.133 188.372 752.203 186.949 752.256 185.814L752.823 174.123C748.977 172.992 744.962 172.549 740.961 172.814C739.595 172.91 738.234 173.084 736.881 173.289C732.588 173.973 728.343 174.932 724.173 176.161C724.216 176.248 724.278 176.314 724.317 176.405L721.733 177.492C721.58 177.146 721.37 176.828 721.114 176.549L718.696 176.702C718.973 178.193 718.835 179.731 718.299 181.149C717.953 182.194 717.385 183.151 716.634 183.955C715.883 184.759 714.967 185.392 713.949 185.809C712.931 186.226 711.835 186.418 710.735 186.371C709.636 186.325 708.56 186.041 707.581 185.539C705.815 184.74 704.396 183.332 703.583 181.572C702.657 181.4 701.704 181.444 700.799 181.703C702.071 186.452 702.302 191.42 701.475 196.266L701.379 196.834L700.908 197.17C694.693 201.599 686.602 201.734 680.1 201.844L670.063 202.014C668.395 202.04 666.506 202.075 664.695 201.525C663.713 201.2 662.762 200.788 661.854 200.294C661.14 199.904 660.397 199.568 659.632 199.291C657.071 198.453 654.278 199.068 651.341 199.727C649.159 200.203 646.915 200.709 644.651 200.648C640.448 200.543 636.747 198.627 633.164 196.773C631.968 196.153 630.777 195.533 629.568 194.988C625.483 193.137 619.627 192.19 616.581 195.599L613.757 198.749L614.137 194.538C614.137 194.46 614.163 194.259 613.823 194.023C613.538 193.839 613.214 193.726 612.877 193.693C612.54 193.661 612.199 193.709 611.885 193.836C610.877 194.316 610.1 195.337 609.267 196.415C608.97 196.803 608.677 197.187 608.394 197.549C606.083 200.311 602.894 202.195 599.36 202.887C599.322 203.05 599.299 203.217 599.29 203.384C599.29 205.156 600.394 206.91 601.472 208.621C607.399 217.89 608.647 225.383 605.173 230.878C603.545 233.466 601.08 235.19 598.701 236.852C596.598 238.323 594.612 239.706 593.25 241.609C592.331 243.029 591.583 244.552 591.02 246.148L588.633 252.135C585.578 259.777 582.423 267.68 579.8 275.701C579.508 276.574 579.281 277.377 579.447 277.984C579.669 278.791 580.629 279.446 582.388 279.996C588.747 281.986 595.48 282.243 600.652 282.247C612.012 282.26 623.333 280.912 634.373 278.232C636.237 277.796 638.227 277.133 638.881 275.71C639.04 275.313 639.161 274.903 639.243 274.484C639.385 273.674 639.667 272.896 640.077 272.184C641.526 269.901 644.297 269.736 646.523 269.605L647.16 269.565C650.459 269.334 653.575 268.16 656.874 266.912C659.768 265.817 662.761 264.686 665.925 264.232C670.455 263.56 675.714 265.38 678.638 268.597C680.09 270.129 680.899 272.159 680.899 274.27C683.168 274.204 685.616 274.27 687.92 275.217C690.722 276.343 693.594 279.214 693.245 282.867C693.149 283.659 692.969 284.439 692.708 285.193C692.411 286.136 692.158 286.939 692.337 287.637C692.516 288.335 693.21 288.977 693.917 289.658C701.179 296.576 706.862 304.981 710.579 314.297L709.745 314.629L709.815 314.659C711.604 315.672 713.18 317.444 715.231 317.361C719.761 317.173 718.809 310.121 716.374 306.298L733.272 299.752C733.542 295.997 735.193 292.476 737.907 289.867C742.323 295.763 742.271 304.6 737.789 310.444C738.43 313.961 743.863 313.062 746.591 310.762C749.319 308.462 753.015 305.443 755.926 307.511C757.117 308.358 757.671 309.833 758.618 310.941C759.555 312.033 760.863 312.738 762.29 312.92C763.716 313.101 765.16 312.747 766.34 311.926C767.52 311.104 768.353 309.873 768.678 308.472C769.003 307.071 768.796 305.6 768.097 304.343C771.955 301.026 778.689 302.052 781.386 306.363C783.826 305.056 785.837 303.073 787.179 300.652C788.521 298.231 789.137 295.474 788.953 292.712C792.34 292.346 795.648 295.536 795.403 298.931C802.255 300.053 804.131 287.201 811.083 286.895C812.633 286.825 814.16 287.458 815.705 287.332C819.493 286.987 821.243 282.636 823.351 279.476C825.673 275.985 829.024 273.668 832.817 272.018C830.845 268.368 830.227 264.139 831.071 260.078L831.245 259.284L832.018 259.039C838.689 256.909 844.7 253.1 849.474 247.976L850.626 246.737L851.63 248.107C851.691 248.21 851.785 248.289 851.897 248.332C852.009 248.374 852.131 248.378 852.246 248.343C853.153 248.199 854.55 246.977 854.991 245.62C855.994 242.486 855.825 239.094 854.515 236.075Z" fill="#797979"/>
<path d="M222.644 13.4984C222.694 14.75 223.19 15.9423 224.043 16.8593C224.896 17.7763 226.05 18.3572 227.294 18.4966C228.539 18.6359 229.793 18.3246 230.827 17.6189C231.862 16.9133 232.61 15.8602 232.935 14.6506C231.114 13.7574 229.623 12.3106 228.675 10.5177L238.351 10.9105C237.583 7.58217 236.812 4.25091 236.038 0.916748C239.802 4.81769 244.844 7.23549 250.243 7.72913C254.17 8.06952 259.87 9.28707 258.971 13.0969C251.518 14.039 244.537 17.2595 238.983 22.3182C237.635 23.5489 236.278 25.1898 236.605 26.9878C237.225 30.4441 242.235 29.9859 245.691 29.3531C250.811 28.4228 256.095 29.1665 260.76 31.4741C262.789 32.4865 264.902 34.1973 264.801 36.4666C264.691 37.4077 264.383 38.3148 263.898 39.1287C261.716 43.4229 259.49 47.8306 255.868 50.9946C252.246 54.1585 246.878 55.7951 242.531 53.7527C242.08 55.9435 241.63 58.1357 241.179 60.3294C239.586 58.9459 237.858 57.4927 235.758 57.2396C233.659 56.9865 231.22 58.5488 231.394 60.6523C231.717 64.1436 236.893 63.5326 240.384 63.921C245.045 64.4403 248.733 69.3237 247.96 73.9584C248.091 74.3174 248.147 74.6993 248.125 75.0806C248.103 75.462 248.003 75.8348 247.833 76.1765C247.662 76.5183 247.424 76.8217 247.132 77.0683C246.84 77.3149 246.501 77.4996 246.136 77.6111C250.343 76.3324 253.669 81.229 255.131 85.3748C257.09 90.939 258.583 96.6516 260.075 102.36L261.188 106.615C262.637 112.148 263.723 118.983 259.442 122.762L254.205 123.561C258.569 125.389 261.266 130.041 262.026 134.728C262.785 139.415 261.956 144.194 261.122 148.863C265.329 148.863 269.728 148.864 273.468 150.81C277.208 152.756 279.98 157.247 278.522 161.196C275.515 169.331 260.35 166.097 257.304 174.219C255.597 178.762 260.669 184.199 265.321 182.816C259.538 186.783 252.102 187.425 245.098 187.019C240.04 186.726 235.025 185.954 230.02 185.186L211.69 182.375C209.879 182.1 207.994 181.795 206.484 180.756C203.761 178.884 202.657 174.921 199.502 173.9C193.091 171.819 189.285 183.973 182.617 182.982C182.412 178.919 176.507 178.548 172.61 179.648C168.713 180.747 162.983 181.04 162.101 177.073L178.768 170.885C184.494 168.755 190.455 166.595 196.547 167.084C200.182 167.376 203.966 168.593 207.366 167.245C210.765 165.896 212.197 160.153 208.767 158.91L210.883 154.34C208.727 154.271 206.955 156.863 207.828 158.84C204.909 161.895 200.082 158.504 196.918 155.733C190.979 150.544 183.642 147.284 176.429 144.098C181.666 144.971 187.033 145.8 192.231 144.735C197.429 143.67 202.482 140.249 203.931 135.134C205.38 130.019 201.099 123.351 195.879 124.521L216.098 121.841L219.52 125.895C222.832 125.494 222.138 120.619 221.998 117.289C221.948 114.887 222.686 112.534 224.099 110.59C225.512 108.646 227.522 107.217 229.823 106.523C226.083 103.783 222.077 100.649 221.073 96.1192C220.069 91.5893 224.32 85.9945 228.641 87.666C229.151 85.4577 227.397 83.2364 225.285 82.4291C223.172 81.6217 220.816 81.8356 218.564 82.0756L205.171 83.4896C204.298 83.5812 203.377 83.6641 202.578 83.3063C200.697 82.464 200.623 79.6317 201.832 77.9603C203.041 76.2888 205.013 75.4029 206.746 74.2857C212.925 70.3013 216.268 63.0395 217.704 55.8256C219.14 48.6118 219.013 41.1885 219.939 33.8961C217.05 35.0744 213.331 33.0669 212.734 30.0034C217.181 30.1561 218.581 26.9485 219.83 23.61C220.074 22.9772 222.653 13.7821 222.644 13.4984Z" fill="#797979"/>
<path d="M134.031 75.4509C133.403 80.1641 127.69 81.9971 123.012 82.8437C123.981 86.6448 128.088 89.3549 131.963 88.7526C133.119 90.7439 133.652 93.0357 133.494 95.3327C133.336 97.6298 132.493 99.8268 131.076 101.641C129.658 103.455 127.729 104.803 125.538 105.511C123.348 106.22 120.995 106.256 118.783 105.615C118.508 107.077 118.764 108.588 119.505 109.877C120.246 111.166 121.423 112.148 122.825 112.646C117.815 115.539 110.147 109.29 106.202 113.519C104.356 115.491 104.722 118.594 105.207 121.252C105.77 124.307 106.608 127.798 109.353 129.295C112.551 131.041 116.959 129.243 119.931 131.355C121.018 132.127 121.729 133.323 122.707 134.235C127.001 138.254 134.001 135.422 138.784 132.001C143.567 128.579 148.599 124.975 154.765 126.624C159.343 127.85 162.721 131.573 167.779 128.715C170.48 127.187 172.335 124.547 174.098 121.994C175.73 119.633 177.415 117.128 177.655 114.269C177.938 110.896 176.149 107.584 176.555 104.232C176.734 102.705 177.362 101.269 177.982 99.8679C179.881 95.5519 181.953 91.0176 185.837 88.3293C187.465 87.1947 189.604 86.0556 189.63 84.07C189.656 82.3243 187.928 80.7707 188.417 79.1037C188.905 77.4366 191.035 77.118 192.178 75.8961C194.125 73.8275 192.392 70.1748 189.791 69.0314C187.19 67.888 184.218 68.3287 181.377 68.2851C178.248 68.2392 175.159 67.5763 172.287 66.3343C173.451 66.1317 174.559 65.6841 175.537 65.0213C176.515 64.3585 177.341 63.4956 177.96 62.4896C172.376 61.6412 166.7 61.575 161.098 62.2932C158.719 62.5987 156.21 63.1224 154.49 64.7895C152.771 66.4566 152.334 69.638 154.202 71.1436C157.257 73.6093 158.322 78.3923 152.71 79.9023C148.647 80.9976 146.792 76.555 144.479 73.9322C139.805 68.6299 135.219 66.5002 134.031 75.4509Z" fill="#797979"/>
<path d="M341.238 421.558C341.495 422.714 341.853 423.91 342.7 424.735C343.546 425.56 344.917 426.044 345.253 427.183C345.493 428.008 345.113 428.968 345.545 429.71C346.418 431.189 348.687 429.732 349.429 428.178C350.467 425.999 350.981 423.608 350.93 421.196C350.896 419.489 350.608 417.643 351.498 416.186C352.484 414.571 354.553 414.034 356.041 412.873C361.897 408.313 356.281 398.472 349.551 399.99C341.098 401.932 339.758 414.933 341.238 421.558Z" fill="#797979"/>
<path d="M331.559 457.256C333.396 457.815 335.094 459.944 334.037 461.55C333.378 462.554 331.956 462.811 331.244 463.78C330.909 464.325 330.697 464.938 330.625 465.574C329.752 470.31 328.865 475.042 327.963 479.77C327.814 480.279 327.826 480.822 327.998 481.324C328.377 482.136 329.438 482.301 330.328 482.362C332.624 482.52 335.451 482.397 336.503 480.351C337.057 479.277 337.105 477.732 338.249 477.296C338.67 477.18 339.116 477.189 339.532 477.322C341.08 477.739 342.458 478.631 343.471 479.873C344.485 481.115 345.084 482.643 345.183 484.243C347.553 481.407 350.067 478.156 349.787 474.468C349.678 473.032 349.141 471.662 348.915 470.239C348.552 467.996 348.967 465.705 349.382 463.47C350.01 460.071 350.11 455.785 351.411 452.591C352.585 449.706 356.172 447.07 356.731 444.168C357.782 438.695 354.597 436.919 350.049 436.701C345.772 436.5 338.074 439.45 334.024 440.904C326.169 443.723 325.733 447.397 326.169 455.982C327.945 456.767 329.686 456.689 331.559 457.256Z" fill="#797979"/>
<path d="M397.805 516.476C398.097 517.196 398.558 517.833 399.15 518.335C399.979 518.951 401.061 519.069 402.082 519.208C405.66 519.778 409.079 521.092 412.118 523.064C415.157 525.037 417.749 527.624 419.726 530.66C420.232 531.445 420.717 532.287 421.472 532.815C422.86 533.776 424.71 533.474 426.395 533.431C431.064 533.317 436.205 536.455 436.432 541.125C436.493 542.386 436.34 543.961 437.431 544.616C438.147 545.03 439.05 544.791 439.84 544.537C444.252 543.132 449.494 540.701 449.699 536.08C449.782 534.234 448.974 532.471 448.721 530.642C447.552 522.093 458.3 515.691 457.991 507.076C451.968 507.076 446.849 513.976 441.097 512.191C439.88 511.815 438.806 511.069 437.606 510.703C433.381 509.437 428.005 511.746 423.536 511.362C419.469 511.008 416.244 509.293 412.447 508.267C404.941 506.225 392.241 504.593 397.805 516.476Z" fill="#797979"/>
<path d="M627.426 508.761C629.281 510.882 631.79 512.771 634.605 512.658C629.142 506.544 623.191 500.882 616.813 495.73C613.989 493.447 606.282 495.175 602.974 496.223C605.82 497.842 609.957 498.043 613.239 498.92C619.964 500.713 622.831 503.729 627.426 508.761Z" fill="#797979"/>
<path d="M769.944 333.368C772.087 338.317 766.649 344.152 768.727 349.127C770.491 349.47 772.317 349.296 773.985 348.625C775.652 347.955 777.091 346.817 778.127 345.348C779.109 343.903 779.689 342.162 780.959 340.984C781.77 340.294 782.681 339.732 783.661 339.317L799.764 331.518L799.384 326.879C804.25 326.228 809.041 325.107 813.69 323.532C815.099 323.052 816.566 322.484 817.513 321.35C818.46 320.215 818.647 318.295 817.513 317.317C816.138 316.126 814.048 317.012 812.411 317.802C806.931 320.444 800.842 321.566 794.78 321.049C793.371 320.926 791.931 320.699 790.709 319.984C783.263 315.62 781.911 309.946 771.943 313.001C765.833 314.873 759.287 317.125 753.684 320.211C737.091 329.305 767.199 327.032 769.944 333.368Z" fill="#797979"/>
<path d="M612.108 530.084C611.672 529.704 611.205 529.346 610.751 528.984C611.144 529.419 611.602 529.79 612.108 530.084Z" fill="#797979"/>
<path d="M649.639 90.184C648.911 88.2682 649.155 86.1254 649.369 84.2357C649.652 81.7046 649.77 80.1073 648.605 79.2171C648.435 79.0905 648.252 78.9814 648.068 78.8679C647.312 78.4919 646.685 77.8975 646.27 77.1616C645.633 75.8524 646.1 74.5431 646.445 73.6092C647.723 70.0089 646.742 65.3174 643.735 63.2794L643.582 63.742C639.283 62.3324 635.447 61.2588 631.943 62.4022C630.895 62.7814 629.883 63.2531 628.919 63.8118C628.038 64.306 627.13 64.7504 626.2 65.1429C625.091 65.5968 623.907 65.8424 622.709 65.8673C621.235 65.9213 619.792 65.4408 618.646 64.5145C617.77 63.6834 617.065 62.6885 616.573 61.5862C616.24 60.8126 615.769 60.107 615.181 59.5045C614.046 58.5444 612.152 58.7277 611.118 58.9153C610.52 59.0244 609.926 59.1772 609.337 59.3256C608.096 59.687 606.818 59.908 605.527 59.9846C604.554 59.9884 603.583 59.8904 602.629 59.6922C602.483 67.6343 600.474 75.4311 596.764 82.4552C591.091 82.0625 587.429 76.555 584.248 71.8505C581.066 67.146 576.131 62.1753 570.628 63.5587C562.894 65.5269 563.344 76.651 559.281 83.5113C558.002 85.6933 556.152 87.5176 555.279 89.8698C554.885 91.0008 554.667 92.1856 554.633 93.3828L554.673 93.3348C555.807 94.2862 557.994 93.2214 559.517 92.0256C561.441 90.4938 564.356 88.1896 567.442 89.4072C568.132 89.7145 568.772 90.1234 569.34 90.6204C569.68 90.9071 570.049 91.1586 570.44 91.371C572.125 92.1827 574.171 90.9346 576.34 89.6254C577.047 89.189 577.754 88.7525 578.448 88.4122C583.685 85.7064 590.07 86.7407 594.722 87.5001C604.078 89.0231 612.942 90.9303 618.663 97.4982L618.89 97.76C619.449 98.4103 619.972 99.0213 620.527 99.1566C620.927 99.2189 621.335 99.2189 621.735 99.1566C622.237 99.085 622.744 99.063 623.25 99.0911C625.907 99.2962 627.356 101.417 628.635 103.281C629.543 104.59 630.402 105.864 631.546 106.335C633.025 106.968 634.736 106.27 636.713 105.463C638.12 104.801 639.615 104.343 641.151 104.101C641.916 104.037 642.685 104.025 643.451 104.066C644.76 104.105 645.847 104.14 646.633 103.63C647.876 102.809 647.942 100.85 648.029 98.7725C648.051 98.1965 648.073 97.6248 648.121 97.0793C648.337 95.1628 649.303 93.41 650.809 92.2046C650.304 91.6043 649.908 90.9205 649.639 90.184Z" fill="#797979"/>
<path d="M591.868 51.3703C593.779 50.6938 595.518 49.6046 596.96 48.1801C599.723 46.7007 602.11 50.7723 602.416 53.8883C602.512 54.8746 602.555 55.8609 602.59 56.8515C603.519 57.0735 604.471 57.1863 605.427 57.1876C606.509 57.1119 607.58 56.9187 608.621 56.6115C609.272 56.4456 609.93 56.2842 610.576 56.1751C613.238 55.6776 615.447 56.0965 616.965 57.3839C617.845 58.2134 618.55 59.2105 619.038 60.3166C619.372 61.0888 619.846 61.793 620.435 62.3939C621.639 63.4151 623.656 63.1445 625.139 62.5554C625.971 62.2026 626.783 61.8034 627.57 61.3596C628.684 60.7228 629.852 60.1868 631.061 59.758C634.705 58.5666 638.585 59.3216 641.867 60.2861L642.172 60.1027C643.763 59.0861 644.959 57.5571 645.563 55.7685C646.167 53.98 646.142 52.0389 645.493 50.2661L645.236 49.6552C644.512 48.382 644.298 46.8815 644.638 45.4569C644.717 45.1092 644.752 44.7529 644.743 44.3964C644.682 43.8204 644.202 43.2094 643.695 42.5592C643.49 42.3017 643.29 42.0398 643.106 41.778C640.051 37.4139 641.16 31.6708 643.233 27.73L643.669 26.8965C644.263 25.8185 644.826 24.7974 644.978 23.7587C645.062 22.8997 644.86 22.0371 644.404 21.3042C643.948 20.5714 643.263 20.0092 642.456 19.7045L642.953 18.2556C636.407 22.2444 627.465 22.5979 619.457 22.6197C609.141 22.6197 597.109 23.7238 591.505 32.3821L595.834 35.0966C593.952 37.3129 592.613 39.9384 591.924 42.7637C591.235 45.589 591.216 48.5361 591.868 51.3703Z" fill="#797979"/>
<path d="M678.992 310.418L679.429 309.907C680.555 310.828 682.427 310.575 683.819 310.021C684.564 309.712 685.293 309.363 686.001 308.978C687.105 308.366 688.266 307.862 689.466 307.472C692.01 306.726 694.642 306.996 696.955 307.228C698.404 307.367 699.861 307.516 701.319 307.76C702.56 307.962 703.775 308.3 704.941 308.768C701.593 302.428 697.242 296.671 692.058 291.718C691.151 290.845 690.06 289.824 689.671 288.353C689.283 286.882 689.702 285.551 690.073 284.36C690.274 283.793 690.42 283.209 690.509 282.614C690.706 280.489 688.855 278.599 686.931 277.814C684.626 276.888 681.86 277.015 679.416 277.128L677.526 277.216L677.993 275.387C678.197 274.517 678.177 273.609 677.934 272.749C677.692 271.889 677.234 271.104 676.605 270.469C674.314 267.92 670.033 266.463 666.376 266.978C663.517 267.414 660.799 268.418 657.923 269.509C655.16 270.552 652.31 271.586 649.321 272.075C651.461 273.219 653.346 274.785 654.863 276.679C655.557 277.552 656.216 278.425 656.875 279.328C658.892 282.077 660.803 284.674 663.57 285.983C663.954 286.167 664.36 286.328 664.77 286.494C666.406 287.157 668.261 287.908 669.186 289.78C669.463 290.392 669.658 291.037 669.767 291.7C669.82 292.19 669.968 292.664 670.203 293.097C670.588 293.477 671.047 293.775 671.552 293.969C671.805 294.096 672.067 294.223 672.311 294.358C676.396 296.64 677.679 301.62 678.395 306.193C678.595 307.607 678.787 309.012 678.992 310.418Z" fill="#D33F79"/>
<path d="M714.607 325.107L705.032 316.178C704.975 314.9 706.158 314.236 707.493 314.158C707.358 313.839 707.205 313.529 707.057 313.215L706.812 313.394C705.756 311.958 703.797 311.016 700.821 310.523C699.446 310.291 698.054 310.152 696.657 310.016C694.475 309.794 692.25 309.58 690.233 310.16C689.208 310.502 688.217 310.941 687.274 311.47C686.467 311.906 685.655 312.299 684.818 312.63C683.089 313.373 681.157 313.495 679.349 312.975C680.375 320.477 681.16 328.036 681.684 335.533C683.024 336.349 685.302 335.686 687.087 334.582L688.038 333.979C690.164 332.614 692.564 331.082 695.387 331.453C696.507 331.653 697.589 332.03 698.591 332.57L704.726 335.498C703.644 332.317 702.051 329.249 700.458 326.281L714.607 325.107Z" fill="#797979"/>
<path d="M565.199 448.249L565.753 448.34C572.033 449.327 578.409 447.241 584.881 444.823C588.372 443.514 591.864 442.017 593.299 439.045C594.521 436.501 593.972 433.328 593.251 430.029C592.283 425.643 591.021 422.501 589.411 420.428C588.207 419.904 586.247 420.781 584.776 421.959C582.442 423.832 579.736 425.979 576.646 425.014L575.442 424.639L575.69 423.4C575.752 423.107 575.18 422.562 574.678 422.09C573.914 421.357 573.05 420.532 572.745 419.315C572.611 418.709 572.586 418.084 572.67 417.469C572.696 417.196 572.696 416.921 572.67 416.648C572.548 415.632 571.427 415.104 569.616 414.331C568.463 413.896 567.374 413.309 566.377 412.585C564.854 411.381 564.108 409.723 563.388 408.121C563.043 407.284 562.626 406.478 562.144 405.712C561.547 404.9 560.776 404.229 559.889 403.749C559.002 403.27 558.019 402.992 557.012 402.936C554.869 402.784 552.801 403.473 551.5 404.839C551.356 404.996 551.23 405.18 551.094 405.345L550.859 406.166C550.755 406.129 550.653 406.087 550.553 406.039C550.278 406.432 550.017 406.851 549.746 407.283C548.873 408.645 548 410.019 547.062 411.377L547.756 412.42C547.73 412.42 547.647 412.494 547.616 412.712C547.584 413.17 547.73 413.623 548.022 413.978C548.52 414.49 549.087 414.931 549.707 415.287C550.196 415.588 550.668 415.918 551.121 416.273C553.407 418.115 554.503 420.89 555.428 423.574C558.192 431.585 560.465 439.757 562.236 448.044C563.228 447.98 564.225 448.049 565.199 448.249Z" fill="#797979"/>
<path d="M553.067 329.546C553.412 328.799 553.875 328.113 554.437 327.512C555.546 326.364 556.894 325.666 558.194 324.994L558.989 324.584C562.444 322.686 565.431 320.04 567.731 316.839C570.032 313.638 571.588 309.964 572.286 306.084C572.391 305.465 572.478 304.836 572.561 304.204C572.945 301.406 573.342 298.53 575.245 296.191C576.912 294.162 579.238 293.189 581.49 292.263C582.856 291.751 584.164 291.094 585.391 290.304C586.928 289.222 587.604 286.73 587.176 285.233C586.91 284.303 586.369 284.155 585.924 284.129L585.946 283.775C584.473 283.48 583.016 283.108 581.582 282.662C580.574 282.353 577.514 281.392 576.781 278.735C576.746 278.569 576.721 278.402 576.707 278.233C576.638 278.148 576.562 278.069 576.48 277.997C575.476 277.255 573.779 276.924 572.225 277.177C571.342 277.338 570.468 277.545 569.607 277.796C567.643 278.333 565.605 278.883 563.431 278.512C561.489 278.185 559.888 277.203 558.347 276.238C557.732 275.859 557.121 275.475 556.488 275.147C554.804 274.275 552.482 273.873 551.352 275.073C551.146 275.313 550.959 275.568 550.793 275.837C550.349 276.618 549.712 277.272 548.943 277.735C547.882 278.298 546.761 278.172 545.888 278.111C545.473 278.055 545.052 278.046 544.635 278.085C543.304 278.298 542.759 279.83 542.017 282.283C541.275 284.735 540.437 287.52 537.823 288.576C536.942 288.875 536.017 289.023 535.087 289.012L524.277 289.492C524.437 290.789 524.23 292.104 523.679 293.289C523.118 294.522 522.294 295.616 521.264 296.496C520.234 297.375 519.023 298.017 517.718 298.378C516.778 298.623 515.812 298.749 514.842 298.753C511.569 298.753 508.344 297.553 505.507 296.265L504.359 295.742C501.331 294.341 498.201 292.901 495.024 292.896V292.818C493.216 294.631 490.777 295.674 488.216 295.728C487.702 296.601 487.893 297.941 488.452 298.853C489.299 300.237 490.892 301.236 492.297 302.122L494.021 303.2L492.393 304.426C488.71 307.206 486.82 312.159 487.422 316.737C489.024 316.818 490.553 317.432 491.764 318.483C493.48 319.98 494.461 322 495.321 323.781L499.384 332.155C499.652 332.79 500.017 333.379 500.466 333.901C501.387 334.822 502.884 334.944 504.612 335.084C505.47 335.14 506.324 335.246 507.17 335.402C508.819 335.809 510.406 336.435 511.887 337.266C513.02 337.887 514.211 338.394 515.444 338.78C516.154 338.964 516.895 338.998 517.619 338.88C518.344 338.762 519.035 338.495 519.651 338.095C519.907 337.931 520.12 337.707 520.271 337.444C520.423 337.18 520.51 336.884 520.524 336.581V335.848L521.135 335.446C530.576 329.324 542.061 327.202 553.067 329.546Z" fill="#797979"/>
<path d="M690.182 379.44L689.985 379.602L686.734 375.595C684.854 374.264 682.623 373.514 680.32 373.441C678.017 373.367 675.743 373.972 673.782 375.181C673.498 375.36 673.218 375.556 672.939 375.752C672.11 376.397 671.193 376.92 670.216 377.306C666.288 378.681 662.588 376.089 659.603 374.002L659.166 373.697C656.696 371.951 653.392 370.882 651.603 372.261C651.769 378.89 646.458 384.136 641.287 386.257C637.795 387.697 634.038 388.151 630.376 388.177C627.998 388.177 625.659 388.033 623.451 387.845C613.153 386.958 602.934 385.327 592.871 382.966L591.471 382.639L591.837 381.247C592.18 379.86 592.263 378.422 592.082 377.005C591.406 378.092 590.604 379.095 589.694 379.994C589.35 380.365 588.996 380.741 588.673 381.125C588.18 381.701 586.622 383.713 587.303 385.297C587.63 386.056 588.411 386.606 589.319 387.269C590.002 387.729 590.641 388.252 591.226 388.832C594.669 392.436 593.321 397.856 591.767 402.177L587.106 415.13C588.778 415.808 590.241 416.914 591.348 418.337C591.514 418.444 591.673 418.56 591.824 418.686L591.719 418.791C594.024 421.846 595.237 425.987 595.987 429.409C596.466 431.351 596.744 433.337 596.817 435.335H597.519C597.517 435.437 597.543 435.537 597.595 435.624C597.646 435.711 597.722 435.782 597.812 435.828C598.436 436.265 599.684 436.356 600.592 436.029C601.058 435.863 601.525 435.654 601.992 435.444C603.603 434.72 605.423 433.917 607.426 434.471C608.136 434.699 608.811 435.026 609.429 435.444C609.723 435.635 610.027 435.808 610.341 435.964C612.654 437.05 615.477 435.719 618.467 434.318C621.958 432.669 625.942 430.805 629.377 433.358C629.761 433.655 630.124 433.977 630.464 434.323C630.804 434.699 631.202 435.018 631.642 435.27C632.698 435.759 633.907 435.06 635.762 433.851C636.517 433.335 637.305 432.87 638.123 432.459C640.052 431.547 642.103 431.425 644.084 431.307C644.686 431.272 645.284 431.237 645.877 431.176C647.824 430.984 652.581 430.125 654.793 426.376C655.175 425.69 655.507 424.979 655.788 424.246C656.252 422.949 656.914 421.731 657.752 420.637C658.329 419.98 659.047 419.462 659.851 419.12C660.656 418.777 661.527 418.62 662.4 418.66C662.723 418.684 663.042 418.745 663.351 418.843C663.807 417.959 664.469 417.197 665.28 416.622C667.598 414.933 671.368 414.344 674.659 415.138C675.737 415.405 676.841 415.749 677.91 416.094C680.738 416.993 683.417 417.84 685.883 417.185C685.233 416.312 684.574 415.405 684.011 414.471C678.338 405.363 676.675 392.89 682.863 384.123C686.677 384.808 688.916 382.665 690.182 379.44Z" fill="#797979"/>
<path d="M589.873 284.447C590.672 287.253 589.385 290.902 587.002 292.582C585.612 293.49 584.126 294.244 582.572 294.829C580.547 295.676 578.645 296.474 577.414 297.971C576.013 299.678 575.668 302.061 575.341 304.583C575.249 305.246 575.162 305.892 575.049 306.551C574.278 310.853 572.555 314.927 570.006 318.476C567.457 322.025 564.146 324.959 560.316 327.062L559.482 327.499C558.33 328.097 557.239 328.655 556.453 329.471C552.962 333.102 556.554 339.627 559.015 343.188L571.073 360.644L580.46 362.451C581.912 362.693 583.343 363.045 584.741 363.502C591.549 365.907 595.918 373.487 594.84 380.566C604.343 382.73 613.984 384.235 623.695 385.07C628.932 385.528 635.002 385.829 640.213 383.686C644.787 381.805 649.194 377.14 648.762 371.829L648.714 371.236L649.107 370.799C651.926 367.587 656.989 368.796 660.764 371.423L661.2 371.733C663.91 373.627 666.712 375.6 669.269 374.688C669.998 374.38 670.683 373.978 671.307 373.492C671.621 373.269 671.931 373.055 672.245 372.846C674.72 371.324 677.592 370.572 680.495 370.686C683.398 370.8 686.202 371.775 688.55 373.487L688.785 373.714L691.059 376.499C691.482 374.461 691.742 372.393 691.836 370.315L693.106 346.587C696.222 348.106 697.531 352.47 695.759 355.451C701.703 355.285 705.958 348.961 706.058 343.013C706.068 341.04 705.797 339.075 705.251 337.178L704.601 338.544L697.391 335.105C696.648 334.698 695.847 334.404 695.017 334.233C693.21 333.979 691.447 335.105 689.562 336.336L688.571 336.969C686.964 338.017 685.107 338.619 683.191 338.714C682.486 338.741 681.784 338.625 681.126 338.374C680.467 338.123 679.866 337.741 679.359 337.252L678.979 336.877L678.94 336.345C678.263 326.473 677.142 316.479 675.606 306.643C674.96 302.545 673.952 298.517 670.919 296.824C670.714 296.71 670.504 296.605 670.29 296.501C669.37 296.124 668.559 295.524 667.929 294.755C667.424 294.003 667.1 293.144 666.982 292.246C666.917 291.822 666.801 291.407 666.638 291.011C666.201 290.094 664.97 289.605 663.683 289.086C663.225 288.898 662.771 288.715 662.339 288.51C658.922 286.9 656.714 283.888 654.58 280.982C653.947 280.109 653.314 279.236 652.651 278.433C650.861 276.221 648.156 274.026 645.441 273.677L644.023 275.732L642.151 274.423C642.098 274.624 642.046 274.829 641.994 275.056C641.872 275.664 641.688 276.257 641.444 276.827C640.292 279.337 637.564 280.319 635.05 280.903C623.795 283.636 612.253 285.011 600.67 284.997C597.055 285.02 593.441 284.813 589.852 284.377C589.852 284.377 589.852 284.434 589.873 284.447Z" fill="#797979"/>
<path d="M549.614 471.252C550.624 470.054 551.908 469.119 553.357 468.524C554.806 467.929 556.377 467.692 557.937 467.835C557.762 465.958 557.989 464.065 558.603 462.283C559.217 460.501 560.204 458.871 561.498 457.5C561.934 457.064 562.371 456.584 562.371 456.379C562.371 456.174 561.594 455.75 561.131 455.506C560.127 454.965 558.875 454.297 558.382 452.927C558.232 452.5 558.173 452.046 558.21 451.595C558.247 451.144 558.378 450.705 558.596 450.308C558.848 449.84 559.187 449.424 559.595 449.082C557.831 440.74 555.552 432.515 552.77 424.456C551.945 422.06 551.059 419.795 549.348 418.416C548.982 418.123 548.58 417.866 548.183 417.608C547.331 417.114 546.557 416.494 545.887 415.771C545.489 415.294 545.192 414.74 545.015 414.143C542.911 416.722 540.725 418.324 538.469 418.922C539.093 421.731 538.658 424.671 537.247 427.179L536.867 426.961C541.035 440.188 533.493 454.581 534.864 468.485C534.973 469.585 535.217 470.811 536.134 471.431C537.05 472.05 538.198 471.841 539.272 471.867C542.994 471.959 545.508 474.656 547.467 478.012C547.3 475.568 548.068 473.151 549.614 471.252Z" fill="#797979"/>
<path d="M686.681 418.271L687.174 419.764C683.735 420.899 680.345 419.829 677.063 418.786C676.037 418.463 675.012 418.136 674.008 417.883C671.512 417.281 668.61 417.691 666.951 418.909C666.555 419.169 666.223 419.516 665.982 419.925C665.742 420.334 665.598 420.792 665.563 421.265L665.402 423.5C665.52 423.727 665.638 423.936 665.782 424.207C666.388 425.298 667.091 426.533 667.178 427.947C667.305 429.749 666.436 431.346 665.799 432.516L661.819 439.812C661.317 440.725 660.911 441.536 660.972 442.235C661.073 443.308 662.177 444.076 663.848 445.119C664.342 445.429 664.835 445.735 665.284 446.057C667.399 447.592 668.909 449.818 669.552 452.35L669.666 452.826C669.945 453.991 670.325 455.584 670.975 455.641L670.892 456.514C671.876 455.377 672.724 454.129 673.419 452.796C679.755 440.951 694.113 433.986 707.336 436.343C699.883 431.019 692.28 425.459 686.681 418.271Z" fill="#797979"/>
<path d="M666.921 453.481L666.812 453.045C666.334 451.159 665.21 449.502 663.635 448.362C663.229 448.07 662.792 447.799 662.325 447.52C660.58 446.42 658.398 445.054 658.149 442.514C657.996 440.908 658.764 439.507 659.323 438.49L663.303 431.194C663.931 430.037 664.411 429.077 664.35 428.169C664.294 427.375 663.809 426.511 663.299 425.595C662.653 424.434 661.893 423.042 661.989 421.51C661.59 421.525 661.198 421.618 660.836 421.785C660.473 421.952 660.147 422.189 659.877 422.483C659.234 423.357 658.726 424.322 658.367 425.346C658.036 426.201 657.645 427.032 657.198 427.833C655.177 431.25 651.153 433.507 646.143 434C645.511 434.061 644.873 434.1 644.236 434.135C642.443 434.244 640.745 434.344 639.309 435.008C638.607 435.366 637.929 435.77 637.28 436.217C635.377 437.456 633.003 438.997 630.454 437.836C629.719 437.457 629.054 436.954 628.491 436.348C628.239 436.089 627.971 435.847 627.688 435.623C625.741 434.179 623.35 435.13 619.645 436.871C617.314 437.967 614.766 439.162 612.226 439.18C611.159 439.197 610.103 438.971 609.136 438.521C608.725 438.321 608.326 438.098 607.94 437.853C607.536 437.573 607.095 437.348 606.631 437.186C605.61 436.889 604.392 437.443 603.1 438.019C602.572 438.259 602.04 438.49 601.512 438.687C600.689 438.978 599.815 439.092 598.945 439.024C598.075 438.956 597.23 438.705 596.463 438.29C596.312 438.967 596.086 439.626 595.791 440.253C593.905 444.181 589.659 446.018 585.823 447.445C578.971 449.998 572.238 452.194 565.277 451.103L564.692 451.007C563.697 450.832 562.754 450.679 561.986 450.889C561.597 451 561.267 451.258 561.066 451.609C561.031 451.662 561.007 451.721 560.996 451.783C560.984 451.846 560.986 451.909 561 451.971C561.131 452.325 561.825 452.695 562.44 453.027C563.588 453.642 565.163 454.485 565.159 456.383C565.159 457.727 564.26 458.644 563.61 459.311C562.35 460.6 561.446 462.193 560.987 463.936C560.528 465.679 560.529 467.511 560.991 469.253L561.72 471.871L559.176 470.999C557.871 470.539 556.457 470.491 555.124 470.861C553.792 471.232 552.605 472.002 551.724 473.069C550.844 474.136 550.313 475.448 550.202 476.827C550.092 478.205 550.408 479.585 551.107 480.778L549.361 481.817C549.85 482.886 550.312 483.955 550.758 484.972C553.236 490.615 560.153 496.384 564.723 492.269C564.431 493.859 563.679 495.329 562.561 496.496C561.442 497.664 560.006 498.478 558.43 498.837C566.154 502.328 575.113 500.233 583.589 500.583C592.064 500.932 602.022 506.199 601.529 514.665C590.587 511.178 578.904 510.725 567.725 513.356C570.583 515.889 572.847 519.02 574.355 522.528C575.864 526.036 576.58 529.833 576.453 533.649C576.336 536.612 575.707 539.628 576.414 542.513C577.121 545.397 579.801 548.129 582.707 547.531C587.529 546.536 586.704 539.397 584.671 534.91C586.93 536.114 588.819 537.909 590.136 540.104C591.453 542.299 592.148 544.81 592.147 547.37L595.764 541.766C599.076 544.849 603.311 546.753 607.814 547.187C601.825 539.391 597.081 530.714 593.752 521.465C599.956 522.491 605.797 525.075 610.729 528.975C608.621 526.745 608.167 522.953 610.026 520.448C612.243 517.467 617.17 517.061 619.841 519.645C624.371 514.936 619.557 506.88 613.657 504.074C607.757 501.268 600.604 500.652 595.935 496.083C595.111 490.689 594.288 485.295 593.465 479.901C595.647 478.684 598.754 479.788 599.683 482.083C601.935 481.442 602.053 478.038 600.578 476.222C599.103 474.407 596.764 473.556 594.878 472.159C589.092 467.861 589.183 457.758 595.053 453.59C598.88 453.904 599.928 458.884 600.569 462.667C601.211 466.451 604.637 471.06 607.892 469.022C608.059 466.824 607.451 464.637 606.173 462.842L615.102 468.921L612.483 462.632L624.559 465.687C622.038 464.365 619.823 462.526 618.06 460.292C616.296 458.057 615.022 455.476 614.32 452.717C622.992 447.827 632.793 445.292 642.748 445.364C650.664 445.434 659.48 447.825 663.395 454.707C664.128 455.995 664.752 457.492 666.074 458.155C666.577 458.408 667.139 458.52 667.7 458.48C668.262 458.44 668.802 458.249 669.264 457.928C667.785 457.003 667.274 454.956 666.921 453.481Z" fill="#797979"/>
<path d="M535.518 394.273C535.802 395.526 536.099 396.818 536.876 397.228C537.276 397.386 537.698 397.481 538.128 397.507C538.715 397.565 539.293 397.69 539.852 397.878C540.687 398.234 541.457 398.727 542.13 399.336C542.933 399.99 543.439 400.374 543.924 400.335C544.142 400.294 544.355 400.231 544.561 400.147C545.013 399.962 545.489 399.843 545.975 399.794C547.869 399.659 549.03 400.977 549.968 402.033C550.046 402.124 550.125 402.207 550.203 402.294C552.17 400.663 554.703 399.878 557.247 400.112C558.674 400.195 560.064 400.597 561.315 401.289C562.566 401.981 563.646 402.945 564.474 404.11C565.047 405.01 565.542 405.958 565.953 406.942C566.564 408.304 567.14 409.582 568.136 410.364C568.941 410.918 569.811 411.371 570.728 411.712C572.7 412.55 575.157 413.593 575.485 416.277C575.533 416.74 575.533 417.206 575.485 417.669C575.441 417.976 575.441 418.287 575.485 418.594C575.594 419.031 576.126 419.537 576.641 420.026C577.278 420.637 578.077 421.4 578.387 422.409C579.844 422.304 581.442 421.029 582.873 419.877C583.932 419.021 585.125 418.344 586.404 417.874C585.962 417.68 585.501 417.534 585.029 417.438L583.436 417.115L589.153 401.234C590.432 397.673 591.601 393.27 589.218 390.76C588.75 390.31 588.243 389.901 587.704 389.538C586.617 388.757 585.382 387.871 584.75 386.396C583.846 384.297 584.505 381.705 586.561 379.296C586.914 378.881 587.294 378.475 587.669 378.069C588.664 377.013 589.598 376.01 590.026 374.836C590.159 374.442 590.207 374.023 590.165 373.61C590.124 373.196 589.994 372.795 589.786 372.435C589.705 372.28 589.588 372.147 589.446 372.046C589.303 371.945 589.138 371.88 588.965 371.855L589.144 370C587.765 368.239 585.925 366.893 583.829 366.112C582.562 365.705 581.266 365.391 579.953 365.174L569.44 363.153L556.728 344.741C553.394 339.914 551.927 335.633 552.32 332.19C544.363 330.578 536.103 331.433 528.645 334.642L528.789 334.69C527.043 340.111 525.704 344.964 527.139 349.428C527.551 350.594 528.05 351.727 528.632 352.819C529.544 354.652 530.487 356.541 530.748 358.719C531.023 361.015 530.482 363.201 529.963 365.313C529.474 367.286 529.016 369.145 529.243 370.947C529.505 372.972 530.617 374.875 531.796 376.9C533.406 379.662 535.073 382.516 534.593 385.903C534.35 387.332 533.801 388.691 532.983 389.887C534.292 390.76 535.091 392.362 535.396 393.623L535.518 394.273Z" fill="#797979"/>
<path d="M242.117 389.521C242.043 387.592 239.237 386.549 237.264 386.427C236.653 386.388 236.033 386.379 235.409 386.37C233.14 386.335 230.57 386.292 228.427 384.838L227.868 384.459L227.593 380.531C226.681 380.125 225.045 380.815 223.805 381.801C221.894 383.32 219.275 385.397 216.434 384.245L215.125 383.712L215.675 382.403C216.623 380.127 216.659 377.574 215.775 375.272C208.487 375.194 200.357 374.98 193.209 371.576C188.154 369.149 183.926 365.287 181.05 360.474C180.614 359.732 180.274 359.164 179.872 358.938C179.379 358.752 178.853 358.673 178.327 358.706L170.035 358.484V357.126C169.996 350.698 163.053 346.465 156.969 343.497L157.803 341.8C154.545 341.344 151.354 340.499 148.298 339.282C143.14 337.319 138.191 334.845 133.526 331.898C131.802 330.811 130.034 329.624 127.992 329.432C123.628 329.026 119.29 333.255 115.336 331.374C111.818 329.694 111.788 324.566 109.1 321.747C105.608 318.072 99.5903 319.744 94.5847 320.608C89.5791 321.472 83.8447 321.446 84.4601 316.401C83.4476 317.845 81.0648 317.409 79.869 316.117C78.6733 314.825 78.2457 313.027 77.5081 311.43C75.9763 308.118 72.6422 305.456 68.9982 305.582C65.3541 305.709 61.9501 309.3 62.7575 312.857C56.5168 310.178 49.4985 309.937 43.0886 312.181C44.9215 315.794 46.7981 319.6 46.737 323.645C46.6759 327.691 43.9701 332.02 39.9377 332.434C40.0075 344.03 34.9016 354.953 29.9003 365.418C26.169 373.23 22.3374 381.186 16.3717 387.439C11.7458 392.279 5.70153 396.325 3.65041 402.714C7.32933 404.254 11.4621 406.685 11.724 410.665C11.8505 412.576 11.0082 414.401 10.1834 416.133L1.13669 435.034C0.237694 436.915 -0.60893 439.258 0.599921 440.943C1.05108 441.487 1.59655 441.945 2.21024 442.296C7.853 445.97 13.666 449.715 20.2514 451.111C21.4166 451.356 22.5906 451.521 23.7732 451.657C22.6672 450.578 21.9425 449.169 21.7089 447.642C21.4647 446.128 21.5767 444.577 22.0357 443.114C22.4947 441.65 23.2883 440.314 24.3536 439.21C27.5743 436.02 32.1043 435.108 36.6298 434.711C36.7934 433.708 36.6409 432.678 36.1934 431.765C35.9302 431.176 35.5477 430.647 35.07 430.213C34.5923 429.779 34.0297 429.449 33.4178 429.243L30.4502 428.37L33.0686 426.733C40.5618 422.073 44.3585 412.162 41.9059 403.687L41.2426 401.396L49.207 403.237C49.6914 402.67 49.7831 401.649 49.8747 400.161C49.9795 398.446 50.0974 396.504 51.3586 395.028C52.083 394.266 52.9584 393.662 53.929 393.257C54.2214 393.113 54.5138 392.969 54.8018 392.82C58.6073 390.638 59.3142 385.528 59.7943 379.593C60.4489 371.462 63.3336 366.5 68.1385 365.191C69.8841 364.729 71.6035 364.86 73.2706 364.999C74.0561 365.06 74.8591 365.113 75.6272 365.113C77.5212 365.113 79.616 364.275 79.9564 362.765C80.2095 361.626 79.4895 360.316 78.6472 358.959C77.2463 356.681 75.5006 353.836 72.9127 352.679C71.7473 352.226 70.5285 351.924 69.2861 351.78C68.8017 351.702 68.3218 351.623 67.8417 351.532C57.4596 349.529 49.9228 341.411 42.482 332.552L44.6291 330.75C51.7338 339.207 58.8953 346.949 68.3741 348.778C68.8105 348.865 69.2774 348.939 69.7357 349.014C71.2193 349.191 72.6734 349.562 74.0605 350.118C77.4383 351.636 79.4371 354.883 81.0431 357.493C82.1385 359.287 83.1684 361.216 82.684 363.376C81.9901 366.457 78.6559 367.879 75.6578 367.919C74.8155 367.919 73.9121 367.862 73.0393 367.792C71.5424 367.67 70.1328 367.561 68.8541 367.901C64.1278 369.158 62.8928 375.896 62.5786 379.798C62.1422 384.995 61.5835 392.118 56.1939 395.229C55.8622 395.417 55.5175 395.591 55.1684 395.762C54.5456 396.014 53.9756 396.381 53.4882 396.844C52.8379 397.603 52.7595 398.926 52.6722 400.335C52.5543 402.303 52.4015 404.76 50.2151 405.978L49.7438 406.244L45.1223 405.171C45.7886 409.365 45.3402 413.661 43.822 417.627C42.3038 421.593 39.7693 425.09 36.4726 427.768C37.4262 428.518 38.1914 429.48 38.7071 430.578C39.1688 431.504 39.4332 432.516 39.4835 433.55C39.5338 434.584 39.369 435.617 38.9995 436.583L38.6722 437.391L37.7993 437.456C33.4964 437.775 29.1279 438.451 26.3218 441.231C25.5761 442.017 25.0215 442.965 24.7006 444C24.3797 445.035 24.3013 446.131 24.4714 447.201C24.5458 447.859 24.7805 448.488 25.1549 449.033C25.5293 449.579 26.0318 450.024 26.6185 450.33L25.8679 451.892C28.5431 452.137 31.2226 452.329 33.8236 452.988C38.2619 454.079 42.7395 456.916 43.7694 461.389C44.4065 464.129 43.6342 466.97 43.5076 469.781C43.4012 472.802 44.0322 475.803 45.3461 478.525C46.6601 481.247 48.6174 483.608 51.0487 485.404L68.9807 478.334L73.5936 483.934C76.7401 482.624 78.1583 478.291 76.3821 475.389C77.7743 472.818 81.7718 473.237 84.0411 475.074C86.3105 476.912 87.7027 479.674 89.9982 481.481C92.2937 483.288 95.1041 483.934 97.8796 484.579L122.593 490.327C121.85 487.891 121.86 485.287 122.623 482.857C123.386 480.427 124.866 478.285 126.869 476.711C128.872 475.138 131.304 474.207 133.846 474.041C136.387 473.875 138.92 474.482 141.11 475.781C142.419 476.567 143.694 477.623 145.226 477.75C148.28 478.003 150.262 474.581 150.86 471.583C151.458 468.585 151.65 465.137 154.006 463.195C158.37 459.595 166.915 463.798 169.673 458.866C171.676 455.292 168.01 451.325 166.74 447.428C164.502 440.559 170.175 433.585 176.341 429.815C182.508 426.044 189.813 423.596 194.26 417.901C196.159 415.47 197.481 412.498 199.982 410.691C201.753 409.382 203.944 408.845 206.091 408.409C218.69 405.847 234.022 405.219 240.498 394.112C241.314 392.655 241.982 391.12 242.492 389.53L242.117 389.521Z" fill="#797979"/>
<path d="M514.309 466.124C512.598 460.922 507.396 457.832 502.591 455.214L468.552 436.575C469.015 435.16 469.93 433.938 471.156 433.094C472.382 432.251 473.851 431.833 475.338 431.905C474.775 428.676 471.096 426.934 467.823 426.79C464.55 426.646 461.277 427.554 458.008 427.157C455.263 426.821 452.701 425.577 450.393 424.05C446.632 421.536 443.428 418.276 440.98 414.472C438.531 410.668 436.891 406.401 436.161 401.937C435.463 397.494 435.633 392.742 433.434 388.814C428.472 379.946 413.507 378.75 411.522 368.778C410.745 364.851 412.421 360.923 413.232 357.035C414.044 353.146 413.538 348.246 410.02 346.356C419.089 343.758 427.864 340.228 436.205 335.821C437.894 331.924 436.284 326.984 434.202 322.174C434.012 321.623 433.716 321.114 433.329 320.678C432.544 319.971 431.339 320.315 429.441 320.939C427.931 321.437 426.216 321.991 424.501 321.721C423.047 321.489 421.843 320.678 420.874 320.027L408.559 311.736C407.027 310.706 405.648 309.85 404.251 309.842C402.942 309.811 401.572 310.549 400.118 311.308C397.958 312.429 395.514 313.704 392.935 312.486C392.271 312.147 391.646 311.736 391.072 311.26C390.229 310.618 389.614 310.178 389.278 310.33C388.942 310.483 388.933 311.295 388.959 312.421C388.99 313.9 389.029 315.742 387.65 316.964C385.787 318.605 383.513 317.514 381.85 316.702C381.191 316.344 380.49 316.067 379.764 315.877C379.931 317.669 379.623 319.473 378.872 321.108C378.122 322.743 376.954 324.153 375.487 325.194L374.039 326.198L373.393 324.535C372.33 321.889 370.66 319.53 368.518 317.649L364.782 324.71L363.608 322.092C362.827 320.346 361.086 318.6 359.956 318.474C359.826 318.45 359.692 318.467 359.573 318.522C359.453 318.578 359.354 318.669 359.288 318.784C358.917 319.259 359.013 320.123 359.122 321.123C359.262 322.432 359.423 323.885 358.612 325.225C358.26 325.825 357.745 326.312 357.127 326.63C356.509 326.948 355.812 327.082 355.12 327.019C354.081 326.957 353.075 326.63 352.198 326.071C351.32 325.511 350.6 324.736 350.106 323.82C349.338 322.314 349.111 320.721 348.893 319.181C348.783 318.202 348.59 317.234 348.317 316.287C348.131 315.712 347.827 315.182 347.424 314.731C347.021 314.28 346.529 313.918 345.978 313.669C345.812 313.607 345.639 313.569 345.463 313.555L346.383 326.862L343.891 324.88C343.317 324.464 342.618 324.256 341.91 324.29C341.202 324.324 340.526 324.598 339.994 325.068L338.986 326.041L338.013 325.033C334.522 321.446 328.443 320.787 324.161 323.327C323.57 329.141 322.4 334.882 320.67 340.464L320.334 341.534L313.557 340.992C313.504 342.005 314.534 343.113 316.498 344.977C318.654 347.019 321.102 349.341 320.862 352.461C320.749 353.845 320.09 354.988 319.505 355.996C319.175 356.529 318.893 357.089 318.663 357.672C318.456 358.229 318.371 358.825 318.413 359.418C318.455 360.011 318.623 360.588 318.907 361.111C320.465 364.166 325.161 366.474 328.713 367.53L327.91 370.219C325.837 369.599 318.872 367.212 316.411 362.385C315.953 361.525 315.681 360.578 315.613 359.606C315.545 358.633 315.683 357.658 316.018 356.742C316.303 355.995 316.658 355.276 317.079 354.595C317.554 353.77 318.008 352.989 318.069 352.23C318.213 350.449 316.372 348.699 314.578 346.993C312.274 344.811 309.407 342.088 311.414 338.771L311.85 338.029L318.314 338.544C321.011 329.41 322.163 319.888 321.722 310.374L310.764 316.047L310.205 314.585C308.652 310.514 312.649 306.669 313.963 305.421L329.062 290.893L336.398 290.456C336.328 284.094 337.649 277.793 340.271 271.995C342.892 266.197 346.749 261.042 351.572 256.892C351.485 256.484 351.275 256.113 350.97 255.827C349.94 254.802 347.789 254.156 345.847 254.317C345.297 254.361 344.734 254.422 344.166 254.483C341.225 254.802 337.887 255.168 335.355 253.039C333.392 251.385 332.85 249.015 332.331 246.728C331.956 245.083 331.602 243.525 330.747 242.364C329.001 240.029 325.85 239.903 322.211 239.746C319.928 239.654 317.572 239.558 315.398 238.873C310.834 237.42 306.474 232.899 304.353 229.311C303.585 228.002 303.253 226.296 302.9 224.476C302.463 222.246 301.974 219.719 300.687 219.091C299.958 218.737 298.941 218.877 297.859 219.021L297.213 219.104C294.801 219.382 292.357 219.174 290.026 218.493C289.227 218.304 288.494 217.903 287.905 217.332C287.032 216.402 286.897 215.176 286.809 214.364L286.316 209.821C286.281 209.481 286.194 208.687 285.958 208.512C285.767 208.41 285.563 208.334 285.352 208.285C285.182 208.233 285.011 208.185 284.846 208.124C282.402 207.251 281.14 204.981 280.045 202.734C279.548 201.695 279.081 200.552 278.609 199.374C277.649 197.013 276.658 194.573 275.297 192.858L275.93 192.352C273.5 192.838 271.187 193.79 269.117 195.154C261.829 200.024 256.339 208.534 250.19 214.792C248.257 216.76 246.263 218.72 243.941 220.182C234.436 226.139 220.502 221.539 215.138 211.698C214.825 210.991 214.381 210.349 213.829 209.808C212.109 208.381 209.303 209.677 208.334 211.689C207.366 213.701 207.641 216.053 207.771 218.274C207.902 220.496 207.802 222.962 206.305 224.62C204.04 227.12 200.016 226.457 196.752 225.593C182.089 221.696 167.116 217.358 151.767 218.816L160.168 225.292L151.261 234.579C161.044 236.942 170.164 241.493 177.934 247.889C181.042 250.451 184.175 254.186 183.053 258.049C185.947 258.027 187.967 261.309 187.719 264.193C187.47 267.078 185.672 269.565 183.939 271.887C185.52 274.624 187.829 276.869 190.608 278.373C193.387 279.878 196.529 280.583 199.685 280.41C196.907 290.889 195.894 301.757 196.687 312.569L192.576 303.584C193.409 313.756 186.353 322.689 179.706 330.44C176.088 334.66 172.23 339.046 167.002 340.914C164.799 341.684 162.47 342.032 160.138 341.939C165.985 344.994 171.964 349.267 172.741 355.712L178.414 355.861C179.394 355.823 180.368 356.025 181.251 356.45C182.32 357.048 182.914 358.056 183.394 358.868C185.994 363.262 189.835 366.789 194.435 369.005C201.317 372.283 209.504 372.37 216.722 372.44H217.595L217.979 373.212C219.247 375.814 219.573 378.776 218.9 381.591C219.952 381.264 221.104 380.343 222.094 379.558C224.547 377.603 227.951 376.608 230.002 378.803L230.347 379.165L230.6 382.822C231.953 383.486 233.655 383.512 235.466 383.538C236.134 383.538 236.801 383.538 237.456 383.599C239.765 383.747 242.108 384.651 243.544 386.187C244.162 383.811 244.982 381.492 245.996 379.257C250.103 370.891 259.935 366.047 269.213 366.924C278.491 367.801 286.879 373.906 291.518 381.976C291.554 381.961 291.589 381.945 291.623 381.928C291.563 382.583 291.624 383.244 291.802 383.878C292.312 385.266 293.927 385.833 295.35 386.235C297.833 386.937 300.399 387.644 302.961 387.343C305.523 387.042 308.115 385.462 308.813 382.979C307.473 380.029 313.587 376.381 316.821 376.464C320.055 376.547 324 377.197 325.911 374.583C326.662 373.553 326.885 372.204 327.657 371.183C329.35 368.936 332.698 369.197 335.512 368.957C338.327 368.717 341.701 366.461 340.627 363.86C346.3 361.29 352.554 360.993 356.569 365.754C357.878 360.613 363.115 356.764 368.396 357.057C367.213 364.126 368.143 371.458 370.412 378.249C374.632 390.904 383.212 401.553 391.621 411.9C402.095 424.761 413.04 438.032 428.035 445.067C436.881 449.23 448.739 453.533 448.721 463.309C448.721 464.544 448.525 465.884 449.201 466.914C450.393 468.72 453.085 468.223 455.241 468.371C458.811 468.655 461.722 471.361 463.795 474.28C472.021 485.836 470.777 503.175 460.993 513.444L473.234 515.996C470.572 504.89 491.428 498.496 488.644 487.42C487.4 482.48 481.722 479.757 480.116 474.922C477.934 468.341 485.388 461.502 492.257 462.445C499.126 463.387 504.206 469.707 506.152 476.362C511.237 478.369 516.024 471.326 514.309 466.124Z" fill="#797979"/>
<path d="M383.958 313.735C384.041 313.543 384.137 313.355 384.238 313.163C384.365 312.951 384.465 312.724 384.534 312.486C384.425 312.443 383.762 312.273 383.404 312.185L383.064 312.098C378.791 310.977 376.793 306.804 375.029 303.121C374.768 302.571 374.506 302.03 374.24 301.502C372.613 298.265 370.417 295.348 367.755 292.892C367.065 292.259 366.319 291.644 365.538 291.452C365.187 291.38 364.831 291.339 364.473 291.329C363.908 291.311 363.346 291.235 362.797 291.102C361.772 290.772 360.817 290.254 359.982 289.575C359.153 288.977 358.442 288.436 357.752 288.48C357.192 288.563 356.652 288.75 356.159 289.03C355.23 289.466 354.178 289.968 352.904 289.802C352.022 289.634 351.189 289.268 350.468 288.733L350.228 288.576C348.621 287.564 346.822 286.897 344.944 286.616C343.067 286.335 341.151 286.447 339.318 286.944C339.202 288.532 339.185 290.127 339.266 291.718L339.34 293.106L330.28 293.647L315.922 307.455C314.142 309.165 313.099 310.636 312.78 311.884L324.253 305.945L324.411 308.061C324.697 312.056 324.709 316.066 324.445 320.063C329.246 318.077 335.133 318.854 339.126 322.245C340.367 321.557 341.809 321.325 343.202 321.59L342.526 311.806L343.246 311.369C343.794 311.032 344.413 310.828 345.054 310.773C345.695 310.718 346.34 310.813 346.938 311.051C347.885 311.445 348.737 312.039 349.434 312.792C350.132 313.545 350.658 314.44 350.979 315.415C351.305 316.513 351.534 317.637 351.664 318.775C351.861 320.154 352.044 321.45 352.598 322.541C352.869 323.009 353.248 323.404 353.704 323.694C354.16 323.985 354.678 324.161 355.217 324.208C355.407 324.248 355.604 324.228 355.782 324.149C355.96 324.071 356.108 323.939 356.207 323.772C356.526 323.24 356.43 322.358 356.325 321.424C356.181 320.089 355.998 318.43 357.063 317.06C357.431 316.568 357.923 316.181 358.488 315.94C359.054 315.698 359.673 315.611 360.283 315.685C361.933 315.886 363.578 317.169 364.787 318.701L367.576 313.425L368.885 314.372C371.522 316.298 373.675 318.811 375.174 321.712C375.936 320.823 376.48 319.768 376.763 318.632C377.045 317.495 377.059 316.309 376.801 315.166L376.566 314.232L377.36 313.678C379.271 312.369 381.375 313.364 383.068 314.184C383.312 314.306 383.531 314.402 383.753 314.503C383.789 314.239 383.857 313.981 383.958 313.735Z" fill="#797979"/>
<path d="M332.99 240.714C334.203 242.334 334.644 244.258 335.068 246.117C335.504 248.042 335.94 249.857 337.162 250.918C338.773 252.275 341.247 251.996 343.866 251.716C344.459 251.651 345.053 251.59 345.611 251.542C347.924 251.385 351.079 252.013 352.934 253.863C353.442 254.349 353.835 254.942 354.085 255.599C354.335 256.256 354.435 256.96 354.379 257.66L354.335 258.258L353.868 258.638C346.196 264.909 341.142 274.178 339.676 283.949C343.833 283.134 348.144 283.939 351.725 286.201L351.983 286.367C352.359 286.663 352.791 286.881 353.253 287.009C353.849 286.968 354.428 286.787 354.942 286.481C355.788 286.024 356.723 285.756 357.682 285.695C359.301 285.656 360.545 286.537 361.61 287.318C362.175 287.788 362.818 288.157 363.508 288.41C363.878 288.495 364.255 288.542 364.634 288.549C365.157 288.568 365.677 288.634 366.188 288.746C367.589 289.086 368.675 289.959 369.64 290.849C370.124 291.285 370.569 291.774 371.028 292.246L401.14 293.262C404.195 293.367 407.35 293.472 410.4 293.088C411.928 292.896 413.486 292.582 415.048 292.267C419.355 291.395 423.776 290.522 427.909 291.923C428.228 289.034 427.885 286.11 426.905 283.373L426.434 282.064L427.743 281.593C428.876 281.17 429.87 280.441 430.614 279.487C431.359 278.533 431.824 277.392 431.959 276.19L432.077 274.959L442.987 274.615C435.838 266.468 430.116 257.173 426.063 247.121C424.208 242.526 422.694 237.743 421.232 233.121C420.66 231.31 420.084 229.499 419.486 227.692L418.614 225.074L421.232 225.946C425.939 227.486 430.977 227.714 435.804 226.605C438.263 225.979 440.677 225.189 443.031 224.24L461.944 217.083C463.666 206.812 462.898 196.277 459.706 186.364C459.378 185.347 459.021 184.331 458.667 183.309C457.62 180.316 456.537 177.2 456.105 173.961C455.398 168.36 456.63 162.684 459.597 157.88C457.875 155.914 456.769 153.486 456.415 150.897L449.223 150.64C449.756 145.403 443.144 142.283 437.916 142.832C432.688 143.382 427.586 145.887 422.393 145.08C413.774 143.714 407.044 133.493 398.617 135.771C397.548 129.945 396.479 123.988 397.365 118.127C398.251 112.266 401.467 106.427 406.861 103.97C410.352 102.377 415.153 101.614 416.026 97.8606C417.213 92.6237 408.943 86.6275 413.049 83.1668C412.297 82.4755 411.385 81.9807 410.395 81.7265C409.406 81.4722 408.369 81.4662 407.376 81.7091L405.098 86.8719C397.937 84.0052 390.086 83.3278 382.54 84.9255L384.722 119.424C385.302 128.623 386.057 138.351 391.36 145.887C387.237 148.993 384.318 153.432 383.099 158.447C376.611 152.443 368.469 148.527 359.729 147.205C359.24 149.742 358.753 152.276 358.267 154.808L359.668 155.152C359.533 155.693 360.104 156.304 361.034 157.243C361.963 158.181 363.068 159.276 363.36 160.804C363.473 161.567 363.45 162.344 363.29 163.099L360.746 179.015C360.362 181.428 359.197 184.466 357.071 185.775C356.567 186.092 355.998 186.294 355.407 186.365C354.815 186.435 354.215 186.374 353.65 186.185C353.203 186.027 352.773 185.824 352.367 185.579C352.089 185.387 351.776 185.25 351.446 185.177C351.079 185.177 350.743 185.823 350.268 186.801C349.872 187.777 349.289 188.666 348.553 189.419C346.986 190.829 344.952 190.728 343.163 190.597C341.491 190.493 340.44 190.48 339.846 191.099C339.493 191.576 339.245 192.122 339.117 192.701C338.941 193.343 338.694 193.964 338.38 194.551C337.35 196.358 335.473 197.244 333.819 198.042C333.076 198.367 332.361 198.752 331.681 199.195C332.117 199.932 332.475 200.67 332.824 201.377L330.45 202.559C330.45 202.647 330.45 202.721 330.45 202.808C331.088 209.315 330.145 215.88 327.701 221.945C327.313 222.892 326.894 223.852 326.466 224.816C324.624 228.997 322.765 233.304 323.847 237.136C327.378 237.254 330.778 237.764 332.99 240.714Z" fill="#797979"/>
<path d="M180.767 94.5484C180.347 94.5507 179.932 94.4572 179.554 94.2749C179.176 94.0927 178.844 93.8265 178.585 93.4967C178.136 92.8873 177.841 92.1792 177.723 91.432C177.606 90.6847 177.669 89.9201 177.908 89.2024C178.052 88.766 178.235 88.3296 178.419 87.8932C178.811 86.9855 179.147 86.2 178.973 85.5933C178.759 84.8733 177.751 84.4849 176.843 84.4805C175.84 84.5705 174.856 84.8103 173.924 85.1919L172.99 85.5061C169.749 86.5423 166.306 86.7818 162.952 86.2043C162.084 86.1045 161.258 85.7779 160.557 85.2573C159.291 84.223 158.75 82.3377 158.222 80.5135C158.004 79.61 157.691 78.7322 157.288 77.8951C157.166 77.6432 156.983 77.4257 156.755 77.2623L154.888 75.1981C155.298 74.7958 155.826 74.5361 156.395 74.4575C156.964 74.3789 157.543 74.4856 158.047 74.7617C158.746 75.1606 159.318 75.7491 159.697 76.4594C160.236 77.4997 160.646 78.6017 160.919 79.7411C161.285 81.0154 161.739 82.6039 162.328 83.0796C162.664 83.2786 163.04 83.4022 163.428 83.4419C166.344 83.9436 169.338 83.7355 172.156 82.8353L173.029 82.5385C174.233 82.0504 175.508 81.7558 176.804 81.6657C178.768 81.6919 181.041 82.5865 181.683 84.7947C182.141 86.3702 181.517 87.8234 181.015 88.9886C180.863 89.3465 180.705 89.7043 180.579 90.0578C180.486 90.3359 180.459 90.6316 180.498 90.922C180.537 91.2125 180.643 91.4902 180.806 91.7336L181.116 94.4961C181.001 94.5229 180.884 94.5405 180.767 94.5484Z" fill="#797979"/>
<path d="M158.444 76.1538L156.699 73.9718C157.977 72.9419 159.535 73.0335 160.779 73.099C161.433 73.1835 162.096 73.1525 162.739 73.0074C163.252 72.7938 163.728 72.4991 164.148 72.1345C165.732 70.9039 167.364 69.6339 168.617 68.1109C168.948 67.6637 169.354 67.277 169.817 66.9675C170.225 66.7368 170.667 66.5732 171.126 66.483L174.107 65.7717L174.753 68.4993L171.772 69.2106C171.597 69.2418 171.425 69.2931 171.262 69.3634C171.1 69.4914 170.953 69.6379 170.825 69.7998C169.343 71.4965 167.672 73.0191 165.846 74.3384C165.177 74.9144 164.412 75.368 163.585 75.6782C162.612 75.9403 161.598 76.0173 160.596 75.9051C159.688 75.8397 158.885 75.7829 158.444 76.1538Z" fill="#797979"/>
<path d="M652.341 492.915L649.478 493.434C649.769 494.834 650.455 496.121 651.454 497.143C652.453 498.165 653.724 498.88 655.117 499.204C654.244 500.98 653.842 503.083 654.523 504.938C655.806 508.429 660.554 509.586 664.011 508.176L660.663 510.397C663.404 511.947 667.065 509.555 669.933 510.864C672.302 511.951 672.988 515.023 674.999 516.704C677.579 518.886 682.174 517.668 683.361 514.522C683.741 513.509 683.828 512.339 684.504 511.51C686.206 509.402 689.702 511.074 691.251 513.317C692.8 515.56 693.992 518.454 696.61 519.165C698.522 519.684 700.503 518.785 702.284 517.908L713.923 512.174C715.149 511.567 716.423 510.952 717.789 510.899C718.82 510.914 719.843 511.092 720.818 511.427L728.974 513.758C735.957 510.886 743.864 512.724 751.388 512.195C756.878 511.805 762.202 510.142 766.937 507.338C768.002 506.705 769.054 506.007 770.254 505.706C771.725 505.339 773.27 505.601 774.771 505.802C781.515 506.71 788.369 506.378 794.994 504.825C796.277 504.528 797.661 504.096 798.363 502.987C799.432 501.307 798.363 499.003 799.074 497.139C799.445 496.144 800.27 495.394 800.681 494.403C802.47 490.131 795.88 484.366 799.419 481.411L802.614 480.215C803.26 478.173 801.331 476.227 799.419 475.254C797.508 474.28 795.238 473.508 794.27 471.614C793.301 469.72 794.008 467.429 793.676 465.338C792.978 460.974 787.889 458.557 783.486 458.901C779.083 459.246 775.094 461.52 770.97 463.082C764.485 465.565 757.31 466.416 750.511 465.024C747.347 464.378 744.301 463.279 741.268 462.148L726.43 456.702C720.931 454.686 715.206 452.634 709.371 453.149C699.582 454.022 691.382 461.904 681.563 462.349C680.254 462.41 678.84 462.371 677.814 463.174C676.317 464.343 676.361 466.752 674.943 468.018C667.925 474.276 655.575 468.406 648.234 473.028C645.389 474.821 644.106 477.466 646.052 480.818C647.763 483.737 649.766 482.45 651.407 484.597C651.874 485.182 652.638 492.858 652.341 492.915Z" fill="#797979"/>
<path d="M731.331 519.004C730.458 519.615 729.149 519.418 728.411 520.199C728.036 520.704 727.833 521.316 727.831 521.945C727.505 524.79 727.181 527.639 726.858 530.49C726.653 532.283 726.788 534.64 728.507 535.181C729.127 535.378 729.865 535.282 730.358 535.701C731.366 536.573 730.222 538.101 729.254 539C726.916 541.169 725.34 544.034 724.759 547.169C724.274 549.788 724.58 552.686 726.238 554.767C727.896 556.849 731.13 557.757 733.352 556.29C735.289 555.012 736.245 552.245 738.527 551.813C739.679 551.599 740.845 552.075 742.019 552.066C743.192 552.057 744.201 551.599 745.252 551.154C755.46 546.724 766.497 541.518 771.236 531.45C773.326 527.007 774.086 521.77 777.481 518.227C778.79 516.878 780.383 515.857 781.623 514.461C782.862 513.064 783.717 511.074 783.058 509.328C776.512 506.653 769.408 510.782 762.674 512.946C756.206 515.019 749.359 515.237 742.63 514.98C740.784 514.906 736.136 513.583 734.517 514.251C732.239 515.176 733.111 517.764 731.331 519.004Z" fill="#797979"/>
</svg>
